<svg fill="var(--orange)" color="var(--orange)" style="--icon-color:var(--orange)" width="16" height="16" viewBox="0 0 16 16" role="img" focusable="false" aria-hidden="true" class="sc-b3132b93-0 emzdhN"><path fill-rule="evenodd" clip-rule="evenodd" d="M9.62562 3.8314C9.85957 3.7977 10.0957 3.87627 10.2628 4.04341L12.5728 6.35341C12.8657 6.6463 12.8657 7.12117 12.5728 7.41407C12.28 7.70696 11.8051 7.70696 11.5122 7.41407L9.91096 5.81284L6.92594 11.2854C6.81276 11.4929 6.60838 11.6349 6.37442 11.6686C6.14047 11.7023 5.90433 11.6237 5.73719 11.4566L3.42719 9.14657C3.1343 8.85367 3.1343 8.3788 3.42719 8.08591C3.72008 7.79301 4.19496 7.79301 4.48785 8.08591L6.08908 9.68714L9.0741 4.2146C9.18728 4.00709 9.39166 3.86509 9.62562 3.8314Z"></path></svg>