<svg class="" width="22" height="22" viewBox="0 0 16 16" fill="currentColor" role="img" focusable="false" aria-hidden="true" style="--icon-color: currentColor;"><path d="M1.0542 4.89592C1 5.24587 1 5.66392 1 6.5C1 7.33608 1 7.75413 1.0542 8.10408C1.33117 9.89227 2.62465 11.3327 4.33092 11.8217L4.00388 14.438C3.97739 14.6499 4.08846 14.8553 4.28034 14.9492C4.47222 15.043 4.70253 15.0046 4.85357 14.8536L7.70713 12H9.5C10.3361 12 10.7541 12 11.1041 11.9458C13.0849 11.639 14.639 10.0849 14.9458 8.10408C15 7.75413 15 7.33608 15 6.5C15 5.66392 15 5.24587 14.9458 4.89592C14.639 2.91511 13.0849 1.361 11.1041 1.0542C10.7541 1 10.3361 1 9.5 1L6.5 1C5.66392 1 5.24587 1 4.89592 1.0542C2.91511 1.361 1.361 2.91511 1.0542 4.89592Z"></path></svg>