<svg aria-hidden="true" width="24" height="24" viewBox="0 0 24 24" fill="none" xmlns="http://www.w3.org/2000/svg"><rect width="24" height="24" rx="5" fill="#28282C"></rect><path fill-rule="evenodd" clip-rule="evenodd" d="M13.3125 14.1875C13.5541 14.1875 13.75 14.3834 13.75 14.625V17.25C13.75 17.4916 13.5541 17.6875 13.3125 17.6875H12.4375C12.1959 17.6875 12 17.4916 12 17.25V14.625C12 14.3834 12.1959 14.1875 12.4375 14.1875H13.3125ZM11.125 15.0625V16.375H6.53125C6.16881 16.375 5.875 16.0812 5.875 15.7188C5.875 15.3563 6.16881 15.0625 6.53125 15.0625H11.125ZM17.4688 15.0625C17.8312 15.0625 18.125 15.3563 18.125 15.7188C18.125 16.0812 17.8312 16.375 17.4688 16.375H14.625V15.0625H17.4688ZM9.8125 10.25C10.0541 10.25 10.25 10.4459 10.25 10.6875V11.3438V12.6563V13.3125C10.25 13.5541 10.0541 13.75 9.8125 13.75H8.9375C8.69588 13.75 8.5 13.5541 8.5 13.3125V10.6875C8.5 10.4459 8.69588 10.25 8.9375 10.25H9.8125ZM7.625 11.3438V12.6563H6.53125C6.16881 12.6563 5.875 12.3624 5.875 12C5.875 11.6376 6.16881 11.3438 6.53125 11.3438H7.625ZM17.4688 11.3438C17.8312 11.3438 18.125 11.6376 18.125 12C18.125 12.3624 17.8312 12.6563 17.4688 12.6563H11.125V11.3438H17.4688ZM15.0625 6.53125C15.3041 6.53125 15.5 6.72713 15.5 6.96875V9.59375C15.5 9.83537 15.3041 10.0313 15.0625 10.0313H14.1875C13.9459 10.0313 13.75 9.83537 13.75 9.59375V6.96875C13.75 6.72713 13.9459 6.53125 14.1875 6.53125H15.0625ZM12.875 7.625V8.9375H6.53125C6.16881 8.9375 5.875 8.64369 5.875 8.28125C5.875 7.91881 6.16881 7.625 6.53125 7.625H12.875ZM17.4688 7.625C17.8312 7.625 18.125 7.91881 18.125 8.28125C18.125 8.64369 17.8312 8.9375 17.4688 8.9375H16.375V7.625H17.4688Z" fill="#8A8F98"></path></svg>