<svg class="" style="--icon-color:currentColor" width="16" height="16" viewBox="0 0 16 16" fill="currentColor" role="img" focusable="false" aria-hidden="true"><path d="M12.2517 1C13.7705 1 15.0017 2.23122 15.0017 3.75V8.25C15.0017 9.76878 13.7705 11 12.2517 11H11.001L11.0017 12.25C11.0017 13.7688 9.77049 15 8.25171 15H3.75C2.23122 15 1 13.7688 1 12.25V7.75C1 6.23122 2.23122 5 3.75 5H5V3.75C5 2.23122 6.23122 1 7.75 1H12.2517ZM5 6.5H3.75C3.05964 6.5 2.5 7.05964 2.5 7.75V12.25C2.5 12.9404 3.05964 13.5 3.75 13.5H8.25171C8.94206 13.5 9.50171 12.9404 9.50171 12.25V12L9.501 9.5L9.50171 7.75C9.50171 7.05964 8.94206 6.5 8.25171 6.5H6.66217H5ZM12.2517 2.5H7.75C7.05964 2.5 6.5 3.05964 6.5 3.75V5H8.25171C9.77049 5 11.0017 6.23122 11.0017 7.75L11.001 9.5H12.2517C12.9421 9.5 13.5017 8.94036 13.5017 8.25V3.75C13.5017 3.05964 12.9421 2.5 12.2517 2.5Z"></path></svg>