<svg width="16" height="16" fill="var(--color-text-secondary)" viewBox="0 0 16 16" class="" style="--icon-color:var(--color-text-secondary)" role="img" focusable="false" aria-hidden="true"><path d="m11.927 13.232-1.354.78c-.937.54-1.406.811-1.904.917a3.22 3.22 0 0 1-1.338 0c-.498-.106-.967-.376-1.904-.917l-1.354-.78c-.937-.541-1.406-.811-1.747-1.19a3.212 3.212 0 0 1-.669-1.157C1.5 10.401 1.5 9.861 1.5 8.78V7.22c0-1.082 0-1.622.157-2.106.14-.429.368-.823.67-1.157.34-.379.809-.649 1.746-1.19l1.354-.78c.937-.54 1.406-.811 1.904-.917a3.22 3.22 0 0 1 1.338 0c.498.106.967.376 1.904.917l1.354.78c.937.541 1.406.811 1.747 1.19.301.334.53.728.669 1.157.157.484.157 1.024.157 2.106v1.56c0 1.082 0 1.622-.157 2.106-.14.429-.368.823-.67 1.157-.34.379-.809.649-1.746 1.19Zm-5.751-.52c.542.313.862.492 1.075.598V9.853a2.25 2.25 0 0 0-1.224-2.002l-3.02-1.51c-.005.217-.007.5-.007.878v1.56c0 1.183.017 1.438.084 1.642.074.229.196.439.356.617.144.16.358.303 1.383.894l1.353.78Zm2.575.597c.212-.105.532-.284 1.073-.596l1.353-.78c1.026-.592 1.239-.735 1.383-.895.16-.178.282-.389.356-.617.066-.204.084-.459.084-1.642V7.22c0-.378-.002-.661-.006-.878l-3 1.5-.007.003a2.25 2.25 0 0 0-1.236 2.009v3.456Zm3.757-8.402c-.15-.144-.42-.316-1.33-.841l-1.354-.78c-1.025-.592-1.256-.705-1.467-.75a1.72 1.72 0 0 0-.714 0c-.211.045-.442.158-1.467.75l-1.353.78c-.91.525-1.18.697-1.33.84L6.677 6.5l.026.013.29.145a2.25 2.25 0 0 0 2.013 0l.308-.154.009-.004 3.184-1.592Z"></path></svg>