<svg class="" style="--icon-color:currentColor" width="16" height="16" viewBox="0 0 16 16" fill="currentColor" role="img" focusable="false" aria-hidden="true"><path d="M1 11.25C1 13.3211 2.67893 15 4.75 15L5 15C5.41421 15 5.75 14.6642 5.75 14.25C5.75 13.8358 5.41421 13.5 5 13.5L4.75 13.5C3.50736 13.5 2.5 12.4926 2.5 11.25L2.5 4.75C2.5 3.50736 3.50736 2.5 4.75 2.5L11.25 2.5C12.4926 2.5 13.5 3.50736 13.5 4.75V5C13.5 5.41421 13.8358 5.75 14.25 5.75C14.6642 5.75 15 5.41421 15 5V4.75C15 2.67893 13.3211 1 11.25 1L4.75 1C2.67893 1 1 2.67893 1 4.75L1 11.25Z"></path><path d="M9.53033 8.46967L11.5 10.4393L13.4697 8.46967C13.7626 8.17678 14.2374 8.17678 14.5303 8.46967C14.8232 8.76256 14.8232 9.23744 14.5303 9.53033L12.5607 11.5L14.5303 13.4697C14.8232 13.7626 14.8232 14.2374 14.5303 14.5303C14.2374 14.8232 13.7626 14.8232 13.4697 14.5303L11.5 12.5607L9.53033 14.5303C9.23744 14.8232 8.76256 14.8232 8.46967 14.5303C8.17678 14.2374 8.17678 13.7626 8.46967 13.4697L10.4393 11.5L8.46967 9.53033C8.17678 9.23744 8.17678 8.76256 8.46967 8.46967C8.76256 8.17678 9.23744 8.17678 9.53033 8.46967Z"></path></svg>