<svg aria-hidden="true" xmlns="http://www.w3.org/2000/svg" width="532" height="482" fill="none" viewBox="0 0 532 482"><rect width="531" height="481" x="0.5" y="0.5" stroke="#fff" stroke-opacity="0.05" rx="13.5"></rect><rect width="516" height="474" x="8" y="8" fill="#fff" fill-opacity="0.02" rx="6"></rect><rect width="515" height="473" x="8.5" y="8.5" stroke="#fff" stroke-opacity="0.1" rx="5.5"></rect><path fill="#22262A" d="M524 45.525H8v.95h516v-.95z" mask="url(#path-5-outside-1_7992_53765)"></path><g opacity="0.4"><path fill="#62666D" fill-rule="evenodd" d="M26.412 20.35v5.463c0 .74.566 1.349 1.288 1.418l.137.007H33.3v4.512a1.9 1.9 0 01-1.9 1.9h-7.6a1.9 1.9 0 01-1.9-1.9v-9.5c0-1.05.85-1.9 1.9-1.9h2.612zm1.188 0l5.7 5.729h-4.75a.95.95 0 01-.95-.95V20.35z" clip-rule="evenodd"></path><path fill="#FEFFFE" d="M46.792 31.645c-.672 0-1.255-.105-1.749-.314-.49-.213-.874-.516-1.152-.91-.277-.394-.432-.863-.464-1.405h1.363c.028.325.135.597.32.814.184.213.422.372.711.476.293.104.615.157.965.157.382 0 .723-.06 1.025-.181.301-.12.539-.29.712-.507.172-.22.259-.478.259-.771 0-.266-.076-.483-.23-.652a1.71 1.71 0 00-.614-.416 5.91 5.91 0 00-.869-.295l-1.055-.29c-.724-.193-1.295-.48-1.713-.862-.414-.386-.62-.89-.62-1.514 0-.518.138-.97.415-1.357a2.727 2.727 0 011.134-.898 3.91 3.91 0 011.622-.326c.611 0 1.15.109 1.616.326.467.213.834.507 1.104.88.27.37.41.794.422 1.273h-1.315a1.293 1.293 0 00-.579-.965c-.333-.23-.757-.344-1.272-.344-.366 0-.685.058-.959.175-.27.113-.478.27-.627.47a1.156 1.156 0 00-.217.694c0 .213.05.396.15.549.105.148.24.275.405.38.165.1.342.184.53.253.19.068.372.126.55.175l.868.235c.285.072.578.169.88.29.301.12.58.279.838.476.261.193.47.434.627.723.161.286.242.631.242 1.038 0 .502-.131.952-.392 1.35-.262.394-.64.706-1.134.935-.495.225-1.094.338-1.797.338zm4.842 2.376v-9.263h1.273v1.098h.108c.077-.141.185-.304.326-.489a1.85 1.85 0 01.603-.482c.257-.14.595-.211 1.013-.211.543 0 1.025.136 1.447.41.426.273.762.67 1.007 1.188.245.518.368 1.144.368 1.875 0 .724-.12 1.347-.362 1.87-.241.518-.575.918-1 1.2a2.616 2.616 0 01-1.46.416c-.406 0-.738-.069-.995-.205a1.998 1.998 0 01-.61-.489 3.39 3.39 0 01-.337-.488h-.078v3.57h-1.303zm3.04-3.504c.39 0 .715-.104.976-.314.266-.209.465-.492.597-.85.133-.362.2-.768.2-1.218 0-.446-.067-.846-.2-1.2a1.87 1.87 0 00-.59-.838c-.258-.205-.586-.308-.984-.308-.382 0-.703.099-.964.296-.258.193-.455.466-.591.82-.133.35-.2.76-.2 1.23s.067.884.2 1.242c.136.358.335.638.597.839.265.2.584.301.958.301zm4.57.983v-6.742h1.303V31.5h-1.303zm.658-7.78a.832.832 0 01-.585-.228.73.73 0 01-.242-.549c0-.217.08-.402.242-.555a.832.832 0 01.585-.229.81.81 0 01.579.23.729.729 0 01.247.554.723.723 0 01-.247.549.81.81 0 01-.58.229zm5.246 7.919c-.647 0-1.206-.15-1.676-.447a2.936 2.936 0 01-1.086-1.23c-.25-.522-.374-1.121-.374-1.797 0-.687.129-1.292.386-1.815.258-.527.62-.937 1.086-1.23.47-.297 1.02-.446 1.652-.446.514 0 .97.094 1.369.283a2.408 2.408 0 011.417 1.984h-1.278a1.576 1.576 0 00-.266-.585 1.333 1.333 0 00-.494-.422 1.587 1.587 0 00-.73-.157c-.362 0-.68.097-.953.29-.273.189-.486.46-.639.814-.153.354-.23.772-.23 1.254 0 .486.075.91.224 1.272.149.362.36.642.633.839.278.193.6.29.965.29.253 0 .48-.047.681-.14.206-.092.378-.225.52-.398.14-.176.236-.388.288-.633h1.279a2.493 2.493 0 01-.428 1.17 2.466 2.466 0 01-.953.808c-.398.197-.862.296-1.393.296zm7.116 0c-.66 0-1.23-.143-1.713-.428a2.826 2.826 0 01-1.11-1.206c-.257-.523-.385-1.132-.385-1.828 0-.691.126-1.3.38-1.827a2.956 2.956 0 011.079-1.23c.462-.297 1.007-.446 1.634-.446.382 0 .752.062 1.11.187.358.124.68.321.965.59.285.27.51.62.675 1.05.169.43.253.949.253 1.556v.47h-5.36v-.983h4.685l-.61.326c0-.414-.064-.78-.192-1.098a1.619 1.619 0 00-.573-.741c-.253-.181-.569-.272-.947-.272s-.701.09-.97.271c-.27.181-.475.42-.616.718-.14.298-.21.623-.21.977v.67c0 .462.08.854.24 1.175.161.322.384.567.67.736.29.169.625.253 1.007.253.249 0 .474-.036.675-.108a1.388 1.388 0 00.868-.862l1.243.235c-.1.361-.278.679-.53.952a2.577 2.577 0 01-.96.64 3.587 3.587 0 01-1.308.223zm8.906-4.137V31.5h-1.302v-8.985h1.284v3.353h.09a1.94 1.94 0 01.718-.869c.326-.217.75-.325 1.273-.325.462 0 .866.094 1.212.283.35.19.621.473.814.85.193.378.29.849.29 1.412V31.5h-1.315v-4.125c0-.498-.129-.884-.386-1.157-.253-.274-.607-.41-1.061-.41-.31 0-.587.068-.833.204a1.454 1.454 0 00-.572.573c-.141.25-.212.555-.212.917zm8.111 4.143c-.43 0-.818-.079-1.164-.235a1.936 1.936 0 01-.82-.7c-.2-.306-.301-.677-.301-1.116 0-.382.072-.693.217-.934.149-.245.348-.44.597-.585.249-.145.526-.253.832-.326.31-.072.623-.128.94-.169.407-.044.734-.082.984-.114.249-.032.43-.083.542-.151.117-.072.175-.187.175-.344v-.03c0-.257-.048-.474-.145-.651a.903.903 0 00-.428-.41 1.598 1.598 0 00-.705-.139 1.93 1.93 0 00-.754.133 1.536 1.536 0 00-.814.802l-1.23-.284c.145-.41.358-.74.639-.989.285-.253.611-.438.977-.554.37-.117.756-.175 1.158-.175.269 0 .555.032.856.096.301.06.587.175.856.344.27.165.487.402.651.712.17.31.254.71.254 1.2V31.5h-1.279v-.923h-.048c-.084.165-.21.33-.38.495a2.006 2.006 0 01-.651.41 2.54 2.54 0 01-.959.163zm.277-1.05c.366 0 .678-.07.935-.21.258-.145.455-.334.591-.567.137-.234.205-.48.205-.742V28.2a.74.74 0 01-.271.127c-.129.04-.28.074-.452.103-.17.028-.334.054-.495.078l-.404.048a3.435 3.435 0 00-.693.17c-.21.071-.378.18-.507.325-.125.14-.187.327-.187.56 0 .326.12.571.362.736.241.165.547.248.916.248zm4.819.905v-6.742h1.26v1.08h.072c.125-.362.342-.648.652-.857.313-.213.667-.32 1.061-.32.08 0 .177.005.29.013.112.004.2.01.265.018v1.254a3.352 3.352 0 00-.687-.072c-.31 0-.588.066-.833.199a1.472 1.472 0 00-.573.536 1.48 1.48 0 00-.205.784V31.5h-1.302zm10.716-6.742L102.65 31.5h-1.411l-2.442-6.742h1.411l1.707 5.198h.072l1.707-5.198h1.399zm3.907 6.88c-.659 0-1.23-.142-1.712-.428a2.823 2.823 0 01-1.11-1.206c-.257-.522-.386-1.131-.386-1.827 0-.691.127-1.3.38-1.827a2.955 2.955 0 011.079-1.23c.463-.297 1.007-.446 1.635-.446.381 0 .751.062 1.109.187.358.124.68.321.965.59.285.27.511.62.675 1.05.169.43.254.949.254 1.556v.47h-5.361v-.983h4.685l-.609.326a2.9 2.9 0 00-.193-1.098 1.61 1.61 0 00-.573-.741c-.253-.181-.568-.272-.946-.272s-.702.09-.971.271c-.27.181-.475.42-.615.718a2.252 2.252 0 00-.211.977v.67c0 .462.08.854.241 1.175.161.322.384.567.669.736.29.169.625.253 1.007.253.249 0 .475-.036.676-.108a1.383 1.383 0 00.868-.862l1.242.235c-.1.361-.277.679-.53.952a2.583 2.583 0 01-.959.64 3.588 3.588 0 01-1.309.223zm9.377-5.228l-1.188.206a1.457 1.457 0 00-.241-.429 1.144 1.144 0 00-.428-.343c-.177-.089-.404-.133-.682-.133-.369 0-.679.084-.928.253-.245.165-.368.376-.368.633a.69.69 0 00.247.55c.169.14.438.252.808.337l1.074.241c.615.14 1.075.362 1.381.663.305.302.458.688.458 1.158 0 .406-.117.768-.35 1.086-.233.313-.557.56-.971.741-.414.177-.892.266-1.435.266-.502 0-.945-.073-1.327-.217a2.292 2.292 0 01-.928-.634 2.149 2.149 0 01-.465-1.013l1.261-.193c.08.33.243.58.488.748.249.169.571.253.965.253.43 0 .774-.09 1.031-.271.257-.18.386-.4.386-.657a.689.689 0 00-.235-.537c-.157-.14-.396-.25-.718-.326l-1.133-.253c-.636-.145-1.104-.372-1.405-.681-.298-.314-.447-.708-.447-1.182 0-.398.111-.748.332-1.05a2.18 2.18 0 01.923-.699 3.384 3.384 0 011.344-.253c.487 0 .903.072 1.249.217.349.145.631.348.844.609.217.257.37.56.458.91zm4.716-1.652v1.056h-3.673v-1.056h3.673zm-2.696-1.604h1.309v6.368c0 .205.028.374.084.507a.619.619 0 00.266.295c.12.06.275.09.464.09a2.263 2.263 0 00.458-.048l.248 1.086a3.077 3.077 0 01-.905.139c-.39 0-.73-.075-1.019-.224a1.642 1.642 0 01-.669-.627 1.859 1.859 0 01-.236-.953v-6.633zm6.983 8.485c-.659 0-1.23-.143-1.712-.428a2.829 2.829 0 01-1.11-1.206c-.257-.523-.386-1.132-.386-1.828 0-.691.127-1.3.38-1.827a2.958 2.958 0 011.08-1.23c.462-.297 1.007-.446 1.634-.446.382 0 .752.062 1.109.187.358.124.68.321.965.59.286.27.511.62.676 1.05.169.43.253.949.253 1.556v.47h-5.361v-.983h4.686l-.61.326c0-.414-.064-.78-.192-1.098a1.624 1.624 0 00-.573-.741c-.254-.181-.569-.272-.947-.272s-.702.09-.971.271c-.269.181-.474.42-.615.718a2.252 2.252 0 00-.211.977v.67c0 .462.08.854.241 1.175.161.322.384.567.669.736.29.169.626.253 1.007.253.25 0 .475-.036.676-.108.205-.073.382-.181.531-.326a1.39 1.39 0 00.337-.537l1.242.236c-.1.361-.277.679-.53.952a2.575 2.575 0 01-.959.64 3.588 3.588 0 01-1.309.223zm4.336-.139v-6.742h1.261v1.08h.072a1.66 1.66 0 01.651-.857c.314-.213.668-.32 1.061-.32.081 0 .177.005.29.013.113.004.201.01.265.018v1.254a3.35 3.35 0 00-.687-.072c-.31 0-.587.066-.832.199a1.463 1.463 0 00-.573.536 1.478 1.478 0 00-.205.784V31.5h-1.303z"></path><path fill="#949698" d="M144.629 29.429a.525.525 0 00.742.742l2.8-2.8a.524.524 0 00.005-.737l-2.732-2.8a.525.525 0 10-.752.733l2.37 2.429-2.433 2.433z"></path><path fill="#FEFFFE" d="M157.983 31.5v-8.985h3.208c.696 0 1.272.128 1.731.386a2.48 2.48 0 011.031 1.043c.229.438.344.933.344 1.483a3.19 3.19 0 01-.344 1.49 2.517 2.517 0 01-1.037 1.043c-.459.253-1.035.38-1.731.38h-2.201v-1.146h2.068c.447 0 .806-.076 1.08-.229.277-.152.48-.362.609-.627.128-.27.193-.573.193-.91 0-.342-.065-.644-.193-.905a1.38 1.38 0 00-.609-.621c-.278-.149-.639-.223-1.086-.223h-1.706V31.5h-1.357zm7.803 0v-6.742h1.26v1.08h.073c.124-.362.342-.648.651-.857.314-.213.667-.32 1.061-.32.081 0 .177.005.29.013.112.004.201.01.265.018v1.254a3.363 3.363 0 00-.687-.072c-.31 0-.587.066-.832.199a1.463 1.463 0 00-.573.536 1.478 1.478 0 00-.205.784V31.5h-1.303zm7.339.139c-.631 0-1.182-.145-1.652-.434a2.93 2.93 0 01-1.098-1.219c-.257-.522-.386-1.13-.386-1.82 0-.7.129-1.311.386-1.834a2.923 2.923 0 011.098-1.224c.47-.29 1.021-.434 1.652-.434.635 0 1.188.145 1.658.434.471.29.836.697 1.098 1.224.261.523.392 1.134.392 1.833 0 .692-.131 1.299-.392 1.821a2.937 2.937 0 01-1.098 1.218c-.47.29-1.023.435-1.658.435zm0-1.104c.418 0 .76-.108 1.025-.326.269-.217.468-.504.597-.862a3.4 3.4 0 00.199-1.182c0-.434-.066-.832-.199-1.194a1.91 1.91 0 00-.597-.868c-.265-.217-.607-.326-1.025-.326-.41 0-.75.109-1.019.326a1.974 1.974 0 00-.597.868c-.133.362-.199.76-.199 1.194 0 .426.066.82.199 1.182.133.358.332.645.597.862.269.218.609.326 1.019.326zm4.613-5.777h1.303v7.182c.004.45-.077.83-.242 1.14-.16.31-.4.543-.717.7-.318.16-.71.24-1.176.24h-.265v-1.127h.211c.313 0 .538-.082.675-.247.137-.165.207-.402.211-.712v-7.176zm.645-1.037a.832.832 0 01-.585-.23.733.733 0 01-.241-.548.74.74 0 01.241-.555.832.832 0 01.585-.229c.225 0 .418.076.579.23a.728.728 0 01.247.554.722.722 0 01-.247.549.811.811 0 01-.579.229zm5.331 7.918c-.659 0-1.23-.143-1.712-.428a2.823 2.823 0 01-1.11-1.206c-.257-.523-.386-1.132-.386-1.828 0-.691.127-1.3.38-1.827a2.955 2.955 0 011.079-1.23c.463-.297 1.007-.446 1.635-.446.381 0 .751.062 1.109.187.358.124.68.321.965.59.285.27.511.62.675 1.05.169.43.254.949.254 1.556v.47h-5.361v-.983h4.685l-.609.326a2.9 2.9 0 00-.193-1.098 1.61 1.61 0 00-.573-.741c-.253-.181-.569-.272-.946-.272-.378 0-.702.09-.971.271-.27.181-.475.42-.615.718a2.252 2.252 0 00-.211.977v.67c0 .462.08.854.241 1.175.161.322.384.567.669.736.29.169.625.253 1.007.253.249 0 .475-.036.676-.108a1.383 1.383 0 00.868-.862l1.242.235c-.1.361-.277.679-.531.952a2.57 2.57 0 01-.958.64 3.588 3.588 0 01-1.309.223zm7.164 0c-.647 0-1.206-.15-1.676-.447a2.931 2.931 0 01-1.086-1.23c-.249-.522-.374-1.121-.374-1.797 0-.687.129-1.292.386-1.815a2.943 2.943 0 011.086-1.23c.47-.297 1.021-.446 1.652-.446.515 0 .971.094 1.369.283a2.407 2.407 0 011.417 1.984h-1.278a1.584 1.584 0 00-.266-.585 1.327 1.327 0 00-.494-.422 1.587 1.587 0 00-.73-.157c-.362 0-.679.097-.953.29-.273.189-.486.46-.639.814-.153.354-.229.772-.229 1.254 0 .486.074.91.223 1.272.149.362.36.642.633.839.278.193.599.29.965.29.253 0 .481-.047.682-.14.205-.092.377-.225.518-.398a1.51 1.51 0 00.29-.633h1.278a2.495 2.495 0 01-.428 1.17 2.466 2.466 0 01-.953.808c-.398.197-.862.296-1.393.296zm7.351-6.88v1.055h-3.672v-1.056h3.672zm-2.696-1.605h1.309v6.368c0 .205.028.374.084.507a.619.619 0 00.266.295c.12.06.275.09.464.09a2.263 2.263 0 00.458-.048l.248 1.086a3.077 3.077 0 01-.905.139c-.39 0-.73-.075-1.019-.224a1.648 1.648 0 01-.669-.627 1.859 1.859 0 01-.236-.953v-6.633zm12.465 3.256l-1.188.206a1.48 1.48 0 00-.241-.429 1.152 1.152 0 00-.428-.343c-.177-.089-.404-.133-.682-.133-.37 0-.679.084-.928.253-.246.165-.368.376-.368.633a.69.69 0 00.247.55c.169.14.438.252.808.337l1.073.241c.616.14 1.076.362 1.381.663.306.302.459.688.459 1.158 0 .406-.117.768-.35 1.086-.233.313-.557.56-.971.741-.414.177-.892.266-1.435.266-.503 0-.945-.073-1.327-.217a2.285 2.285 0 01-.928-.634 2.14 2.14 0 01-.465-1.013l1.261-.193c.08.33.243.58.488.748.249.169.571.253.965.253.43 0 .774-.09 1.031-.271.257-.18.386-.4.386-.657a.689.689 0 00-.235-.537c-.157-.14-.396-.25-.718-.326l-1.134-.253c-.635-.145-1.103-.372-1.405-.681-.297-.314-.446-.708-.446-1.182 0-.398.111-.748.332-1.05.225-.301.533-.534.922-.699a3.389 3.389 0 011.345-.253c.487 0 .903.072 1.248.217.35.145.632.348.845.609.217.257.37.56.458.91zm1.58 7.61v-9.262h1.272v1.098h.109c.076-.141.185-.304.326-.489a1.84 1.84 0 01.603-.482c.257-.14.595-.211 1.013-.211.542 0 1.025.136 1.447.41.426.273.762.67 1.007 1.188.245.518.368 1.144.368 1.875 0 .724-.121 1.347-.362 1.87-.241.518-.575.918-1.001 1.2a2.616 2.616 0 01-1.459.416c-.406 0-.738-.069-.995-.205a1.98 1.98 0 01-.609-.489 3.346 3.346 0 01-.338-.488h-.079v3.57h-1.302zm3.039-3.503c.39 0 .716-.104.977-.314.265-.209.464-.492.597-.85.133-.362.199-.768.199-1.218 0-.446-.066-.846-.199-1.2a1.875 1.875 0 00-.591-.838c-.257-.205-.585-.308-.983-.308-.382 0-.703.099-.965.296-.257.193-.454.466-.591.82-.132.35-.199.76-.199 1.23s.067.884.199 1.242c.137.358.336.638.597.839.266.2.585.301.959.301zm7.472 1.122c-.66 0-1.23-.143-1.713-.428a2.827 2.827 0 01-1.109-1.206c-.258-.523-.386-1.132-.386-1.828 0-.691.126-1.3.38-1.827a2.955 2.955 0 011.079-1.23c.462-.297 1.007-.446 1.634-.446.382 0 .752.062 1.11.187.358.124.679.321.965.59.285.27.51.62.675 1.05.169.43.253.949.253 1.556v.47h-5.361v-.983h4.686l-.609.326c0-.414-.065-.78-.193-1.098a1.624 1.624 0 00-.573-.741c-.253-.181-.569-.272-.947-.272s-.701.09-.971.271c-.269.181-.474.42-.615.718-.14.298-.211.623-.211.977v.67c0 .462.081.854.241 1.175.161.322.384.567.67.736a1.96 1.96 0 001.007.253c.249 0 .474-.036.675-.108.205-.073.382-.181.531-.326.149-.145.261-.323.338-.537l1.242.236a2.288 2.288 0 01-.531.952 2.575 2.575 0 01-.959.64 3.586 3.586 0 01-1.308.223zm7.164 0c-.648 0-1.206-.15-1.677-.447a2.936 2.936 0 01-1.085-1.23c-.249-.522-.374-1.121-.374-1.797 0-.687.129-1.292.386-1.815a2.941 2.941 0 011.085-1.23c.471-.297 1.021-.446 1.653-.446.514 0 .971.094 1.369.283a2.421 2.421 0 011.417 1.984h-1.279a1.566 1.566 0 00-.265-.585 1.338 1.338 0 00-.495-.422 1.585 1.585 0 00-.729-.157c-.362 0-.68.097-.953.29-.273.189-.486.46-.639.814-.153.354-.229.772-.229 1.254 0 .486.074.91.223 1.272.148.362.36.642.633.839.277.193.599.29.965.29.253 0 .48-.047.681-.14a1.4 1.4 0 00.519-.398c.14-.176.237-.388.289-.633h1.279a2.496 2.496 0 01-.429 1.17 2.462 2.462 0 01-.952.808c-.398.197-.863.296-1.393.296zm9.256-5.229l-1.188.206a1.457 1.457 0 00-.241-.429 1.152 1.152 0 00-.428-.343c-.177-.089-.404-.133-.682-.133-.369 0-.679.084-.928.253-.245.165-.368.376-.368.633a.69.69 0 00.247.55c.169.14.438.252.808.337l1.074.241c.615.14 1.075.362 1.381.663.305.302.458.688.458 1.158 0 .406-.117.768-.35 1.086-.233.313-.557.56-.971.741-.414.177-.892.266-1.435.266-.503 0-.945-.073-1.327-.217a2.285 2.285 0 01-.928-.634 2.14 2.14 0 01-.465-1.013l1.261-.193c.08.33.243.58.488.748.249.169.571.253.965.253.43 0 .774-.09 1.031-.271.257-.18.386-.4.386-.657a.689.689 0 00-.235-.537c-.157-.14-.396-.25-.718-.326l-1.133-.253c-.636-.145-1.104-.372-1.405-.681-.298-.314-.447-.708-.447-1.182 0-.398.111-.748.332-1.05a2.18 2.18 0 01.923-.699 3.384 3.384 0 011.344-.253c.487 0 .903.072 1.249.217.349.145.631.348.844.609.217.257.37.56.458.91z"></path><path fill="#57595A" d="M252.25 25.575a1.425 1.425 0 110 2.85 1.425 1.425 0 010-2.85zm4.75 0a1.425 1.425 0 110 2.85 1.425 1.425 0 010-2.85zm4.75 0a1.425 1.425 0 110 2.85 1.425 1.425 0 010-2.85z"></path></g><path stroke="#fff" d="M19 232.5h7m-7 8h7m-7 8h7m-7 8h7" opacity="0.2"></path></svg>