<svg xmlns="http://www.w3.org/2000/svg" width="228" height="142" fill="none" viewBox="0 0 228 142"><path fill="#57595A" d="M4.959 16V7.273h5.412v1.133H6.276v2.66h3.707v1.129H6.276V16H4.959Zm8.81.145c-.415 0-.79-.077-1.125-.23a1.895 1.895 0 0 1-.797-.678c-.193-.295-.29-.658-.29-1.086 0-.37.072-.674.214-.912.142-.239.333-.428.575-.567.241-.14.511-.244.81-.316.298-.07.602-.124.912-.161l.954-.111c.244-.031.422-.081.533-.15.11-.067.166-.178.166-.332v-.03c0-.372-.105-.66-.316-.865-.207-.204-.516-.306-.928-.306-.43 0-.768.095-1.015.285-.244.188-.413.396-.507.627l-1.197-.273c.142-.398.35-.719.622-.963.275-.247.592-.426.95-.537a3.71 3.71 0 0 1 1.13-.17c.26 0 .538.03.83.093.296.06.572.17.827.332.259.162.47.394.635.695.165.298.247.686.247 1.163V16h-1.244v-.895h-.051a1.812 1.812 0 0 1-.37.486 1.97 1.97 0 0 1-.636.396 2.464 2.464 0 0 1-.929.158Zm.277-1.023c.352 0 .654-.07.904-.209.252-.139.444-.32.575-.545.133-.227.2-.47.2-.729v-.843a.665.665 0 0 1-.264.127 4.11 4.11 0 0 1-.439.098l-.482.073-.392.05a3.153 3.153 0 0 0-.677.159c-.202.073-.364.18-.486.32-.12.136-.179.317-.179.545 0 .315.117.554.35.716.232.159.53.238.89.238Zm10.015-5.667L21.688 16h-1.364l-2.378-6.545h1.368l1.658 5.037h.068l1.654-5.037h1.367Zm3.732 6.677c-.613 0-1.149-.14-1.606-.422a2.845 2.845 0 0 1-1.066-1.18c-.252-.506-.379-1.097-.379-1.773 0-.679.127-1.273.38-1.781a2.839 2.839 0 0 1 1.065-1.185c.457-.281.993-.422 1.606-.422.614 0 1.15.14 1.607.422.457.281.812.676 1.065 1.185.253.508.38 1.102.38 1.781 0 .676-.127 1.267-.38 1.773s-.608.899-1.065 1.18c-.457.281-.993.422-1.607.422Zm.005-1.07c.397 0 .727-.105.988-.315.262-.21.455-.49.58-.84a3.34 3.34 0 0 0 .192-1.154c0-.418-.064-.801-.192-1.15a1.874 1.874 0 0 0-.58-.849c-.261-.213-.59-.32-.988-.32-.401 0-.733.107-.998.32a1.905 1.905 0 0 0-.583.848c-.125.35-.188.733-.188 1.15 0 .421.063.806.188 1.156.128.35.322.629.583.84.265.21.597.315.998.315Zm4.469.938V9.455h1.231v1.04h.068c.12-.353.33-.63.631-.832a1.805 1.805 0 0 1 1.031-.306 5.44 5.44 0 0 1 .541.03v1.218a2.292 2.292 0 0 0-.272-.047c-.13-.02-.262-.03-.392-.03-.301 0-.57.064-.806.192a1.424 1.424 0 0 0-.758 1.283V16h-1.274Zm4.605 0V9.455h1.274V16h-1.274Zm.644-7.555a.81.81 0 0 1-.571-.222.72.72 0 0 1-.235-.537c0-.21.078-.39.235-.537.159-.15.349-.226.57-.226.222 0 .411.076.567.226.16.148.239.327.239.537 0 .207-.08.386-.239.537a.795.795 0 0 1-.566.222Zm5.4 1.01v1.022H39.34V9.455h3.575Zm-2.617-1.569h1.275v6.192c0 .247.036.433.11.558a.579.579 0 0 0 .286.252c.12.042.248.064.388.064.102 0 .191-.007.268-.022l.179-.034.23 1.053a2.496 2.496 0 0 1-.827.136 2.243 2.243 0 0 1-.937-.179 1.608 1.608 0 0 1-.703-.58c-.18-.26-.269-.589-.269-.984V7.886Zm6.777 8.246c-.645 0-1.2-.138-1.666-.413a2.805 2.805 0 0 1-1.074-1.172c-.25-.506-.375-1.098-.375-1.777 0-.67.125-1.261.375-1.773.253-.511.605-.91 1.057-1.197.454-.287.986-.43 1.593-.43.37 0 .728.06 1.074.183.347.122.658.313.934.575.275.261.492.6.652 1.018.159.415.238.92.238 1.513v.452h-5.203v-.955h3.955a1.88 1.88 0 0 0-.205-.89 1.547 1.547 0 0 0-.575-.618 1.608 1.608 0 0 0-.861-.226c-.358 0-.67.088-.938.264-.264.173-.468.4-.613.682a1.968 1.968 0 0 0-.213.908v.745c0 .438.076.81.23 1.117.156.307.373.541.652.703.278.159.604.239.976.239.241 0 .461-.034.66-.103a1.37 1.37 0 0 0 .848-.831l1.206.218c-.096.355-.27.666-.52.933-.247.264-.558.47-.933.618a3.492 3.492 0 0 1-1.274.217Zm9.127-5.08-1.155.205a1.368 1.368 0 0 0-.23-.422 1.138 1.138 0 0 0-.418-.328 1.513 1.513 0 0 0-.66-.128c-.361 0-.662.081-.904.243-.241.16-.362.365-.362.618 0 .219.081.395.243.528.162.134.423.243.784.329l1.04.238c.602.14 1.051.354 1.346.644.296.29.444.666.444 1.129 0 .392-.114.741-.341 1.048-.225.304-.539.543-.942.716-.4.174-.865.26-1.394.26-.733 0-1.33-.156-1.794-.469-.463-.315-.747-.762-.852-1.342l1.232-.188c.076.322.234.564.473.73.238.161.55.242.933.242.418 0 .751-.087 1.001-.26.25-.176.375-.39.375-.643a.669.669 0 0 0-.23-.516c-.15-.14-.382-.244-.694-.315l-1.108-.243c-.611-.14-1.063-.361-1.355-.665-.29-.304-.435-.689-.435-1.155 0-.386.108-.724.324-1.014a2.12 2.12 0 0 1 .895-.678c.38-.164.816-.247 1.308-.247.707 0 1.264.154 1.67.46.407.304.675.712.806 1.224Z"></path><path fill="#595B5D" d="M61.939 10.752A.5.5 0 0 1 62.37 10h5.26a.5.5 0 0 1 .431.752l-2.63 4.508a.5.5 0 0 1-.863 0l-2.63-4.508Z"></path><path fill="#5E6AD2" fill-rule="evenodd" d="M16 32.5h.5a1 1 0 0 1 1 1v9a1 1 0 0 1-1 1h-5a1 1 0 0 1-1-1v-9a1 1 0 0 1 1-1h.5v.5a1 1 0 0 0 1 1h2a1 1 0 0 0 1-1v-.5Zm-7 1a2.5 2.5 0 0 1 2.5-2.5h5a2.5 2.5 0 0 1 2.5 2.5v9a2.5 2.5 0 0 1-2.5 2.5h-5A2.5 2.5 0 0 1 9 42.5v-9Z" clip-rule="evenodd"></path><path fill="#E2E4E6" d="M31.039 33.545h1.73l3.01 7.35h.112l3.01-7.35h1.73V43h-1.356v-6.842h-.088l-2.789 6.828h-1.126l-2.788-6.832h-.088V43h-1.357v-9.455Zm14.543 9.598c-.665 0-1.245-.152-1.74-.457a3.082 3.082 0 0 1-1.155-1.279c-.274-.547-.41-1.188-.41-1.92 0-.736.136-1.379.41-1.93.274-.55.659-.979 1.154-1.283.496-.305 1.076-.457 1.74-.457.665 0 1.246.152 1.741.457.496.304.88.732 1.154 1.283.274.551.411 1.194.411 1.93 0 .732-.137 1.372-.41 1.92a3.082 3.082 0 0 1-1.155 1.28c-.495.304-1.076.456-1.74.456Zm.004-1.159c.431 0 .788-.114 1.071-.341.284-.228.493-.531.628-.91.139-.378.208-.795.208-1.25 0-.453-.07-.869-.208-1.247a2.03 2.03 0 0 0-.628-.919c-.283-.23-.64-.346-1.07-.346-.435 0-.795.115-1.08.346-.284.23-.495.537-.633.919a3.677 3.677 0 0 0-.204 1.246c0 .456.068.873.204 1.251.138.379.349.682.632.91.286.227.646.341 1.08.341ZM50.54 43v-9.455h1.38v3.514h.083a3.86 3.86 0 0 1 .346-.513c.151-.194.36-.363.628-.508.268-.147.622-.221 1.062-.221a2.77 2.77 0 0 1 1.533.434c.449.289.801.706 1.057 1.25.258.546.388 1.201.388 1.967 0 .767-.128 1.424-.383 1.972-.256.544-.607.965-1.053 1.26a2.725 2.725 0 0 1-1.528.438c-.431 0-.783-.072-1.057-.216a2 2 0 0 1-.637-.508 3.844 3.844 0 0 1-.356-.517h-.115V43h-1.348Zm1.352-3.545c0 .498.073.935.217 1.31.145.376.354.67.628.882.274.21.61.314 1.007.314.412 0 .757-.109 1.034-.328.277-.221.486-.521.627-.9.145-.378.217-.804.217-1.278 0-.468-.07-.888-.212-1.26a1.93 1.93 0 0 0-.628-.883c-.277-.215-.623-.323-1.038-.323-.4 0-.74.103-1.016.31a1.899 1.899 0 0 0-.623.863c-.142.37-.213.8-.213 1.293ZM58.566 43v-7.09h1.38V43h-1.38Zm.697-8.185a.877.877 0 0 1-.619-.24.78.78 0 0 1-.254-.582.77.77 0 0 1 .254-.581.868.868 0 0 1 .619-.245c.24 0 .444.081.614.245.172.16.258.354.258.581a.774.774 0 0 1-.258.582.861.861 0 0 1-.614.24Zm3.92-1.27V43h-1.38v-9.455h1.38Zm4.913 9.598c-.698 0-1.3-.15-1.805-.448a3.037 3.037 0 0 1-1.163-1.27c-.27-.547-.406-1.189-.406-1.924 0-.727.135-1.367.406-1.92a3.155 3.155 0 0 1 1.145-1.298c.492-.31 1.068-.466 1.726-.466.4 0 .788.066 1.164.198.375.133.712.34 1.01.623.3.284.535.651.707 1.104.172.45.259.995.259 1.639v.489h-5.637v-1.034h4.284c0-.363-.074-.685-.222-.965a1.675 1.675 0 0 0-.623-.67 1.741 1.741 0 0 0-.932-.244c-.388 0-.727.095-1.016.286a1.921 1.921 0 0 0-.665.739c-.154.301-.23.63-.23.983v.808c0 .474.082.877.249 1.21.169.332.404.586.706.761.302.173.654.259 1.057.259.262 0 .5-.037.716-.111a1.484 1.484 0 0 0 .919-.9l1.306.235a2.367 2.367 0 0 1-.563 1.011c-.268.287-.605.51-1.011.67a3.785 3.785 0 0 1-1.38.235ZM77.02 43h-1.514l3.402-9.455h1.648L83.96 43h-1.515l-2.673-7.737h-.073L77.02 43Zm.254-3.702h4.912v1.2h-4.912v-1.2Zm7.94 6.361v-9.75h1.347v1.15h.115c.08-.148.196-.319.347-.513.15-.194.36-.363.628-.508.267-.147.621-.221 1.061-.221a2.77 2.77 0 0 1 1.533.434c.45.289.802.706 1.057 1.25.259.546.388 1.201.388 1.967 0 .767-.128 1.424-.383 1.972-.256.544-.606.965-1.053 1.26a2.725 2.725 0 0 1-1.528.438c-.43 0-.783-.072-1.057-.216a2 2 0 0 1-.637-.508 3.844 3.844 0 0 1-.355-.517h-.084v3.762h-1.38Zm1.352-6.204c0 .498.072.935.217 1.31.144.376.354.67.627.882.274.21.61.314 1.007.314.412 0 .757-.109 1.034-.328.277-.221.486-.521.628-.9a3.56 3.56 0 0 0 .217-1.278c0-.468-.071-.888-.213-1.26a1.93 1.93 0 0 0-.627-.883c-.277-.215-.624-.323-1.04-.323-.4 0-.738.103-1.015.31a1.898 1.898 0 0 0-.623.863c-.142.37-.212.8-.212 1.293Zm6.67 6.204v-9.75h1.349v1.15h.115a3.86 3.86 0 0 1 .346-.513c.151-.194.36-.363.628-.508.268-.147.622-.221 1.062-.221a2.77 2.77 0 0 1 1.532.434c.45.289.802.706 1.058 1.25.258.546.387 1.201.387 1.967 0 .767-.127 1.424-.383 1.972-.255.544-.606.965-1.052 1.26a2.725 2.725 0 0 1-1.528.438c-.431 0-.784-.072-1.058-.216a2 2 0 0 1-.637-.508 3.844 3.844 0 0 1-.355-.517h-.083v3.762h-1.38Zm1.353-6.204c0 .498.073.935.217 1.31.145.376.354.67.628.882.274.21.61.314 1.006.314.413 0 .757-.109 1.034-.328.277-.221.487-.521.628-.9.145-.378.217-.804.217-1.278 0-.468-.07-.888-.212-1.26a1.93 1.93 0 0 0-.628-.883c-.277-.215-.623-.323-1.039-.323-.4 0-.738.103-1.015.31a1.899 1.899 0 0 0-.623.863c-.142.37-.213.8-.213 1.293Z"></path><path fill="#949698" fill-rule="evenodd" d="M11.097 61.161a1.75 1.75 0 0 1 1.815.025l2.956 1.848a.25.25 0 0 0 .265 0l2.956-1.843A1.25 1.25 0 0 1 21 62.25v9.932c0 .484-.28.925-.718 1.131l-3.47 1.633a1.75 1.75 0 0 1-1.672-.1l-3.008-1.88a.25.25 0 0 0-.265 0L8.911 74.81A1.25 1.25 0 0 1 7 73.75v-9.463c0-.444.234-.853.616-1.078l3.481-2.048ZM8.5 64.43l2.75-1.618v8.786c-.06.028-.12.06-.177.096L8.5 73.3v-8.87Zm4.427 7.265a1.732 1.732 0 0 0-.177-.096v-8.745l2.323 1.452c.058.036.117.068.177.097v8.744l-2.323-1.452Zm3.823 1.624 2.75-1.294v-9.323l-2.573 1.605a1.744 1.744 0 0 1-.177.096v8.916Z" clip-rule="evenodd"></path><path fill="#E2E4E6" d="M34.201 73.13c-.634 0-1.2-.11-1.699-.328a2.883 2.883 0 0 1-1.177-.91 2.414 2.414 0 0 1-.462-1.357h1.45c.018.28.112.523.281.73.173.202.398.36.675.47.276.11.584.166.923.166.372 0 .702-.064.988-.194.289-.129.515-.309.678-.54.163-.234.245-.503.245-.808 0-.317-.082-.595-.245-.835a1.594 1.594 0 0 0-.706-.573c-.308-.138-.68-.207-1.117-.207h-.799V67.58h.799c.35 0 .658-.063.923-.189.268-.126.477-.302.628-.526.15-.228.226-.494.226-.799 0-.292-.066-.546-.198-.762a1.333 1.333 0 0 0-.554-.512 1.8 1.8 0 0 0-.84-.185c-.308 0-.596.057-.864.171-.264.11-.48.27-.646.48a1.234 1.234 0 0 0-.268.743h-1.38c.015-.51.166-.96.452-1.348.29-.387.671-.69 1.145-.909.474-.219 1-.328 1.579-.328.606 0 1.13.119 1.57.356.443.234.784.546 1.024.937.243.39.364.819.36 1.283.004.53-.144.979-.443 1.348a2.15 2.15 0 0 1-1.181.743v.074c.627.096 1.114.345 1.458.748.348.403.52.903.517 1.5.003.52-.141.987-.434 1.4-.289.412-.684.736-1.186.973-.502.234-1.076.351-1.722.351Zm8.693-3.195h1.403l.988 1.288.466.572 1.575 2.054h-1.46l-1.052-1.37-.36-.5-1.56-2.044Zm4.736-1.662c0 1.01-.184 1.877-.554 2.603-.369.724-.875 1.28-1.519 1.672-.64.387-1.367.581-2.183.581-.819 0-1.55-.194-2.193-.581-.64-.391-1.145-.95-1.514-1.676-.37-.727-.554-1.593-.554-2.6 0-1.009.185-1.875.554-2.598.37-.727.874-1.284 1.514-1.672.643-.39 1.374-.586 2.193-.586.816 0 1.543.196 2.183.587.644.387 1.15.944 1.52 1.67.369.724.553 1.59.553 2.6Zm-1.412 0c0-.77-.125-1.417-.374-1.944-.247-.53-.585-.93-1.016-1.2a2.639 2.639 0 0 0-1.454-.411c-.545 0-1.031.137-1.459.41-.428.272-.766.672-1.015 1.201-.247.527-.37 1.174-.37 1.944s.123 1.419.37 1.948c.249.526.587.926 1.015 1.2.428.271.914.406 1.459.406.542 0 1.026-.135 1.454-.406.431-.274.77-.674 1.016-1.2.249-.53.374-1.179.374-1.948ZM49.28 73v-1.034l3.199-3.315c.341-.36.623-.675.845-.946.224-.274.392-.534.503-.78a1.89 1.89 0 0 0 .166-.785 1.46 1.46 0 0 0-.222-.813 1.448 1.448 0 0 0-.604-.53 1.923 1.923 0 0 0-.864-.19c-.338 0-.634.07-.886.208a1.423 1.423 0 0 0-.582.586 1.847 1.847 0 0 0-.203.887H49.27c0-.576.133-1.08.397-1.51.265-.43.628-.765 1.09-1.002.462-.24.986-.36 1.574-.36.594 0 1.117.119 1.57.356.455.234.81.554 1.066.96a2.5 2.5 0 0 1 .383 1.366c0 .351-.066.694-.198 1.03-.13.335-.356.71-.679 1.122-.323.409-.772.906-1.348 1.49l-1.879 1.967v.07h4.257V73H49.28Zm7.57-1.847V70l4.086-6.453h.91v1.698h-.577l-2.923 4.626v.074h5.6v1.21h-7.095ZM61.334 73v-2.197l.01-.527v-6.73h1.352V73h-1.362Zm7.792 0v-9.455h3.37c.732 0 1.34.127 1.823.379.487.252.85.602 1.09 1.048.24.443.36.956.36 1.537 0 .579-.122 1.088-.365 1.528-.24.437-.603.777-1.09 1.02-.483.244-1.09.365-1.823.365h-2.553v-1.228h2.424c.461 0 .837-.066 1.126-.198.293-.133.507-.325.642-.577.135-.253.203-.556.203-.91 0-.357-.07-.666-.208-.928a1.341 1.341 0 0 0-.641-.6c-.29-.141-.67-.212-1.14-.212H70.55V73h-1.426Zm4.667-4.266L76.128 73h-1.625l-2.29-4.266h1.579Zm6.499 4.41c-.665 0-1.245-.153-1.74-.458a3.082 3.082 0 0 1-1.155-1.279c-.274-.547-.41-1.188-.41-1.92 0-.736.136-1.379.41-1.93.274-.55.659-.978 1.154-1.283.496-.305 1.076-.457 1.74-.457.665 0 1.246.152 1.741.457.496.305.88.732 1.154 1.283.274.551.411 1.194.411 1.93 0 .732-.137 1.373-.41 1.92a3.082 3.082 0 0 1-1.155 1.28c-.495.304-1.076.456-1.74.456Zm.004-1.16c.431 0 .788-.113 1.071-.341.284-.228.493-.531.628-.91.139-.378.208-.795.208-1.25 0-.453-.07-.869-.208-1.247a2.03 2.03 0 0 0-.628-.919c-.283-.23-.64-.346-1.07-.346-.435 0-.795.115-1.08.346-.284.23-.495.537-.633.919a3.674 3.674 0 0 0-.204 1.246c0 .456.068.873.204 1.251.138.379.349.682.632.91.286.228.646.341 1.08.341Zm6.906 1.173c-.45 0-.856-.083-1.22-.25a2.054 2.054 0 0 1-.863-.733c-.209-.32-.313-.713-.313-1.178 0-.4.076-.729.23-.987.154-.259.362-.464.624-.615.261-.15.553-.264.877-.341.323-.077.652-.135.988-.175l1.034-.12c.264-.034.457-.088.577-.162.12-.074.18-.194.18-.36v-.032c0-.404-.114-.716-.342-.938-.224-.221-.56-.332-1.006-.332-.465 0-.831.103-1.099.31-.265.202-.448.429-.55.678l-1.296-.296c.153-.43.378-.778.673-1.043a2.733 2.733 0 0 1 1.03-.582 4.018 4.018 0 0 1 1.223-.184c.284 0 .584.034.9.101.32.065.62.185.896.36.28.176.51.427.688.753.178.323.268.743.268 1.26V73h-1.348v-.97h-.056c-.089.179-.223.355-.401.527a2.134 2.134 0 0 1-.688.43c-.28.113-.616.17-1.006.17Zm.3-1.108c.381 0 .707-.075.978-.226.274-.151.482-.348.624-.591.144-.246.216-.51.216-.79v-.914c-.049.05-.144.096-.286.139a4.46 4.46 0 0 1-.475.106 58.06 58.06 0 0 1-.522.079l-.425.055a3.42 3.42 0 0 0-.734.17 1.26 1.26 0 0 0-.526.347c-.13.148-.194.345-.194.59 0 .343.126.601.379.776.252.173.574.259.965.259Zm7.692 1.09a2.748 2.748 0 0 1-1.533-.44c-.446-.294-.797-.715-1.052-1.26-.253-.547-.379-1.204-.379-1.97 0-.767.128-1.422.383-1.967.259-.545.613-.962 1.062-1.251.45-.29.959-.434 1.528-.434.44 0 .794.074 1.062.221.27.145.48.314.628.508.15.194.267.365.35.513h.084v-3.514h1.38V73h-1.348v-1.103h-.115c-.084.15-.204.323-.36.517a2 2 0 0 1-.638.507c-.27.145-.621.217-1.052.217Zm.304-1.178c.397 0 .733-.104 1.007-.314.277-.212.486-.506.628-.881.144-.376.217-.813.217-1.312 0-.492-.071-.923-.213-1.292a1.899 1.899 0 0 0-.623-.863c-.274-.207-.612-.31-1.016-.31-.415 0-.761.108-1.038.323-.277.216-.487.51-.628.882a3.596 3.596 0 0 0-.208 1.26c0 .475.07.9.212 1.28.142.378.351.678.628.9.28.218.625.327 1.034.327ZM100.676 73v-7.09h1.325v1.153h.088a1.83 1.83 0 0 1 .724-.914c.336-.221.737-.332 1.205-.332.474 0 .871.11 1.191.332.323.222.562.526.716.914h.074a1.99 1.99 0 0 1 .808-.905c.369-.227.809-.341 1.32-.341.643 0 1.168.201 1.574.605.409.403.614 1.01.614 1.823V73h-1.38v-4.626c0-.48-.131-.828-.393-1.043a1.426 1.426 0 0 0-.937-.323c-.449 0-.798.138-1.048.415-.249.274-.374.627-.374 1.058V73h-1.375v-4.713c0-.385-.12-.694-.36-.928-.24-.234-.553-.351-.938-.351-.261 0-.503.07-.724.208a1.517 1.517 0 0 0-.531.567 1.732 1.732 0 0 0-.199.845V73h-1.38Zm13.553.157c-.45 0-.856-.083-1.219-.25a2.052 2.052 0 0 1-.863-.733c-.21-.32-.314-.713-.314-1.178 0-.4.077-.729.231-.987a1.7 1.7 0 0 1 .623-.615 3.25 3.25 0 0 1 .877-.341c.323-.077.652-.135.988-.175l1.034-.12c.265-.034.457-.088.577-.162.12-.074.18-.194.18-.36v-.032c0-.404-.114-.716-.341-.938-.225-.221-.561-.332-1.007-.332-.465 0-.831.103-1.099.31-.264.202-.447.429-.549.678l-1.297-.296c.154-.43.378-.778.674-1.043a2.733 2.733 0 0 1 1.029-.582 4.023 4.023 0 0 1 1.224-.184c.283 0 .583.034.9.101.32.065.618.185.895.36.281.176.51.427.688.753.179.323.268.743.268 1.26V73h-1.348v-.97h-.055a1.97 1.97 0 0 1-.402.527 2.13 2.13 0 0 1-.688.43c-.28.113-.615.17-1.006.17Zm.3-1.108c.381 0 .708-.075.979-.226.273-.151.481-.348.623-.591a1.54 1.54 0 0 0 .217-.79v-.914c-.049.05-.145.096-.286.139a4.47 4.47 0 0 1-.476.106c-.178.028-.352.054-.522.079l-.424.055c-.268.034-.513.09-.734.17-.219.08-.394.196-.527.347-.129.148-.194.345-.194.59 0 .343.127.601.379.776.252.173.574.259.965.259Zm5.038 3.61v-9.75h1.348v1.15h.115c.08-.148.195-.319.346-.513.151-.194.36-.363.628-.508.268-.147.622-.221 1.062-.221.572 0 1.083.144 1.533.434.449.289.801.706 1.057 1.25.258.545.388 1.201.388 1.967 0 .767-.128 1.424-.384 1.972-.255.544-.606.965-1.052 1.26a2.726 2.726 0 0 1-1.528.438c-.431 0-.784-.072-1.057-.217a2.004 2.004 0 0 1-.638-.507 3.91 3.91 0 0 1-.355-.517h-.083v3.762h-1.38Zm1.352-6.205c0 .5.073.936.217 1.312.145.375.354.669.628.881.274.21.609.314 1.006.314.413 0 .758-.109 1.035-.328.276-.221.486-.521.627-.9.145-.378.217-.805.217-1.279 0-.467-.07-.887-.212-1.26a1.934 1.934 0 0 0-.628-.882c-.277-.215-.623-.323-1.039-.323-.4 0-.738.103-1.015.31a1.894 1.894 0 0 0-.623.863c-.142.37-.213.8-.213 1.292Z"></path><path stroke="#949698" stroke-width="1.5" d="M9.75 92.75h2.57a1 1 0 0 1 .726.311l1.308 1.378a1 1 0 0 0 .725.311h3.171a2 2 0 0 1 2 2v4.5a2 2 0 0 1-2 2h-8.5a2 2 0 0 1-2-2v-6.5a2 2 0 0 1 2-2Z"></path><path fill="#E2E4E6" d="M31.039 103v-9.454h3.37c.735 0 1.345.133 1.828.401a2.61 2.61 0 0 1 1.085 1.099c.24.461.36.982.36 1.56 0 .582-.122 1.105-.365 1.57-.24.461-.603.828-1.09 1.099-.483.267-1.09.401-1.823.401h-2.317v-1.21h2.188c.465 0 .842-.08 1.13-.24.29-.163.503-.384.638-.664s.203-.599.203-.956-.068-.674-.203-.95a1.456 1.456 0 0 0-.642-.652c-.289-.157-.67-.235-1.145-.235h-1.79V103h-1.427Zm8.204 0v-7.09h1.334v1.126h.074c.13-.382.357-.682.684-.9.329-.222.701-.333 1.117-.333a5.96 5.96 0 0 1 .586.032v1.32a2.484 2.484 0 0 0-.295-.05 2.81 2.81 0 0 0-.425-.033 1.8 1.8 0 0 0-.873.208 1.543 1.543 0 0 0-.821 1.39V103h-1.38Zm7.723.143c-.665 0-1.245-.152-1.74-.457a3.083 3.083 0 0 1-1.155-1.279c-.274-.548-.41-1.188-.41-1.92 0-.736.136-1.379.41-1.93.274-.55.659-.978 1.154-1.283.496-.305 1.076-.457 1.74-.457.665 0 1.245.152 1.741.457.495.305.88.732 1.154 1.283.274.551.411 1.194.411 1.93 0 .732-.137 1.372-.41 1.92a3.083 3.083 0 0 1-1.155 1.279c-.495.305-1.076.457-1.74.457Zm.004-1.159c.431 0 .788-.113 1.071-.341.283-.228.493-.531.628-.91.139-.378.208-.795.208-1.25 0-.453-.07-.869-.208-1.247a2.03 2.03 0 0 0-.628-.919c-.283-.23-.64-.346-1.07-.346-.435 0-.795.115-1.081.346-.283.23-.494.537-.633.919a3.674 3.674 0 0 0-.203 1.246c0 .456.068.873.203 1.251.139.379.35.682.633.91.286.228.646.341 1.08.341Zm4.842-6.075h1.38v7.553c0 .474-.086.874-.258 1.2-.17.326-.422.574-.758.743-.332.169-.743.254-1.232.254h-.139c-.046 0-.094-.001-.143-.005v-1.186h.222c.326 0 .562-.088.706-.263.148-.172.222-.423.222-.753v-7.543Zm.683-1.094a.877.877 0 0 1-.619-.24.78.78 0 0 1-.254-.582c0-.227.085-.421.254-.581a.869.869 0 0 1 .619-.245c.24 0 .445.082.614.245.172.16.258.353.258.581a.774.774 0 0 1-.258.582.861.861 0 0 1-.614.24Zm5.61 8.328c-.698 0-1.3-.149-1.805-.448a3.03 3.03 0 0 1-1.163-1.269c-.271-.548-.407-1.19-.407-1.925 0-.727.136-1.367.407-1.92a3.155 3.155 0 0 1 1.145-1.298c.492-.31 1.068-.466 1.726-.466.4 0 .788.066 1.163.198.376.133.713.34 1.011.623.3.284.535.651.707 1.104.172.45.258.995.258 1.639v.489h-5.636v-1.034h4.284c0-.363-.074-.685-.222-.965a1.675 1.675 0 0 0-.623-.67 1.741 1.741 0 0 0-.933-.244c-.387 0-.726.095-1.015.286a1.921 1.921 0 0 0-.665.739c-.154.302-.23.63-.23.983v.808c0 .474.082.877.248 1.21a1.8 1.8 0 0 0 .707.761c.301.173.654.259 1.057.259.262 0 .5-.037.715-.111a1.48 1.48 0 0 0 .919-.9l1.307.235a2.362 2.362 0 0 1-.564 1.011 2.72 2.72 0 0 1-1.01.67 3.782 3.782 0 0 1-1.38.235Zm7.56 0c-.686 0-1.277-.155-1.772-.466a3.086 3.086 0 0 1-1.136-1.297c-.264-.551-.397-1.182-.397-1.893 0-.72.136-1.356.407-1.907.27-.554.652-.986 1.144-1.297.493-.31 1.073-.466 1.74-.466.54 0 1.02.1 1.441.3.422.197.762.474 1.02.83.262.358.418.775.467 1.252h-1.344a1.61 1.61 0 0 0-.507-.859c-.262-.24-.613-.36-1.053-.36-.385 0-.722.102-1.011.305-.286.2-.51.486-.67.859-.16.369-.24.806-.24 1.31 0 .518.079.964.236 1.339.157.376.378.667.665.873.289.206.63.309 1.02.309.262 0 .499-.048.71-.143.216-.098.396-.238.541-.42.148-.182.25-.4.31-.656h1.343c-.05.459-.199.868-.448 1.228-.25.36-.583.644-1.002.85-.415.206-.903.309-1.463.309Zm7.7-7.234v1.108h-3.873v-1.108h3.873ZM70.53 94.21h1.38v6.708c0 .268.04.469.12.605.08.132.184.223.31.272.13.046.27.069.42.069.11 0 .208-.007.291-.023.083-.015.148-.027.194-.037l.25 1.141c-.08.03-.195.061-.343.092a2.691 2.691 0 0 1-.553.055 2.424 2.424 0 0 1-1.016-.194 1.739 1.739 0 0 1-.762-.627c-.194-.284-.29-.639-.29-1.067V94.21Zm9.561 3.43-1.251.222a1.481 1.481 0 0 0-.25-.457 1.234 1.234 0 0 0-.452-.356c-.19-.092-.429-.138-.715-.138-.391 0-.717.088-.979.263-.261.172-.392.395-.392.67 0 .236.087.427.263.572.175.145.458.263.85.355l1.126.259c.652.15 1.138.383 1.459.697.32.314.48.722.48 1.223 0 .425-.124.804-.37 1.136-.243.329-.583.588-1.02.776-.434.187-.937.281-1.51.281-.794 0-1.441-.169-1.943-.508-.502-.341-.81-.826-.923-1.454l1.334-.203c.083.348.254.611.512.789.259.176.596.264 1.011.264.453 0 .814-.094 1.085-.282.27-.191.406-.423.406-.697a.725.725 0 0 0-.249-.559c-.163-.151-.414-.264-.752-.341l-1.2-.264c-.662-.15-1.152-.39-1.469-.72-.314-.329-.47-.746-.47-1.25 0-.42.116-.786.35-1.1.234-.313.557-.558.97-.733.412-.179.884-.268 1.417-.268.766 0 1.37.166 1.81.498.44.33.73.771.872 1.325Z"></path><path fill="#595B5D" d="M88.002 101.624a.5.5 0 0 1-.752-.432v-4.384a.5.5 0 0 1 .752-.432l3.758 2.192a.5.5 0 0 1 0 .864l-3.758 2.192Z"></path><path stroke="#949698" stroke-width="1.5" d="M9.75 122.75h2.57c.275 0 .537.113.726.311l1.308 1.378c.19.198.451.311.725.311h3.171a2 2 0 0 1 2 2v4.5a2 2 0 0 1-2 2h-8.5a2 2 0 0 1-2-2v-6.5a2 2 0 0 1 2-2Z"></path><path fill="#E2E4E6" d="M34.1 133h-3.061v-9.455h3.157c.927 0 1.722.19 2.387.568a3.746 3.746 0 0 1 1.528 1.621c.357.701.536 1.543.536 2.525 0 .985-.18 1.831-.54 2.539a3.786 3.786 0 0 1-1.552 1.634c-.677.379-1.495.568-2.456.568Zm-1.635-1.246h1.556c.72 0 1.319-.136 1.796-.407a2.56 2.56 0 0 0 1.07-1.186c.238-.52.356-1.154.356-1.902 0-.742-.118-1.371-.355-1.888a2.507 2.507 0 0 0-1.048-1.177c-.465-.268-1.042-.402-1.731-.402h-1.644v6.962Zm10.832 1.389c-.665 0-1.245-.152-1.74-.457a3.083 3.083 0 0 1-1.155-1.279c-.274-.548-.41-1.188-.41-1.92 0-.736.136-1.379.41-1.93a3.07 3.07 0 0 1 1.154-1.283c.496-.305 1.076-.457 1.74-.457.665 0 1.245.152 1.741.457.495.304.88.732 1.154 1.283.274.551.411 1.194.411 1.93 0 .732-.137 1.372-.41 1.92a3.083 3.083 0 0 1-1.155 1.279c-.495.305-1.076.457-1.74.457Zm.004-1.159c.431 0 .788-.113 1.071-.341.283-.228.493-.531.628-.91.139-.378.208-.795.208-1.251a3.6 3.6 0 0 0-.208-1.246 2.03 2.03 0 0 0-.628-.919c-.283-.231-.64-.346-1.07-.346-.435 0-.795.115-1.081.346a2.063 2.063 0 0 0-.632.919 3.674 3.674 0 0 0-.204 1.246c0 .456.068.873.204 1.251.138.379.349.682.632.91.286.228.646.341 1.08.341Zm7.829 1.159c-.687 0-1.278-.155-1.773-.466a3.086 3.086 0 0 1-1.136-1.297c-.264-.551-.397-1.182-.397-1.893 0-.72.136-1.356.407-1.907.27-.554.652-.986 1.144-1.297.493-.311 1.073-.466 1.74-.466.54 0 1.02.1 1.441.3.422.197.762.474 1.02.831.262.357.417.774.467 1.251h-1.344a1.608 1.608 0 0 0-.508-.859c-.261-.24-.612-.36-1.052-.36-.385 0-.722.102-1.011.305-.286.2-.51.486-.67.858-.16.37-.24.807-.24 1.312 0 .517.079.963.236 1.338.157.376.378.667.665.873.289.206.629.309 1.02.309.261 0 .498-.048.71-.143.216-.098.396-.238.54-.42.149-.182.252-.4.31-.656h1.344c-.05.459-.199.868-.448 1.228-.25.36-.583.644-1.002.85-.415.206-.903.309-1.463.309Zm9.702-5.503-1.25.222a1.474 1.474 0 0 0-.25-.457 1.238 1.238 0 0 0-.453-.356c-.19-.092-.429-.138-.715-.138-.39 0-.717.088-.979.263-.261.172-.392.395-.392.669 0 .237.088.428.263.573.175.144.459.263.85.355l1.126.259c.652.151 1.139.383 1.459.697.32.314.48.722.48 1.223 0 .425-.123.804-.37 1.136-.243.329-.583.588-1.02.776-.434.187-.937.281-1.51.281-.793 0-1.441-.169-1.943-.508-.502-.341-.81-.826-.923-1.454l1.334-.203c.083.348.254.611.512.789.259.176.596.264 1.011.264.453 0 .815-.094 1.085-.282.271-.191.407-.423.407-.697a.725.725 0 0 0-.25-.559c-.163-.151-.414-.264-.752-.341l-1.2-.264c-.662-.15-1.152-.39-1.469-.72-.314-.329-.47-.746-.47-1.251 0-.418.117-.785.35-1.098.234-.314.558-.559.97-.734.412-.179.885-.268 1.417-.268.767 0 1.37.166 1.81.498.44.33.73.771.872 1.325Z"></path><path fill="#595B5D" d="M69.002 131.624a.5.5 0 0 1-.752-.432v-4.384a.5.5 0 0 1 .752-.432l3.758 2.192a.5.5 0 0 1 0 .864l-3.758 2.192Z"></path></svg>