<svg xmlns="http://www.w3.org/2000/svg" width="228" height="58" fill="none" viewBox="0 0 228 58"><rect width="228" height="28" fill="#1A1C1F" rx="6"></rect><path fill="#949698" d="M16.591 7a3 3 0 012.93 2.352l1.36 6.15c.08.355.119.717.119 1.08v1.936A2.482 2.482 0 0118.518 21H9.482A2.482 2.482 0 017 18.518v-1.935a5 5 0 01.118-1.08L8.48 9.351A3 3 0 0111.41 7h5.182zm0 1.5H11.41a1.5 1.5 0 00-1.465 1.176l-1.361 6.15-.035.184h2.462c.549 0 .993.445.993.993 0 .549.444.993.993.993h2.063a.993.993 0 00.993-.993c0-.548.445-.992.993-.992h2.408a3.48 3.48 0 00-.036-.184l-1.361-6.151A1.5 1.5 0 0016.591 8.5z"></path><path fill="#E2E4E6" d="M32.465 9.545V19H31.04V9.545h1.426zm3.347 5.245V19h-1.38v-7.09h1.325v1.153h.087c.164-.375.419-.677.767-.905.35-.227.792-.341 1.325-.341.483 0 .906.101 1.27.304.362.2.644.499.844.896.2.397.3.888.3 1.473V19h-1.38v-4.344c0-.514-.134-.916-.402-1.205-.268-.292-.635-.439-1.103-.439-.32 0-.605.07-.854.208a1.495 1.495 0 00-.586.61c-.142.264-.213.584-.213.96zm6.5 4.21V9.545h1.38v3.514h.084c.08-.148.195-.319.346-.513.15-.194.36-.363.628-.508.267-.147.621-.221 1.061-.221a2.77 2.77 0 011.533.434c.45.289.802.706 1.057 1.25.259.546.388 1.201.388 1.967 0 .767-.128 1.424-.383 1.972-.256.544-.606.964-1.053 1.26a2.725 2.725 0 01-1.528.439c-.43 0-.783-.073-1.057-.217a2 2 0 01-.637-.508 3.851 3.851 0 01-.355-.517h-.116V19h-1.348zm1.353-3.546c0 .5.072.936.217 1.312.144.375.354.669.628.881.273.21.609.314 1.006.314.412 0 .757-.109 1.034-.327.277-.222.486-.522.628-.9a3.56 3.56 0 00.217-1.28c0-.467-.07-.887-.213-1.26a1.93 1.93 0 00-.627-.882c-.277-.215-.623-.323-1.039-.323-.4 0-.739.103-1.016.31a1.898 1.898 0 00-.623.863c-.141.37-.212.8-.212 1.292zm9.66 3.69c-.664 0-1.244-.153-1.74-.458a3.082 3.082 0 01-1.154-1.279c-.273-.547-.41-1.188-.41-1.92 0-.736.136-1.379.41-1.93.274-.55.659-.979 1.155-1.283.495-.305 1.075-.457 1.74-.457s1.245.152 1.74.457c.496.305.88.732 1.154 1.283.274.551.411 1.194.411 1.93 0 .732-.137 1.373-.41 1.92a3.082 3.082 0 01-1.155 1.28c-.495.304-1.075.456-1.74.456zm.005-1.16c.431 0 .788-.114 1.072-.341.283-.228.492-.531.627-.91.139-.378.208-.795.208-1.25 0-.453-.07-.869-.208-1.247a2.03 2.03 0 00-.628-.919c-.283-.23-.64-.346-1.07-.346-.434 0-.795.115-1.08.346-.284.23-.495.537-.633.919a3.677 3.677 0 00-.203 1.246c0 .456.067.873.203 1.251.138.379.35.682.632.91.286.227.647.341 1.08.341zm5.652-6.075l1.565 2.76 1.58-2.76h1.509l-2.212 3.545L63.654 19h-1.51l-1.597-2.65L58.955 19H57.44l2.207-3.546-2.179-3.545h1.514z"></path><rect width="20" height="20" x="204" y="4" fill="#1A1C1F" rx="4"></rect><path fill="#949698" d="M215.246 9.997V18h-.945v-6.982h-.054l-1.944 1.3v-.989l1.998-1.332h.945zM20.246 46a.75.75 0 01.743.648l.007.102v1.498a2.75 2.75 0 01-2.578 2.744l-.168.006-1.499.002a.75.75 0 01-.104-1.493l.102-.007 1.499-.002a1.25 1.25 0 001.241-1.123l.007-.127V46.75a.75.75 0 01.75-.75zM7.75 46a.75.75 0 01.75.75v1.498a1.25 1.25 0 001.248 1.25l1.499.002a.75.75 0 01-.002 1.5l-1.5-.002A2.75 2.75 0 017 48.248V46.75a.75.75 0 01.75-.75zM14 42a2 2 0 110 4 2 2 0 010-4zm2.751-5l1.5.002a2.75 2.75 0 012.745 2.75v1.498a.75.75 0 01-1.5 0v-1.498a1.25 1.25 0 00-1.248-1.25l-1.5-.002a.75.75 0 01.003-1.5zm-5.502 0a.75.75 0 01.002 1.5l-1.499.002a1.25 1.25 0 00-1.248 1.25v1.498a.75.75 0 01-1.5 0v-1.498a2.75 2.75 0 012.746-2.75L11.249 37z"></path><path fill="#E2E4E6" d="M31.039 39.545h1.73l3.01 7.35h.112l3.01-7.35h1.73V49h-1.356v-6.842h-.088l-2.789 6.828h-1.126l-2.788-6.832h-.088V49h-1.357v-9.455zM43.467 51.66c-.206 0-.393-.017-.563-.05a1.768 1.768 0 01-.378-.102l.332-1.131c.252.067.477.097.674.087a.807.807 0 00.522-.221c.154-.139.289-.365.406-.679l.17-.47-2.594-7.184h1.478l1.795 5.503h.074l1.796-5.503h1.482l-2.922 8.037a3.23 3.23 0 01-.517.938c-.21.258-.459.452-.748.581-.29.13-.625.194-1.007.194zM53.4 49v-7.09h1.38V49H53.4zm.697-8.185a.877.877 0 01-.619-.24.78.78 0 01-.254-.582.77.77 0 01.254-.581.868.868 0 01.619-.245.85.85 0 01.614.245c.172.16.258.354.258.581a.774.774 0 01-.258.582.861.861 0 01-.614.24zm7.854 2.825l-1.252.222a1.481 1.481 0 00-.249-.457 1.234 1.234 0 00-.452-.356c-.191-.092-.43-.138-.716-.138-.39 0-.717.088-.978.263-.262.172-.393.395-.393.67 0 .236.088.427.263.572.176.145.459.263.85.355l1.126.259c.652.15 1.139.383 1.459.697.32.314.48.722.48 1.223 0 .425-.123.804-.37 1.136-.243.33-.583.588-1.02.776-.434.187-.937.281-1.51.281-.793 0-1.441-.17-1.943-.508-.501-.341-.81-.826-.923-1.454l1.334-.203c.083.348.254.61.513.79.258.175.595.263 1.01.263.453 0 .815-.094 1.085-.282.271-.19.407-.423.407-.697a.724.724 0 00-.25-.559c-.163-.15-.413-.264-.752-.341l-1.2-.264c-.662-.15-1.151-.39-1.468-.72-.314-.329-.471-.746-.471-1.25 0-.42.117-.785.35-1.1.234-.313.558-.558.97-.733.413-.179.885-.268 1.417-.268.767 0 1.37.166 1.81.498.44.33.73.771.873 1.325zm6.97 0l-1.252.222a1.483 1.483 0 00-.25-.457 1.233 1.233 0 00-.452-.356c-.19-.092-.429-.138-.715-.138-.391 0-.717.088-.979.263-.261.172-.392.395-.392.67 0 .236.088.427.263.572.175.145.459.263.85.355l1.126.259c.652.15 1.138.383 1.459.697.32.314.48.722.48 1.223 0 .425-.123.804-.37 1.136-.243.33-.583.588-1.02.776-.434.187-.937.281-1.51.281-.793 0-1.441-.17-1.943-.508-.502-.341-.81-.826-.923-1.454l1.334-.203c.083.348.254.61.512.79.259.175.596.263 1.011.263.453 0 .814-.094 1.085-.282.271-.19.406-.423.406-.697a.724.724 0 00-.249-.559c-.163-.15-.414-.264-.752-.341l-1.2-.264c-.662-.15-1.152-.39-1.469-.72-.314-.329-.47-.746-.47-1.25 0-.42.116-.785.35-1.1.234-.313.557-.558.97-.733.412-.179.885-.268 1.417-.268.766 0 1.37.166 1.81.498.44.33.73.771.872 1.325zm6.147 2.42v-4.15h1.385V49h-1.357v-1.228h-.074a2.213 2.213 0 01-.785.946c-.357.25-.802.374-1.334.374-.455 0-.859-.1-1.21-.3a2.109 2.109 0 01-.821-.9c-.197-.397-.296-.888-.296-1.473v-4.51h1.38v4.344c0 .483.135.868.402 1.154.268.287.616.43 1.044.43.258 0 .515-.065.77-.194.26-.13.473-.325.642-.587.173-.261.257-.593.254-.997zm6.296 3.083c-.699 0-1.3-.15-1.805-.448a3.037 3.037 0 01-1.164-1.27c-.27-.547-.406-1.189-.406-1.924 0-.727.136-1.367.406-1.92a3.155 3.155 0 011.145-1.298c.493-.31 1.068-.466 1.727-.466.4 0 .788.066 1.163.198.376.133.713.34 1.011.623.299.284.534.651.707 1.104.172.45.258.995.258 1.639v.489H78.77v-1.034h4.284c0-.363-.074-.685-.222-.965a1.675 1.675 0 00-.623-.67 1.741 1.741 0 00-.933-.244c-.388 0-.726.095-1.015.286a1.921 1.921 0 00-.665.739 2.13 2.13 0 00-.231.983v.808c0 .474.083.877.25 1.21.169.332.404.586.706.761.301.173.654.259 1.057.259.261 0 .5-.037.715-.111a1.484 1.484 0 00.919-.9l1.306.235a2.367 2.367 0 01-.563 1.011 2.72 2.72 0 01-1.01.67 3.785 3.785 0 01-1.381.235zm9.887-5.503l-1.25.222a1.481 1.481 0 00-.25-.457 1.234 1.234 0 00-.453-.356c-.19-.092-.429-.138-.715-.138-.39 0-.717.088-.979.263-.261.172-.392.395-.392.67 0 .236.088.427.263.572.175.145.459.263.85.355l1.126.259c.652.15 1.139.383 1.459.697.32.314.48.722.48 1.223 0 .425-.123.804-.37 1.136-.243.33-.583.588-1.02.776-.434.187-.937.281-1.51.281-.793 0-1.441-.17-1.943-.508-.502-.341-.81-.826-.923-1.454l1.334-.203c.083.348.254.61.512.79.259.175.596.263 1.011.263.453 0 .814-.094 1.085-.282.271-.19.407-.423.407-.697a.724.724 0 00-.25-.559c-.163-.15-.414-.264-.752-.341l-1.2-.264c-.662-.15-1.152-.39-1.469-.72-.314-.329-.47-.746-.47-1.25 0-.42.117-.785.35-1.1.234-.313.557-.558.97-.733.412-.179.885-.268 1.417-.268.766 0 1.37.166 1.81.498.44.33.73.771.872 1.325z"></path></svg>