<svg class="" style="--icon-color:var(--color-text-secondary)" width="16" height="16" viewBox="0 0 16 16" fill="var(--color-text-secondary)" role="img" focusable="false" aria-hidden="true"><path fill-rule="evenodd" clip-rule="evenodd" d="M3 9C3.55228 9 4 9.44772 4 10V13C4 13.5523 3.55228 14 3 14H2C1.44772 14 1 13.5523 1 13V10C1 9.44772 1.44772 9 2 9H3ZM14 6C14.5523 6 15 6.44772 15 7V13C15 13.5523 14.5523 14 14 14H13C12.4477 14 12 13.5523 12 13V7C12 6.44772 12.4477 6 13 6H14ZM8.5 2C9.05229 2 9.5 2.44772 9.5 3V13C9.5 13.5523 9.05229 14 8.5 14H7.5C6.94772 14 6.5 13.5523 6.5 13V3C6.5 2.44772 6.94772 2 7.5 2H8.5Z"></path></svg>