<svg viewBox="0 0 180 56" fill="currentColor" class="Icon_logotype__QxI2T color_primary__jHBCr" aria-hidden="true" role="img" focusable="false" style="--Logotype-width: 150px;"><path d="M60.343 20.733h3.581l.336 1.863c.7-1.474 2.209-2.196 3.802-2.196.782 0 1.567.194 2.099.418l-.841 4.309a4.042 4.042 0 0 0-2.099-.558c-1.453 0-2.63.976-2.63 3.143v6.923h-4.248V20.734ZM71.633 29.459v-8.814h4.312v8.007c0 1.613.934 2.475 2.296 2.475 1.39 0 2.58-1.056 2.58-3.392v-7.09h4.311v13.902h-3.6l-.483-1.833c-.68 1.11-2.382 2.167-4.48 2.167-2.812 0-4.936-1.782-4.936-5.422ZM90.902 20.733l.477 1.833c.672-1.11 2.323-2.166 4.4-2.166 2.744 0 4.816 1.752 4.816 5.393v8.842h-4.259v-7.951c0-1.64-.842-2.53-2.242-2.53-1.29 0-2.494 1.056-2.494 3.446v7.035h-4.259V20.733h3.561ZM101.577 20.645h4.26l2.516 9.486 2.24-6.24-1.105-3.246h4.23l2.74 9.486 2.432-9.486h4.285l-4.536 13.99h-4.37l-1.878-5.567-1.937 5.567h-4.344l-4.533-13.99ZM123.421 27.64c0-4.78 3.45-7.24 6.625-7.24 1.949 0 3.341.772 4.034 1.574l.389-1.243h3.924V34.55h-3.729l-.584-1.352c-.584.689-1.835 1.684-4.232 1.684-3.421 0-6.427-2.82-6.427-7.24Zm10.828 0c0-2.237-1.447-3.618-3.286-3.618-1.864 0-3.284 1.41-3.284 3.618s1.42 3.622 3.284 3.622c1.839-.003 3.286-1.384 3.286-3.622ZM142.85 40.28l2.359-6.366-5.59-13.269h4.579l3.119 8.667 2.808-8.667h4.467l-7.387 19.635h-4.355ZM44.38 40.265c-3.063.28-5.623-3.31-7.587-5.13-.992 7.153-11.8 6.475-11.793-.78.004-3.048 0-10.495 0-13.447 0-1.061.291-2.13.838-3.036 1.037-1.758 3.04-2.893 5.08-2.87 3.075.003 10.477-.005 13.462 0 7.262 0 7.952 10.803.775 11.776l3.406 3.401c3.742 3.52.934 10.24-4.18 10.086Zm-1.65-4.256c2.112 2.174 5.48-1.194 3.307-3.302l-5.904-5.896H36.83v3.302l5.104 5.096.797.8Zm-14.154-1.651c-.048 3.022 4.723 3.033 4.675 0v-13.45c.04-1.507-1.553-2.705-2.993-2.24a2.353 2.353 0 0 0-1.683 2.285v13.405ZM44.38 23.24c3.033.047 3.03-4.717 0-4.67h-8.018c.609 1.283.454 3.28.465 4.67h7.553Z"></path></svg>