<svg viewBox="0 0 180 56" fill="currentColor" class="Icon_logotype__QxI2T color_primary__jHBCr" aria-hidden="true" role="img" focusable="false" style="--Logotype-width: 150px;"><path d="M34.371 25.15H32V23.18h2.371v-3.76h2.113v3.76h3.325v1.971h-3.325v7.913c0 .56.103.963.31 1.209.223.227.6.341 1.134.341h2.293v1.972H37.8c-1.237 0-2.122-.28-2.655-.841-.515-.561-.773-1.446-.773-2.655V25.15ZM47.03 36.742c-1.271 0-2.405-.288-3.402-.867a6.04 6.04 0 0 1-2.294-2.418c-.55-1.034-.824-2.226-.824-3.575 0-1.35.275-2.541.825-3.575a6.04 6.04 0 0 1 2.293-2.419c.997-.578 2.13-.867 3.402-.867 1.271 0 2.397.289 3.376.867a5.988 5.988 0 0 1 2.32 2.419c.55 1.034.825 2.225.825 3.575s-.276 2.54-.825 3.575a5.988 5.988 0 0 1-2.32 2.418c-.98.578-2.105.867-3.376.867Zm0-1.918c.86 0 1.615-.21 2.268-.631a4.134 4.134 0 0 0 1.546-1.761c.361-.754.542-1.604.542-2.55 0-.947-.18-1.797-.542-2.55a4.134 4.134 0 0 0-1.546-1.761c-.653-.42-1.409-.631-2.268-.631-.859 0-1.623.21-2.294.63-.652.421-1.16 1.008-1.52 1.762-.36.753-.541 1.603-.541 2.55 0 .946.18 1.796.54 2.55.362.753.868 1.34 1.521 1.76.67.421 1.435.632 2.294.632ZM68.024 23.178v12.75c0 4.048-2.174 6.072-6.52 6.072-1.702 0-3.093-.394-4.176-1.183-1.065-.788-1.684-1.91-1.855-3.365h2.165c.171.842.61 1.49 1.314 1.946.704.455 1.606.683 2.706.683 2.835 0 4.252-1.41 4.252-4.232v-1.577c-.945 1.647-2.448 2.47-4.51 2.47-1.22 0-2.31-.271-3.273-.814-.945-.543-1.692-1.332-2.242-2.366-.533-1.034-.799-2.26-.799-3.68 0-1.35.266-2.541.799-3.575.55-1.034 1.306-1.84 2.268-2.419.962-.578 2.044-.867 3.247-.867 1.065 0 1.976.219 2.732.657a4.474 4.474 0 0 1 1.778 1.814l.284-2.314h1.83Zm-6.418 11.646c.842 0 1.59-.202 2.242-.605a4.168 4.168 0 0 0 1.547-1.735c.36-.753.541-1.603.541-2.55 0-.964-.18-1.822-.541-2.576-.361-.77-.876-1.367-1.546-1.787-.653-.42-1.4-.631-2.243-.631-1.305 0-2.362.464-3.17 1.393-.79.911-1.185 2.094-1.185 3.549 0 1.454.395 2.646 1.186 3.575.807.911 1.864 1.367 3.17 1.367ZM70.015 29.882c0-1.367.257-2.568.773-3.602.532-1.034 1.271-1.83 2.216-2.392.945-.578 2.028-.867 3.248-.867 1.202 0 2.267.254 3.195.762.928.508 1.658 1.244 2.19 2.208.534.964.817 2.094.851 3.391 0 .193-.017.5-.051.92H72.23v.184c.035 1.315.43 2.366 1.186 3.155.756.788 1.743 1.183 2.963 1.183.945 0 1.744-.237 2.397-.71.67-.49 1.117-1.165 1.34-2.024h2.14c-.258 1.367-.903 2.488-1.934 3.364-1.03.86-2.293 1.288-3.788 1.288-1.306 0-2.448-.28-3.428-.84a6.04 6.04 0 0 1-2.293-2.419c-.533-1.051-.8-2.252-.8-3.601Zm10.283-1.367c-.103-1.14-.524-2.024-1.263-2.655-.722-.631-1.64-.947-2.758-.947-.996 0-1.872.333-2.628 1-.756.665-1.186 1.533-1.29 2.602h7.939ZM85.201 25.15h-2.37V23.18h2.37v-3.76h2.114v3.76h3.324v1.971h-3.325v7.913c0 .56.104.963.31 1.209.223.227.601.341 1.134.341h2.294v1.972h-2.423c-1.237 0-2.122-.28-2.654-.841-.516-.561-.774-1.446-.774-2.655V25.15ZM98.574 23.02c1.598 0 2.887.492 3.866 1.473.979.981 1.469 2.523 1.469 4.626v7.466h-2.113V29.25c0-1.385-.31-2.436-.928-3.155-.619-.736-1.503-1.104-2.655-1.104-1.22 0-2.19.438-2.912 1.315-.704.876-1.057 2.068-1.057 3.575v6.703h-2.113V18.184h2.113v7.203c.43-.701.997-1.27 1.701-1.709.722-.438 1.598-.657 2.63-.657ZM105.715 29.882c0-1.367.258-2.568.773-3.602.533-1.034 1.272-1.83 2.217-2.392.945-.578 2.027-.867 3.247-.867 1.202 0 2.268.254 3.196.762.927.508 1.658 1.244 2.19 2.208.533.964.816 2.094.851 3.391 0 .193-.018.5-.052.92h-10.206v.184c.035 1.315.43 2.366 1.186 3.155.756.788 1.744 1.183 2.964 1.183.945 0 1.744-.237 2.397-.71.67-.49 1.116-1.165 1.34-2.024h2.139c-.258 1.367-.902 2.488-1.933 3.364-1.031.86-2.294 1.288-3.789 1.288-1.306 0-2.448-.28-3.427-.84a6.037 6.037 0 0 1-2.294-2.419c-.533-1.051-.799-2.252-.799-3.601Zm10.283-1.367c-.103-1.14-.524-2.024-1.263-2.655-.721-.631-1.641-.947-2.757-.947-.997 0-1.873.333-2.629 1-.756.665-1.186 1.533-1.289 2.602h7.938ZM126.851 23.178v2.104h-1.056c-1.255 0-2.157.429-2.707 1.288-.532.858-.798 1.918-.798 3.18v6.835h-2.114V23.178h1.83l.284 2.025a4.406 4.406 0 0 1 1.469-1.472c.601-.369 1.434-.553 2.5-.553h.592ZM148.377 34.613v1.972h-1.161c-.842 0-1.443-.175-1.804-.526-.36-.35-.549-.867-.567-1.55-1.013 1.489-2.482 2.233-4.407 2.233-1.46 0-2.637-.35-3.53-1.05-.877-.702-1.315-1.657-1.315-2.866 0-1.35.447-2.384 1.34-3.102.911-.718 2.225-1.078 3.943-1.078h3.866v-.92c0-.876-.292-1.56-.876-2.05-.567-.49-1.366-.736-2.397-.736-.91 0-1.666.21-2.268.63a2.517 2.517 0 0 0-1.082 1.63h-2.113c.154-1.314.721-2.34 1.701-3.075.996-.736 2.285-1.104 3.865-1.104 1.684 0 2.981.42 3.892 1.262.927.823 1.392 2.015 1.392 3.575v5.783c0 .648.291.972.876.972h.645Zm-3.635-4.153h-4.072c-1.958 0-2.938.745-2.938 2.234 0 .666.258 1.2.774 1.604.515.403 1.211.605 2.087.605 1.289 0 2.302-.342 3.041-1.026.739-.7 1.108-1.62 1.108-2.76v-.657ZM150.634 18c.395 0 .722.131.979.394.258.263.387.596.387 1 0 .402-.129.735-.387.998-.257.263-.584.394-.979.394s-.722-.131-.979-.394c-.258-.263-.387-.596-.387-.999s.129-.736.387-.999c.257-.263.584-.394.979-.394Zm-1.057 5.178h2.113v13.407h-2.113V23.178ZM131.461 34.544a2.033 2.033 0 0 1-2.025 2.04 2.034 2.034 0 0 1-2.026-2.04c0-1.128.907-2.042 2.026-2.042 1.118 0 2.025.914 2.025 2.042Z"></path></svg>