<svg viewBox="0 0 180 56" fill="currentColor" class="Icon_logotype__QxI2T color_primary__jHBCr" aria-hidden="true" role="img" focusable="false" style="--Logotype-width: 150px;"><path d="M51.1294 35.0449H51.4609V41H50.4859C44.1484 41 40.4825 37.3997 40.4825 31.503V28.4671L42.5495 27.9416C43.1539 27.7859 43.6999 27.4746 44.1289 27.0269C44.5579 26.5793 44.8504 26.015 44.9869 25.4117C45.1234 24.8084 45.0649 24.1662 44.8504 23.5823C44.6359 22.9985 44.2654 22.4925 43.7779 22.1033C43.2905 21.7141 42.7055 21.4805 42.0815 21.4222C41.4575 21.3638 40.8335 21.4611 40.2875 21.7335C39.722 22.006 39.254 22.4341 38.9225 22.9596C38.591 23.485 38.4155 24.0883 38.4155 24.7111V37.6916H32V24.497C32 24.1078 32.0195 23.6991 32.078 23.3099C32.6825 18.6198 36.7775 15 41.7305 15C46.2349 15 50.0179 17.9775 51.1294 22.0254C51.7144 24.1467 51.5194 26.4042 50.6029 28.4087C49.8229 30.1018 48.5554 31.5225 46.9759 32.4955C47.5219 34.6557 48.6334 35.0449 51.1294 35.0449ZM67.0023 23.6018V27.241H66.3978C65.1498 27.241 64.1749 27.5913 63.4729 28.2725C62.7709 28.9536 62.4199 29.8877 62.4199 31.0749V37.6332H58.8904V23.8159H62.4199V25.6063C63.4729 24.2635 64.7989 23.6018 66.3978 23.6018H67.0023ZM82.1538 32.009H71.4483C71.6628 32.8458 72.1698 33.5853 72.8718 34.0913C73.6128 34.6168 74.5098 34.8892 75.4068 34.8503C76.1673 34.8503 76.9278 34.6946 77.6103 34.3638C78.2343 34.0913 78.7803 33.6632 79.1898 33.1377L81.5493 35.2006C80.8083 36.0763 79.8723 36.7769 78.8193 37.244C77.7078 37.7305 76.4988 37.9835 75.2703 37.9641C73.9053 37.9835 72.5403 37.6527 71.3313 37.0105C70.1808 36.4072 69.2448 35.4925 68.5818 34.3832C67.9383 33.2545 67.5873 31.9895 67.5873 30.7051C67.5873 29.4207 67.9188 28.1362 68.5428 27.0075C69.1668 25.9177 70.0833 25.0225 71.1948 24.4192C72.3453 23.7964 73.6323 23.4656 74.9388 23.485C77.0058 23.485 78.7413 24.1662 80.1258 25.5479C81.5103 26.9296 82.2123 28.6617 82.2123 30.744C82.2513 31.1722 82.2123 31.5808 82.1538 32.009ZM77.1813 27.3578C76.5378 26.8518 75.7578 26.5793 74.9388 26.5793C74.1198 26.5793 73.3398 26.8518 72.6963 27.3578C72.0528 27.8832 71.6043 28.6228 71.4093 29.4207H78.4683C78.2928 28.6033 77.8248 27.8832 77.1813 27.3578ZM104.852 24.9057C105.788 25.8398 106.275 27.0853 106.275 28.6617V37.6527H102.746V29.7126C102.746 28.8563 102.492 28.1946 102.005 27.6886C101.517 27.1826 100.854 26.9296 100.035 26.9296C99.1772 26.9296 98.4752 27.1826 97.9292 27.7081C97.3832 28.2335 97.1297 28.9147 97.1297 29.771V37.6527H93.6002V29.7126C93.6002 28.8757 93.3467 28.1946 92.8592 27.6886C92.3522 27.1826 91.6892 26.9296 90.8702 26.9296C90.4802 26.9102 90.1097 26.9686 89.7392 27.1048C89.3882 27.241 89.0567 27.4551 88.7642 27.7081C88.4912 27.9805 88.2767 28.2919 88.1402 28.6617C88.0037 29.012 87.9452 29.4012 87.9452 29.771V37.6527H84.4158V23.8353H87.9647V25.256C88.9982 24.0883 90.3632 23.5045 92.0597 23.5045C92.9567 23.485 93.8342 23.6796 94.6337 24.0883C95.3747 24.4775 95.9792 25.0419 96.4082 25.7425C97.5587 24.244 99.1187 23.485 101.108 23.485C102.668 23.5045 103.916 23.9716 104.852 24.9057ZM123.143 30.7246C123.143 32.7874 122.441 34.5 121.017 35.8817C119.594 37.2635 117.839 37.9641 115.713 37.9446C113.607 37.9446 111.833 37.244 110.409 35.8623C108.986 34.4805 108.264 32.768 108.264 30.7051C108.264 28.6422 108.986 26.9296 110.409 25.5479C111.833 24.1662 113.607 23.4656 115.713 23.4656C117.819 23.4656 119.594 24.1662 121.017 25.5479C122.441 26.9491 123.162 28.6811 123.143 30.7246ZM118.443 33.4686C119.126 32.729 119.516 31.756 119.516 30.744C119.516 29.732 119.126 28.759 118.443 28.0195C118.092 27.6692 117.663 27.3772 117.195 27.1826C116.727 26.988 116.24 26.8907 115.733 26.8907C115.226 26.8907 114.738 26.988 114.27 27.1826C113.802 27.3772 113.373 27.6497 113.022 28.0195C112.32 28.759 111.93 29.732 111.93 30.744C111.93 31.756 112.32 32.729 113.022 33.4686C113.744 34.1692 114.719 34.5584 115.733 34.5584C116.747 34.5389 117.722 34.1497 118.443 33.4686ZM129.597 27.0464V32.7874C129.597 33.9746 130.241 34.5584 131.508 34.5584C132.132 34.5389 132.756 34.3832 133.322 34.0913V37.3802C132.522 37.7889 131.645 38.003 130.748 37.9835C129.207 37.9835 128.037 37.5749 127.257 36.7575C126.477 35.9401 126.087 34.8114 126.087 33.3713V27.0659H123.884V23.8548H126.087V21.5584L129.617 20.3518V23.8548H133.341V27.0659H129.597V27.0464ZM148.921 32.009H138.216C138.431 32.8458 138.938 33.5853 139.64 34.0913C140.381 34.6168 141.278 34.8892 142.175 34.8503C142.935 34.8503 143.695 34.6946 144.378 34.3638C145.002 34.0913 145.548 33.6632 145.977 33.1377L148.336 35.2006C147.595 36.0763 146.659 36.7769 145.606 37.244C144.495 37.7305 143.286 37.9835 142.058 37.9641C140.693 37.9835 139.328 37.6527 138.119 37.0105C136.968 36.4072 136.032 35.4925 135.369 34.3832C134.726 33.2545 134.375 31.9895 134.375 30.7051C134.375 29.4207 134.706 28.1362 135.33 27.0075C135.954 25.9177 136.871 25.0225 137.982 24.4192C139.133 23.7964 140.42 23.4656 141.726 23.485C143.793 23.485 145.528 24.1662 146.913 25.5479C148.297 26.9296 148.999 28.6617 148.999 30.744C148.999 31.1722 148.98 31.6003 148.921 32.009ZM143.949 27.3578C143.305 26.8518 142.526 26.5793 141.707 26.5793C140.888 26.5793 140.108 26.8518 139.464 27.3578C138.821 27.8832 138.372 28.6228 138.177 29.4207H145.236C145.06 28.6033 144.592 27.8832 143.949 27.3578Z"></path></svg>