<svg viewBox="0 0 180 56" fill="currentColor" class="Icon_logotype__QxI2T color_primary__jHBCr" aria-hidden="true" role="img" focusable="false" style="--Logotype-width: 150px;"><path d="M57.524 53.742V41.398l.256-.257h2.56l.256.257v12.344L60.34 54h-2.56l-.256-.258ZM57.524 17.6V5.258L57.78 5h2.56l.256.257v12.344l-.256.257h-2.56l-.256-.257ZM46.395 44.844h-.362l-1.81-1.82v-.363l4.227-4.245 1.916.001.258.257v1.925l-4.229 4.245ZM46.394 14.156h-.362l-1.81 1.82v.363l4.226 4.245 1.917-.001.257-.257v-1.925l-4.228-4.245ZM30.256 27.957h17.409l.256.257v2.572l-.256.257H30.256L30 30.786v-2.572l.256-.257ZM133.358 27.957h16.386l.256.257v2.572l-.256.257h-17.409l-.256-.257 1.023-2.572.256-.257ZM79.7 30.598l-.256.257h-7.941l-.257.258c0 .514.513 2.058 2.562 2.058.769 0 1.537-.258 1.793-.772l.256-.258h3.075l.256.258c-.257 1.543-1.537 3.86-5.38 3.86-4.355 0-6.405-3.088-6.405-6.69 0-3.602 2.05-6.69 6.149-6.69 4.1 0 6.148 3.088 6.148 6.69v1.03-.001Zm-3.843-2.574c0-.257-.256-2.058-2.305-2.058-2.05 0-2.306 1.801-2.306 2.058l.257.258H75.6l.256-.258ZM86.873 32.141c0 .515.256.773.769.773h2.305l.256.257v2.573l-.256.258h-2.305c-2.306 0-4.355-1.03-4.355-3.86V26.48l-.256-.258h-1.793l-.257-.257v-2.573l.257-.258h1.793l.256-.257v-2.316l.256-.257h3.075l.256.257v2.316l.256.257h2.818l.256.258v2.573l-.256.258H87.13l-.256.257v5.661h-.001ZM96.351 36.002h-3.074l-.257-.258V18.246l.257-.257h3.074l.256.257v17.498l-.256.258ZM103.267 21.077h-3.074l-.256-.258v-2.573l.256-.257h3.074l.257.257v2.573l-.257.258Zm0 14.925h-3.074l-.256-.258V23.393l.256-.258h3.074l.257.258v12.351l-.257.258ZM115.307 18.246v2.573l-.256.258h-2.306c-.512 0-.769.257-.769.772v1.03l.257.257h2.562l.256.258v2.573l-.256.257h-2.562l-.257.258v9.263l-.256.257h-3.074l-.256-.257v-9.263l-.257-.258h-1.792l-.257-.257v-2.573l.257-.258h1.792l.257-.257v-1.03c0-2.83 2.049-3.86 4.354-3.86h2.306l.256.257h.001ZM124.785 36.259c-1.025 2.573-2.049 4.117-5.636 4.117h-1.281l-.256-.258v-2.573l.256-.257h1.281c1.281 0 1.537-.258 1.793-1.03v-.257l-4.098-10.036v-2.573l.256-.258h2.305l.257.258 3.074 8.75h.256l3.075-8.75.256-.258h2.305l.256.258v2.573l-4.098 10.293-.001.001ZM61.747 36.002l-.256-.258.001-7.456c0-1.286-.503-2.283-2.049-2.316a40.042 40.042 0 0 0-2.675.04l-.146.15.002 9.582-.256.258h-3.073l-.257-.258v-12.49l.257-.257 6.916-.063c3.465 0 4.867 2.392 4.867 5.091v7.72l-.256.257h-3.075Z"></path></svg>