<svg fill="currentColor" viewBox="0 0 180 56" class="Icon_logotype__QxI2T color_primary__jHBCr" aria-hidden="true" role="img" focusable="false" style="--Logotype-width: 150px;"><path d="M109.003 38a1.328 1.328 0 0 1-.946-.397 1.357 1.357 0 0 1-.392-.958v-25.29a1.374 1.374 0 0 1 .392-.958 1.338 1.338 0 0 1 .946-.397 1.322 1.322 0 0 1 .947.397 1.373 1.373 0 0 1 .392.958v25.29a1.375 1.375 0 0 1-.392.958 1.34 1.34 0 0 1-.947.397Zm22.885-3.55a1.359 1.359 0 0 0 .314-.986 1.366 1.366 0 0 0-.468-.923 1.335 1.335 0 0 0-.975-.317 1.329 1.329 0 0 0-.911.473c-1.382 1.648-3.452 2.593-5.679 2.593-3.689 0-6.691-3.039-6.691-6.774s3.002-6.774 6.691-6.774c2.997 0 5.502 2.181 6.045 5.058h-8.187a1.328 1.328 0 0 0-.946.397 1.356 1.356 0 0 0-.392.958 1.374 1.374 0 0 0 .392.958 1.336 1.336 0 0 0 .946.397h9.635a1.32 1.32 0 0 0 .946-.397 1.356 1.356 0 0 0 .392-.958v-.18c0-4.931-3.962-8.943-8.832-8.943-5.165 0-9.367 4.255-9.367 9.484 0 5.23 4.203 9.484 9.368 9.484 3.013 0 5.827-1.294 7.719-3.55Zm-28.683 2.195v-8.671c0-4.931-3.962-8.942-8.832-8.942-5.165 0-9.367 4.254-9.367 9.484S89.208 38 94.373 38a1.324 1.324 0 0 0 .947-.397 1.357 1.357 0 0 0 .391-.958 1.369 1.369 0 0 0-.391-.958 1.334 1.334 0 0 0-.947-.397c-3.689 0-6.69-3.039-6.69-6.774s3.001-6.774 6.69-6.774c3.394 0 6.156 2.796 6.156 6.233v8.67a1.355 1.355 0 0 0 .826 1.252 1.323 1.323 0 0 0 1.458-.294c.251-.254.392-.599.392-.958ZM62.7 32.58c0-1.322-.48-3.125-2.765-4.21-1.371-.65-3.092-.917-4.756-1.175-3.898-.605-5.282-1.11-5.282-2.744 0-1.778 2.436-2.71 4.843-2.71 1.516 0 3.696.31 5.468 1.786a1.332 1.332 0 0 0 .98.302 1.327 1.327 0 0 0 .904-.488 1.361 1.361 0 0 0 .298-.992 1.368 1.368 0 0 0-.482-.915c-2.384-1.986-5.214-2.403-7.168-2.403-5.166 0-7.52 2.81-7.52 5.42 0 1.33.482 3.146 2.776 4.238 1.38.656 3.107.924 4.778 1.183 3.875.602 5.25 1.101 5.25 2.708 0 1.62-1.91 2.71-4.754 2.71-2.911 0-5.13-1.196-6.193-1.909a1.325 1.325 0 0 0-1.855.382 1.364 1.364 0 0 0 .378 1.878C49.868 37.162 52.592 38 55.269 38c5.134 0 7.431-2.722 7.431-5.42ZM82.102 34a1.369 1.369 0 0 0-.374-1.877 1.325 1.325 0 0 0-1.855.378 6.128 6.128 0 0 1-5.13 2.789c-3.689 0-6.69-3.04-6.69-6.774 0-3.735 3.001-6.774 6.69-6.774a6.128 6.128 0 0 1 5.13 2.789 1.346 1.346 0 0 0 .85.578 1.32 1.32 0 0 0 1.005-.2 1.346 1.346 0 0 0 .572-.86 1.371 1.371 0 0 0-.198-1.018c-1.643-2.504-4.395-4-7.359-4-5.165 0-9.367 4.255-9.367 9.485 0 5.23 4.202 9.484 9.367 9.484 2.965 0 5.716-1.495 7.36-4Z"></path></svg>