<svg viewBox="0 0 180 56" fill="currentColor" class="Icon_logotype__QxI2T color_primary__jHBCr" style="--Logotype-width:150px" aria-hidden="true" role="img" focusable="false"><path d="M88.41 22.601h1.078v2.242h-1.395c-1.093 0-1.907.266-2.446.797-.538.532-.808 1.404-.808 2.617v7.348h-2.202V22.651h2.202v2.067c0 .116.058.175.172.175.064 0 .113-.016.147-.05a.551.551 0 0 0 .098-.2c.424-1.36 1.476-2.042 3.156-2.042h-.002Zm14.382 2.777c.578 1.038.869 2.288.869 3.75 0 1.46-.289 2.71-.869 3.748-.58 1.038-1.329 1.814-2.251 2.33a5.989 5.989 0 0 1-2.972.772c-2.088 0-3.556-.847-4.403-2.542-.065-.132-.148-.2-.246-.2s-.147.05-.147.15v6.951h-2.201V22.651h2.201v2.217c0 .1.05.15.147.15.098 0 .18-.066.246-.2.847-1.694 2.315-2.542 4.403-2.542 1.06 0 2.05.257 2.972.773.922.515 1.671 1.291 2.251 2.33Zm-1.333 3.75c0-1.53-.403-2.72-1.21-3.575-.808-.855-1.87-1.283-3.193-1.283s-2.386.428-3.193 1.283c-.808.856-1.104 2.047-1.104 3.574 0 1.527.296 2.72 1.104 3.575.807.856 1.872 1.282 3.193 1.282 1.32 0 2.385-.428 3.193-1.282.807-.855 1.21-2.048 1.21-3.575Zm-35.046-3.73c.578 1.038.869 2.288.869 3.749 0 1.46-.289 2.71-.87 3.749-.579 1.038-1.329 1.814-2.25 2.33a5.993 5.993 0 0 1-2.972.772c-2.088 0-3.556-.848-4.403-2.542-.065-.132-.147-.2-.245-.2-.099 0-.148.05-.148.15v6.95h-2.2V22.672h2.202v2.217c0 .1.049.15.147.15.098 0 .179-.067.245-.2.848-1.695 2.316-2.542 4.404-2.542 1.06 0 2.05.257 2.972.772.921.516 1.671 1.292 2.25 2.33h-.001Zm-1.333 3.749c0-1.529-.403-2.72-1.21-3.574-.808-.855-1.87-1.283-3.193-1.283-1.322 0-2.386.428-3.193 1.283-.808.856-1.104 2.047-1.104 3.574 0 1.527.296 2.72 1.104 3.574.807.856 1.87 1.283 3.193 1.283 1.322 0 2.385-.428 3.193-1.283.807-.854 1.21-2.047 1.21-3.574Zm13.504 2.345h2.324c-.31 1.213-.942 2.264-1.895 3.152-.954.888-2.32 1.332-4.098 1.332-1.338 0-2.515-.278-3.535-.835a5.768 5.768 0 0 1-2.36-2.379c-.556-1.029-.833-2.242-.833-3.637 0-1.394.27-2.607.808-3.636.537-1.03 1.292-1.823 2.263-2.38.97-.556 2.107-.834 3.412-.834 1.305 0 2.385.274 3.29.822.906.547 1.582 1.275 2.03 2.18.45.905.673 1.897.673 2.976v1.495H70.512c.08 1.295.51 2.326 1.283 3.09.775.762 1.815 1.146 3.12 1.146 1.06 0 1.872-.22 2.434-.66.563-.44.974-1.05 1.235-1.832Zm-8.048-3.611h7.682c0-1.13-.285-2.014-.856-2.654-.571-.639-1.468-.96-2.69-.96-1.142 0-2.076.312-2.801.934-.725.623-1.17 1.517-1.333 2.678l-.002.002Zm34.868 7.722h2.201V17.668h-2.201v17.937-.002Zm30.548-14.366h2.571v-2.804h-2.571v2.804Zm9.071 12.437c-.4.04-.641.062-.722.062a.364.364 0 0 1-.27-.1.378.378 0 0 1-.098-.275c0-.082.021-.328.062-.734.04-.407.061-1.035.061-1.88v-6.198h3.14l-.618-1.898h-2.52v-3.489h-2.202v3.487h-2.394v1.898h2.394v6.82c0 1.429.343 2.492 1.028 3.19.685.697 1.729 1.046 3.132 1.046h1.713v-1.992h-.857c-.832 0-1.448.022-1.847.063h-.002Zm12.882-11.025-3.645 10.87c-.049.133-.126.308-.376.308-.251 0-.328-.175-.377-.309l-3.645-10.869h-2.245l4.221 12.954h1.492c.098 0 .172.01.221.025.049.016.089.057.123.125.064.1.055.25-.025.448l-.685 1.892c-.098.25-.285.375-.562.375-.098 0-.326-.022-.685-.063a12.714 12.714 0 0 0-1.394-.062h-1.787v1.992h2.349c1.37 0 2.195-.237 2.904-.71.709-.472 1.26-1.307 1.652-2.504L160 23.145v-.498h-2.095v.002Zm-29.145 4.834-3.449-4.834h-2.422v.498l4.133 5.606-5.039 6.353v.497h2.472l4.012-5.206 3.743 5.206h2.374v-.497l-4.379-5.979 4.747-5.953v-.523h-2.472l-3.718 4.834-.002-.002Zm7.427 8.12h2.201V22.651h-2.201v12.954-.002Zm-14.104-4.11c-.31 1.212-.942 2.263-1.895 3.15-.954.889-2.321 1.333-4.098 1.333-1.339 0-2.516-.278-3.535-.835a5.768 5.768 0 0 1-2.361-2.379c-.555-1.029-.832-2.242-.832-3.637 0-1.394.27-2.607.808-3.636.537-1.03 1.292-1.823 2.262-2.38.971-.556 2.108-.834 3.412-.834 1.305 0 2.386.274 3.291.822.906.547 1.582 1.275 2.03 2.18.449.905.673 1.897.673 2.976v1.495h-10.152c.081 1.295.51 2.326 1.284 3.09.774.762 1.815 1.146 3.12 1.146 1.059 0 1.872-.22 2.434-.66.562-.44.974-1.05 1.235-1.832h2.324Zm-10.372-3.612h7.682c0-1.13-.286-2.014-.857-2.654-.571-.639-1.467-.96-2.69-.96-1.142 0-2.076.312-2.801.934-.725.623-1.17 1.517-1.332 2.678l-.002.002ZM42.749 13l-9.383 8.84v-8.462h-1.518v8.214L22.729 13v9.579H19V36.38h3.74V45l9.108-8.204v8.018h1.518v-8.009L42.464 45v-8.507h3.795V22.692h-3.51V13Zm-8.093 11.225h10.085V34.96h-2.277v-3.481l-7.808-7.253Zm6.29 8.03v9.323l-7.58-6.828v-9.535l7.58 7.04ZM30.67 22.58h-6.423v-6.052l6.423 6.052Zm-.01 1.533-7.922 7.357v3.378h-2.22V24.112H30.66Zm-6.403 8.039 7.58-7.041v9.64l-7.58 6.828v-9.427Zm16.974-15.624v6.052h-6.423l6.423-6.052Z"></path></svg>