<svg viewBox="0 0 180 56" fill="currentColor" class="Icon_logotype__QxI2T color_primary__jHBCr" aria-hidden="true" role="img" focusable="false" style="--Logotype-width: 150px;"><path d="M76.728 21.209c0-.149.097-.247.243-.247h7.135c3.01 0 4.61 1.433 4.61 3.757 0 1.533-1.018 2.472-2.086 2.818 1.262.396 2.378 1.533 2.378 3.362 0 2.423-1.602 4.005-4.805 4.005h-7.232c-.146 0-.243-.1-.243-.248V21.21Zm2.573 2.027v3.411h4.514c1.504 0 2.232-.593 2.232-1.73 0-1.187-.776-1.73-2.232-1.73H79.3v.049Zm0 5.636v3.856h4.61c1.7 0 2.476-.692 2.476-1.928 0-1.285-.825-1.928-2.475-1.928H79.3Zm12.91-.89c0-4.202 3.107-7.218 7.184-7.218s7.183 3.016 7.183 7.218c0 4.153-3.106 7.218-7.183 7.218-4.126 0-7.183-3.016-7.183-7.218Zm11.746 0c0-2.67-1.796-4.796-4.514-4.796s-4.513 2.176-4.513 4.796c0 2.72 1.795 4.796 4.513 4.796 2.67.05 4.514-2.126 4.514-4.796Zm5.922 0c0-4.202 3.106-7.218 7.183-7.218s7.184 3.016 7.184 7.218c0 4.153-3.107 7.218-7.184 7.218-4.125 0-7.183-3.016-7.183-7.218Zm11.746 0c0-2.67-1.796-4.796-4.514-4.796s-4.514 2.176-4.514 4.796c0 2.72 1.796 4.796 4.514 4.796 2.669.05 4.514-2.126 4.514-4.796Zm14.512 3.214 4.077-10.037c.049-.099.097-.148.194-.148h3.349c.146 0 .243.099.243.247v13.497c0 .149-.097.248-.243.248h-2.087c-.145 0-.242-.1-.242-.248V23.532l-4.563 11.372c-.048.099-.097.148-.194.148h-1.456c-.097 0-.194-.05-.194-.148l-4.514-11.273v11.124c0 .149-.097.248-.243.248h-1.941c-.146 0-.243-.1-.243-.248V21.258c0-.148.097-.247.243-.247h3.494c.097 0 .194.05.194.148l4.126 10.037ZM66.293 28.03a.674.674 0 0 0-.777-.593l-7.863 1.088 8.106-3.461c.388-.148.582-.643.437-1.038-.146-.396-.631-.594-1.02-.445l-6.31 2.719 6.117-4.796c.388-.296.436-.84.145-1.236-.291-.395-.825-.445-1.213-.148l-5.097 4.005 4.417-5.933a.97.97 0 0 0-.194-1.335.929.929 0 0 0-1.31.198l-3.64 4.894 2.717-6.526c.194-.494 0-1.038-.485-1.285-.485-.198-1.02 0-1.262.494l-5.29 12.607c-.486 1.138-1.65 1.929-2.961 1.929-1.262 0-2.281-.742-2.815-1.88l-5.68-13.1c-.048-.15-.242-.248-.387-.15-.146.05-.243.248-.146.396l5.048 11.57-7.038-9.246c-.146-.148-.388-.198-.534-.05-.146.149-.194.396-.048.544l7.037 9.246-8.348-6.477a.455.455 0 0 0-.63.099.475.475 0 0 0 .096.643l8.688 6.773-9.222-3.807c-.29-.099-.582 0-.728.297-.097.296 0 .593.291.741l9.66 4.005-9.368-1.236c-.34-.05-.631.198-.68.544a.613.613 0 0 0 .534.692l9.853 1.285-8.834 1.236c-.388.05-.63.396-.582.792a.674.674 0 0 0 .777.593l9.173-1.286-7.62 3.264c-.389.148-.583.642-.437 1.038.146.395.63.593 1.02.445l8.105-3.461-6.116 4.845c-.388.297-.437.84-.145 1.236.29.396.825.445 1.213.148l6.358-4.993-4.222 5.636a.97.97 0 0 0 .194 1.335.929.929 0 0 0 1.31-.198l3.932-5.29-2.184 5.24c-.195.495 0 1.039.485 1.286.485.198 1.02 0 1.262-.494l1.699-4.104 1.892 4.4c.049.149.243.248.389.149.145-.05.242-.247.145-.396l-2.135-4.944.63-1.483 4.272 5.636c.146.148.388.198.534.05.145-.149.194-.396.048-.544l-4.562-5.983.34-.89 6.843 5.34a.455.455 0 0 0 .631-.099.475.475 0 0 0-.097-.642l-7.038-5.488.146-.346 9.028 3.757c.291.099.582 0 .728-.297.097-.296 0-.593-.291-.741l-8.64-3.56 10.047 1.335c.34.05.631-.198.68-.544a.613.613 0 0 0-.534-.692l-8.494-1.088 9.319-1.285c.388-.198.68-.544.631-.94Z"></path></svg>