<svg viewBox="0 0 180 56" fill="currentColor" class="Icon_logotype__QxI2T color_primary__jHBCr" style="--Logotype-width:150px" aria-hidden="true" role="img" focusable="false"><path d="M38 37.52V19.48h4.645v2.418a5.254 5.254 0 0 1 1.993-2.077 5.018 5.018 0 0 1 2.751-.678 5.171 5.171 0 0 1 2.817.733 5.418 5.418 0 0 1 2.023 2.158c1.82-1.984 3.216-2.89 5.394-2.89 3.93 0 6.14 2.282 6.14 6.484V37.52h-5.004v-9.775c0-2.52-.519-3.663-2.436-3.663-1.949 0-2.989 1.243-2.989 3.663v9.775H48.3v-9.775c0-2.52-.52-3.663-2.437-3.663-1.949 0-2.989 1.243-2.989 3.663v9.775H38Zm31.688-15.69a9.125 9.125 0 0 1 4.678-2.628 8.92 8.92 0 0 1 5.302.49 9.277 9.277 0 0 1 4.155 3.446 9.77 9.77 0 0 1 1.62 5.249 9.474 9.474 0 0 1-.635 3.676 9.218 9.218 0 0 1-1.996 3.111 9.037 9.037 0 0 1-3.032 2.12 8.775 8.775 0 0 1-3.596.703 8.37 8.37 0 0 1-3.6-.704 8.636 8.636 0 0 1-2.994-2.187c-1.668-1.781-2.59-4.172-2.567-6.653a9.527 9.527 0 0 1 .686-3.59 9.266 9.266 0 0 1 1.979-3.033Zm6.53 11.123c.859.038 1.71-.192 2.442-.659a4.418 4.418 0 0 0 1.668-1.961 4.589 4.589 0 0 0-.083-3.846 4.42 4.42 0 0 0-1.217-1.518 4.234 4.234 0 0 0-1.73-.826 4.176 4.176 0 0 0-2.515.229 4.346 4.346 0 0 0-1.96 1.646 4.567 4.567 0 0 0-.731 2.5c-.01.572.088 1.14.29 1.672.2.532.502 1.018.885 1.43.383.412.84.742 1.347.97a4.084 4.084 0 0 0 1.603.363Zm12.488 4.567V19.48h4.872l-.064 2.419a5.51 5.51 0 0 1 2.127-2.108 5.27 5.27 0 0 1 2.876-.647c3.606 0 5.944 2.351 5.944 6.484V37.52h-5.132v-9.775c0-2.52-.52-3.663-2.502-3.663-2.014 0-3.086 1.243-3.086 3.663v9.775h-5.035Zm37.536-15.692a9.123 9.123 0 0 1 4.679-2.63 8.92 8.92 0 0 1 5.304.49 9.272 9.272 0 0 1 4.155 3.446 9.763 9.763 0 0 1 1.617 5.25 9.498 9.498 0 0 1-.635 3.676 9.224 9.224 0 0 1-1.996 3.111 9.043 9.043 0 0 1-3.033 2.12 8.786 8.786 0 0 1-3.595.703 8.373 8.373 0 0 1-3.601-.704 8.65 8.65 0 0 1-2.994-2.187c-1.668-1.781-2.59-4.171-2.567-6.652a9.532 9.532 0 0 1 .686-3.59 9.26 9.26 0 0 1 1.978-3.033h.002Zm6.53 11.123a4.198 4.198 0 0 0 2.443-.66 4.42 4.42 0 0 0 1.668-1.961 4.6 4.6 0 0 0 .317-2.591 4.51 4.51 0 0 0-1.141-2.33 4.27 4.27 0 0 0-2.207-1.27 4.17 4.17 0 0 0-2.515.23 4.346 4.346 0 0 0-1.959 1.647 4.573 4.573 0 0 0-.731 2.5c-.01.572.088 1.14.29 1.672.201.532.502 1.018.885 1.43.383.412.841.741 1.347.97a4.085 4.085 0 0 0 1.603.363Zm-24.57 4.57v-3.764l7.18-9.613h-7.18v-4.666h12.962v4.268l-6.335 9.106h6.465v4.667h-13.091l-.001.001Z"></path></svg>