<svg viewBox="0 0 180 56" fill="currentColor" class="Icon_logotype__QxI2T color_primary__jHBCr" aria-hidden="true" role="img" focusable="false" style="--Logotype-width: 150px;"><path d="M91.907 24.868H89.03v2.109h2.876v-2.109Zm1.39 9.411-1.39-1.395V28.93H89.03v2.109h1.02v3.256h-7.419v-3.256h1.391v-6.17h-1.39v-3.257H95.06l2.071 2.109v2.636l-1.855 1.364 1.855 1.395v2.372h1.175v2.791h-5.008Zm3.865-23.023v6.62l-2.782 2.79h-7.574l-2.783-2.79v-6.62h-1.39V8h7.635v3.256h-1.206v6.17h4.251v-6.17h-1.035V8h6.059v3.256h-1.19m8.579 0v2.17h4.266v-2.17h-4.266Zm7.265 4.387h-7.265v1.752h1.344v3.256h-7.76v-3.256h1.392v-6.14h-1.391V8h13.448L115 10.17v3.473l-2.009 1.985m-.835 18.651h-9.553l-3.292-3.256v-6.17l3.292-3.256h7.528l.927 1.194.928-1.179H115v5.334h-3.942v-2.093h-6.615v6.201h6.615V28.93H115v2.558l-2.844 2.791Zm-15.21 13.674H82.632v-3.255h1.391v-6.155h-1.39v-3.256h7.79v3.256H89.03v6.17h5.38V40.62h3.926v5.83l-1.391 1.503Zm16.663 0H99.295v-3.255h1.361v-6.155h-1.36v-3.256h7.759v3.256h-1.391v6.17h5.41V40.62H115v5.83l-1.391 1.503ZM79.232 20.667h-8.75l-1.035-1.117-.927 1.117H66V16.79h3.524v1.085h6.6v-1.814h-7.852L66 13.938v-3.1L68.628 8h7.852l1.036 1.116L78.443 8h2.52v3.876h-3.555v-1.085h-5.936v1.83h7.667l2.566 2.433V18l-2.474 2.667Zm1.05 13.612H66v-3.256h1.391V24.9H66v-3.256h14.283l1.39 1.55v4.342l-3.925.03V24.9h-5.349v1.86h2.319v2.357h-2.319v1.923h5.349v-2.636h3.926v4.341l-1.391 1.55m0 13.644H66v-3.256h1.391v-6.14H66v-3.255h14.283l1.39 1.55v4.341h-3.925v-2.635h-5.349v1.907h2.319v2.325h-2.319v1.97h5.349v-2.636h3.926v4.34L80.283 48"></path></svg>