<svg viewBox="0 0 180 54" fill="currentColor" class="Icon_logotype__QxI2T color_primary__jHBCr" aria-hidden="true" role="img" focusable="false" style="--Logotype-width: 150px;"><path d="M28.382 43.534c8.552-.127 15.445-7.077 15.445-15.633 0-8.635-7.022-15.634-15.684-15.634-8.662 0-15.685 7-15.685 15.634 0 8.636 7.023 15.635 15.685 15.635H28.246c.046 0 .09 0 .136-.002ZM15.184 27.901c0-.41.02-.817.057-1.218.171-.18.328-.353.478-.518l.002-.002c.554-.61 1.014-1.117 1.762-1.504.567-.293 1.357-.528 2.534-.492a29.384 29.384 0 0 0-.238 3.763c0 4.099.825 7.876 2.223 10.68.158.316.326.626.505.926-4.334-2.09-7.323-6.514-7.323-11.635Zm5.325-6.43c-1.593-.107-2.873.134-3.938.61a12.992 12.992 0 0 1 5.984-5.837 14.15 14.15 0 0 0-.553 1.008c-.616 1.235-1.121 2.66-1.493 4.219Zm3.934-3.01c.737-1.477 1.55-2.42 2.337-2.933v8.225a9.386 9.386 0 0 0-3.577-1.828c.323-1.303.745-2.471 1.24-3.463Zm-1.734 6.15c1.855.558 3.012 1.692 4.07 3.147v12.575c-.785-.513-1.6-1.456-2.336-2.934-1.173-2.353-1.938-5.699-1.938-9.469 0-1.151.071-2.263.204-3.32Zm6.797 7.136c.91 1.155 2.032 2.245 3.57 2.98a16.096 16.096 0 0 1-1.027 2.672c-.802 1.608-1.694 2.582-2.543 3.06v-8.712Zm.651-3.852-.01-.015-.264-.406a46.98 46.98 0 0 0-.377-.57V15.403c.849.477 1.741 1.452 2.543 3.059 1.173 2.353 1.938 5.699 1.938 9.468 0 1.416-.108 2.77-.304 4.037-1.464-.9-2.394-2.33-3.526-4.072Zm6.126 5.053c.28-1.58.43-3.27.43-5.018 0-4.098-.825-7.875-2.223-10.678a14.35 14.35 0 0 0-.468-.864c4.202 2.136 7.08 6.49 7.08 11.513 0 1.015-.118 2.002-.34 2.948l-.036-.01a3.323 3.323 0 0 1-.195.48 3.334 3.334 0 0 1-.816 1.054c-.542.457-1.55.969-3.432.575ZM34.49 38.61c.454-.91.847-1.922 1.172-3.016 1.034.222 1.956.26 2.772.159a13.008 13.008 0 0 1-4.364 3.639 14.5 14.5 0 0 0 .42-.782ZM60.137 29.81l2.653 5.806h2.361l7.2-15.797h-3.314L63.99 31.587h-.057l-5.009-11.768h-3.352l3.142 6.875-2.38 5.533h-.038l-5.028-12.408h-3.333l7.218 15.797h2.343l2.641-5.806ZM74.997 36.105c1.943 0 3.562-.866 4.362-2.71h.038v.47c0 1.167.761 1.845 2.133 1.845h1.961v-2.335h-.476c-.61 0-.838-.225-.838-.828v-5.328c0-2.504-1.542-4.312-5.313-4.312-3.77 0-5.523 1.732-5.713 4.406h3.008c.096-1.374 1.124-2.146 2.743-2.146 1.352 0 2.4.546 2.4 1.675 0 .866-.572 1.356-1.829 1.356h-2.037c-2.495 0-4.78 1.092-4.78 3.935 0 2.598 1.904 3.972 4.341 3.972Zm4.304-5.93c0 2.58-1.694 3.633-3.409 3.633l.02.02c-1.505 0-2.153-.81-2.153-1.79 0-.978.648-1.731 2.153-1.77l.933-.037c1.295-.056 2.038-.433 2.418-1.205h.038v1.149ZM85.453 32.359v-6.722h-2.419v-2.334h2.419v-3.39h2.894v3.39h3.79v2.334h-3.79v6.308c0 1.054.553 1.468 1.505 1.468h2.342v2.335h-3.332c-2.247 0-3.428-1.111-3.428-3.37l.019-.02ZM92.898 29.516c0-4.124 2.59-6.59 6.209-6.59 3.618 0 6.037 2.128 6.037 6.119v1.28h-9.18c.096 2.128 1.295 3.521 3.219 3.521 1.39 0 2.438-.753 2.837-1.94h2.971c-.552 2.486-2.742 4.2-5.846 4.2-3.714 0-6.228-2.486-6.228-6.59h-.019Zm6.285-4.33c-1.962 0-3.01 1.355-3.2 3.087h6.266c0-1.807-1.105-3.088-3.066-3.088ZM107.144 23.302h2.818v1.958H110c.591-1.242 1.391-1.958 3.067-1.958h1.218v2.335h-1.733c-1.733 0-2.532.922-2.532 2.956v7.136h-2.876V23.302ZM114.971 31.605h2.971c.076 1.563 1.066 2.241 2.552 2.241 1.485 0 2.399-.715 2.399-1.826 0-.98-.609-1.563-2.171-1.563h-1.371c-2.628 0-4.152-1.43-4.152-3.52 0-2.373 1.943-4.011 5.237-4.011 3.295 0 5.238 1.77 5.314 4.406h-2.952c-.076-1.394-.838-2.147-2.381-2.147-1.371 0-2.209.64-2.209 1.657 0 .923.705 1.375 1.867 1.375h1.504c3.009 0 4.38 1.675 4.38 3.709 0 2.466-1.961 4.198-5.465 4.198-3.504 0-5.466-1.77-5.542-4.5l.019-.018ZM127.96 19.951h2.875v3.2c0 .566 0 .999-.038 2.053h.038c.667-1.355 1.962-2.278 3.771-2.278 2.571 0 4.342 1.77 4.342 4.782v8.02h-2.875v-7.455c0-2.222-.953-3.069-2.381-3.069s-2.857.923-2.857 3.408v7.117h-2.875V19.95ZM140.909 29.516c0-4.124 2.571-6.59 6.209-6.59 3.637 0 6.037 2.128 6.037 6.119v1.28h-9.18c.096 2.128 1.295 3.521 3.219 3.521 1.39 0 2.438-.753 2.837-1.94h2.971c-.552 2.486-2.742 4.2-5.846 4.2-3.733 0-6.228-2.486-6.228-6.59h-.019Zm6.285-4.33c-1.962 0-3.009 1.355-3.2 3.087h6.266c0-1.807-1.105-3.088-3.066-3.088ZM154.583 29.516v.018c0 4.312 2.666 6.59 5.599 6.59 1.924 0 3.447-.979 4.209-2.56h.038c-.019.47-.019.884-.019 1.336v.829h2.857V19.95h-2.876v4.274c0 .452 0 .828.038 1.261h-.038c-.762-1.581-2.285-2.56-4.209-2.56-2.933 0-5.599 2.278-5.599 6.59Zm9.808 0c0 2.617-1.257 4.33-3.352 4.33-2.114 0-3.371-1.713-3.371-4.33s1.276-4.33 3.371-4.33c2.095 0 3.352 1.712 3.352 4.33Z"></path></svg>