<svg fill="var(--red)" color="var(--red)" style="--icon-color:var(--red)" width="16" height="16" viewBox="0 0 16 16" role="img" focusable="false" aria-hidden="true" class="sc-b3132b93-0 kzIdnV"><path fill-rule="evenodd" clip-rule="evenodd" d="M12.6807 10.297C12.9925 10.0242 13.0241 9.5504 12.7513 9.23866L9.71942 5.77356C9.56569 5.59786 9.33892 5.50377 9.10596 5.51903C8.873 5.53429 8.66044 5.65716 8.53094 5.8514L6.76432 8.50133L4.37742 5.77354C4.10466 5.46182 3.63083 5.43024 3.31911 5.703C3.00739 5.97577 2.97581 6.44959 3.24857 6.76132L6.28056 10.2263C6.43429 10.402 6.66106 10.4961 6.89401 10.4808C7.12696 10.4656 7.33952 10.3427 7.46902 10.1485L9.23562 7.49855L11.6224 10.2264C11.8952 10.5381 12.369 10.5697 12.6807 10.297Z"></path></svg>