<svg xmlns="http://www.w3.org/2000/svg" width="228" height="82" fill="none" viewBox="0 0 228 82"><path fill="#57595A" d="M12.54 11.636c0 .932-.17 1.733-.512 2.404-.34.667-.808 1.182-1.402 1.542-.59.358-1.262.537-2.015.537-.756 0-1.43-.179-2.024-.537-.591-.36-1.057-.876-1.398-1.546-.341-.67-.511-1.47-.511-2.4 0-.931.17-1.731.51-2.399.342-.67.808-1.184 1.399-1.542.593-.361 1.268-.542 2.024-.542.753 0 1.425.18 2.015.542.594.358 1.062.872 1.402 1.542.341.668.512 1.467.512 2.4Zm-1.304 0c0-.71-.115-1.308-.345-1.794-.228-.488-.54-.858-.938-1.108a2.436 2.436 0 0 0-1.342-.379c-.503 0-.952.127-1.347.38-.395.25-.707.619-.937 1.107-.228.486-.341 1.084-.341 1.794s.113 1.31.34 1.799c.23.486.543.855.938 1.108.395.25.844.375 1.347.375.5 0 .947-.125 1.342-.375.398-.253.71-.622.938-1.108.23-.489.345-1.088.345-1.799Zm5.899-2.181v1.022h-3.576V9.455h3.576Zm-2.617-1.569h1.274v6.192c0 .247.037.433.111.558a.578.578 0 0 0 .286.252c.119.042.248.064.387.064.103 0 .192-.007.269-.022l.179-.034.23 1.053a2.498 2.498 0 0 1-.827.136 2.243 2.243 0 0 1-.937-.179 1.608 1.608 0 0 1-.703-.58c-.18-.26-.269-.589-.269-.984V7.886Zm5.44 4.228V16h-1.273V7.273h1.257v3.247h.08a1.88 1.88 0 0 1 .704-.84c.315-.207.727-.31 1.236-.31.448 0 .84.092 1.176.276.338.185.6.46.784.827.187.364.281.818.281 1.364V16H22.93v-4.01c0-.48-.124-.852-.37-1.116-.248-.268-.592-.401-1.032-.401-.301 0-.571.064-.81.192a1.382 1.382 0 0 0-.558.562c-.133.245-.2.54-.2.887Zm8.766 4.018c-.645 0-1.2-.138-1.666-.413a2.805 2.805 0 0 1-1.074-1.172c-.25-.506-.375-1.098-.375-1.777 0-.67.125-1.261.375-1.773.253-.511.605-.91 1.057-1.197.455-.287.986-.43 1.594-.43.37 0 .727.06 1.074.183a2.6 2.6 0 0 1 .933.575c.276.261.493.6.652 1.018.16.415.239.92.239 1.513v.452h-5.204v-.955h3.955a1.88 1.88 0 0 0-.204-.89 1.547 1.547 0 0 0-.576-.618 1.608 1.608 0 0 0-.86-.226c-.358 0-.671.088-.938.264-.264.173-.469.4-.614.682a1.969 1.969 0 0 0-.213.908v.745c0 .438.077.81.23 1.117.157.307.374.541.652.703.279.159.604.239.976.239.242 0 .462-.034.66-.103a1.37 1.37 0 0 0 .848-.831l1.207.218c-.097.355-.27.666-.52.933a2.52 2.52 0 0 1-.933.618 3.493 3.493 0 0 1-1.275.217ZM32.946 16V9.455h1.232v1.04h.068c.12-.353.33-.63.63-.832a1.805 1.805 0 0 1 1.032-.306 5.44 5.44 0 0 1 .541.03v1.218a2.292 2.292 0 0 0-.273-.047c-.13-.02-.26-.03-.392-.03-.3 0-.57.064-.805.192a1.425 1.425 0 0 0-.758 1.283V16h-1.275Zm10.837-6.545v1.022h-3.575V9.455h3.575Zm-2.617-1.569h1.275v6.192c0 .247.037.433.11.558a.579.579 0 0 0 .286.252c.12.042.249.064.388.064.102 0 .191-.007.268-.022l.18-.034.23 1.053a2.497 2.497 0 0 1-.827.136 2.243 2.243 0 0 1-.938-.179 1.608 1.608 0 0 1-.703-.58c-.179-.26-.269-.589-.269-.984V7.886Zm6.777 8.246c-.645 0-1.2-.138-1.666-.413a2.805 2.805 0 0 1-1.074-1.172c-.25-.506-.375-1.098-.375-1.777 0-.67.125-1.261.375-1.773.253-.511.605-.91 1.057-1.197.455-.287.986-.43 1.594-.43.369 0 .727.06 1.074.183.346.122.657.313.933.575.275.261.493.6.652 1.018.159.415.238.92.238 1.513v.452h-5.203v-.955h3.955a1.88 1.88 0 0 0-.205-.89 1.547 1.547 0 0 0-.575-.618 1.608 1.608 0 0 0-.86-.226c-.359 0-.671.088-.938.264-.264.173-.469.4-.614.682a1.968 1.968 0 0 0-.213.908v.745c0 .438.077.81.23 1.117.156.307.374.541.652.703.279.159.604.239.976.239.241 0 .462-.034.66-.103a1.37 1.37 0 0 0 .848-.831l1.206.218c-.096.355-.27.666-.52.933-.247.264-.558.47-.933.618a3.492 3.492 0 0 1-1.274.217Zm6.127.013c-.415 0-.79-.077-1.125-.23a1.895 1.895 0 0 1-.797-.678c-.193-.295-.29-.658-.29-1.086 0-.37.071-.674.213-.912.142-.239.334-.428.576-.567.241-.14.511-.244.81-.316.298-.07.602-.124.911-.161l.955-.111c.244-.031.422-.081.532-.15.111-.067.167-.178.167-.332v-.03c0-.372-.105-.66-.316-.865-.207-.204-.517-.306-.929-.306-.429 0-.767.095-1.014.285a1.528 1.528 0 0 0-.507.627l-1.197-.273c.142-.398.349-.719.622-.963.275-.247.592-.426.95-.537a3.71 3.71 0 0 1 1.13-.17c.26 0 .538.03.83.093.296.06.571.17.827.332.258.162.47.394.635.695.165.298.247.686.247 1.163V16h-1.244v-.895h-.051a1.812 1.812 0 0 1-.371.486c-.165.159-.377.291-.635.396a2.463 2.463 0 0 1-.929.158Zm.277-1.023c.352 0 .653-.07.903-.209.253-.139.445-.32.576-.545.133-.227.2-.47.2-.729v-.843a.665.665 0 0 1-.264.127 4.11 4.11 0 0 1-.44.098c-.164.026-.325.05-.48.073l-.393.05a3.153 3.153 0 0 0-.677.159c-.202.073-.364.18-.486.32-.12.136-.18.317-.18.545 0 .315.117.554.35.716.233.159.53.238.89.238Zm4.65.878V9.455h1.223v1.065h.081c.136-.36.36-.642.67-.844.309-.204.68-.307 1.111-.307.438 0 .804.103 1.1.307.298.205.518.486.66.844h.069c.156-.35.404-.628.745-.835.341-.21.747-.316 1.219-.316.594 0 1.078.186 1.453.559.378.372.567.933.567 1.683V16H66.62v-4.27c0-.443-.121-.764-.362-.963a1.318 1.318 0 0 0-.865-.298c-.415 0-.738.128-.968.383-.23.253-.345.578-.345.976V16h-1.27v-4.35c0-.356-.11-.642-.332-.857-.222-.216-.51-.324-.865-.324-.242 0-.465.064-.67.192-.201.125-.364.3-.49.524a1.606 1.606 0 0 0-.183.78V16h-1.274Zm15.51-4.947-1.154.204a1.368 1.368 0 0 0-.23-.422 1.139 1.139 0 0 0-.418-.328 1.513 1.513 0 0 0-.66-.128c-.361 0-.663.081-.904.243-.242.16-.362.365-.362.618 0 .219.08.395.243.528.162.134.423.243.784.329l1.04.238c.602.14 1.05.354 1.346.644.296.29.443.666.443 1.129 0 .392-.113.741-.34 1.048-.225.304-.539.543-.942.716-.4.174-.865.26-1.394.26-.733 0-1.33-.156-1.794-.469-.463-.315-.747-.762-.852-1.342l1.231-.188c.077.322.235.564.473.73.239.161.55.242.934.242.417 0 .751-.087 1.001-.26.25-.176.375-.39.375-.643a.668.668 0 0 0-.23-.516c-.15-.14-.382-.244-.695-.315l-1.108-.243c-.61-.14-1.062-.361-1.355-.665-.29-.304-.434-.689-.434-1.155 0-.386.108-.724.324-1.014a2.12 2.12 0 0 1 .894-.678c.381-.164.817-.247 1.309-.247.707 0 1.264.154 1.67.46.406.304.675.712.805 1.224Z"></path><path fill="#595B5D" d="M80.939 10.752A.5.5 0 0 1 81.37 10h5.258a.5.5 0 0 1 .432.752l-2.63 4.508a.5.5 0 0 1-.863 0l-2.63-4.508Z"></path><rect width="20" height="20" x="4" y="28" fill="#26B5CE" opacity=".08" rx="2"></rect><path fill="#26B5CE" d="m15.644 31.749.018 5.25 2.503.001c.672 0 1.068.68.685 1.177l-4.999 6.498c-.465.605-1.518.308-1.518-.427l-.001-5.244H9.835c-.672 0-1.067-.677-.687-1.175l4.977-6.503c.463-.605 1.517-.312 1.52.423Z"></path><path fill="#E2E4E6" d="M31.039 43v-9.455h5.863v1.228h-4.437v2.881h4.016v1.223h-4.016V43H31.04Zm10.042.143c-.699 0-1.3-.15-1.805-.448a3.037 3.037 0 0 1-1.164-1.27c-.27-.547-.406-1.189-.406-1.924 0-.727.136-1.367.406-1.92a3.155 3.155 0 0 1 1.145-1.298c.493-.31 1.068-.466 1.727-.466.4 0 .788.066 1.163.198.376.133.713.34 1.011.623.299.284.534.651.706 1.104.173.45.259.995.259 1.639v.489h-5.637v-1.034h4.284c0-.363-.074-.685-.221-.965a1.674 1.674 0 0 0-.623-.67 1.742 1.742 0 0 0-.933-.244c-.388 0-.726.095-1.016.286a1.92 1.92 0 0 0-.664.739c-.154.301-.231.63-.231.983v.808c0 .474.083.877.25 1.21.168.332.404.586.705.761.302.173.654.259 1.057.259.262 0 .5-.037.716-.111a1.484 1.484 0 0 0 .919-.9l1.306.235a2.365 2.365 0 0 1-.563 1.011 2.73 2.73 0 0 1-1.011.67 3.785 3.785 0 0 1-1.38.235Zm6.637.014c-.45 0-.856-.083-1.219-.25a2.054 2.054 0 0 1-.863-.733c-.21-.32-.314-.713-.314-1.178 0-.4.077-.729.23-.988.155-.258.362-.463.624-.614.262-.15.554-.264.877-.341.323-.077.653-.136.988-.175l1.034-.12c.265-.034.457-.088.577-.162.12-.074.18-.194.18-.36v-.032c0-.404-.114-.716-.341-.938-.225-.221-.56-.332-1.007-.332-.464 0-.83.103-1.098.31-.265.202-.448.429-.55.678l-1.297-.296c.154-.43.379-.778.674-1.043a2.733 2.733 0 0 1 1.03-.582 4.02 4.02 0 0 1 1.223-.184c.283 0 .583.034.9.101.32.065.619.185.896.36.28.176.51.427.688.753.178.323.267.743.267 1.26V43H49.87v-.97h-.055c-.09.179-.223.355-.402.527a2.133 2.133 0 0 1-.688.43c-.28.113-.615.17-1.006.17Zm.3-1.108c.382 0 .708-.075.979-.226.274-.151.481-.348.623-.591.145-.246.217-.51.217-.79v-.914c-.05.05-.145.096-.286.139a4.46 4.46 0 0 1-.476.106 58.06 58.06 0 0 1-.521.079l-.425.055a3.42 3.42 0 0 0-.734.17 1.26 1.26 0 0 0-.526.347c-.13.148-.194.345-.194.59 0 .342.126.601.378.776.253.173.574.259.965.259Zm8.348-6.14v1.108h-3.873v-1.108h3.873ZM53.53 34.21h1.38v6.708c0 .268.04.47.12.605.08.132.184.223.31.272.13.046.27.07.42.07.11 0 .208-.008.29-.024.084-.015.149-.027.195-.037l.25 1.14c-.08.031-.195.062-.343.093a2.695 2.695 0 0 1-.553.055 2.428 2.428 0 0 1-1.016-.194 1.742 1.742 0 0 1-.762-.627c-.194-.284-.29-.639-.29-1.067V34.21Zm8.854 5.85v-4.15h1.385V43h-1.358v-1.228h-.074a2.213 2.213 0 0 1-.784.946c-.357.25-.802.374-1.335.374a2.4 2.4 0 0 1-1.21-.3 2.11 2.11 0 0 1-.82-.9c-.198-.397-.296-.888-.296-1.473v-4.51h1.38v4.344c0 .483.134.868.402 1.154.268.287.615.43 1.043.43.259 0 .515-.065.771-.194.259-.13.472-.325.642-.587.172-.261.257-.593.254-.997Zm3.24 2.94v-7.09h1.333v1.126h.074c.13-.382.357-.682.684-.9.329-.222.701-.333 1.117-.333a5.957 5.957 0 0 1 .586.032v1.32a2.481 2.481 0 0 0-.295-.05 2.813 2.813 0 0 0-.425-.033 1.8 1.8 0 0 0-.873.208 1.543 1.543 0 0 0-.822 1.39V43h-1.38Zm7.79.143c-.698 0-1.3-.15-1.804-.448a3.038 3.038 0 0 1-1.164-1.27c-.27-.547-.406-1.189-.406-1.924 0-.727.135-1.367.406-1.92a3.155 3.155 0 0 1 1.145-1.298c.493-.31 1.068-.466 1.727-.466.4 0 .788.066 1.163.198.376.133.713.34 1.011.623.299.284.534.651.706 1.104.173.45.259.995.259 1.639v.489H70.82v-1.034h4.284c0-.363-.074-.685-.221-.965a1.675 1.675 0 0 0-.624-.67 1.742 1.742 0 0 0-.932-.244c-.388 0-.726.095-1.016.286a1.921 1.921 0 0 0-.665.739c-.153.301-.23.63-.23.983v.808c0 .474.083.877.249 1.21.17.332.405.586.706.761.302.173.654.259 1.058.259.261 0 .5-.037.715-.111a1.485 1.485 0 0 0 .919-.9l1.306.235a2.366 2.366 0 0 1-.563 1.011c-.268.287-.605.51-1.011.67a3.785 3.785 0 0 1-1.38.235ZM81.542 43v-9.455h3.37c.732 0 1.34.127 1.823.379.487.252.85.602 1.09 1.048.24.443.36.956.36 1.537 0 .579-.122 1.088-.365 1.528-.24.437-.603.777-1.09 1.02-.483.244-1.09.365-1.823.365h-2.553v-1.228h2.424c.462 0 .837-.066 1.126-.198.293-.133.506-.325.642-.577.135-.253.203-.556.203-.91 0-.357-.07-.666-.208-.928a1.341 1.341 0 0 0-.641-.6c-.29-.141-.67-.212-1.14-.212h-1.792V43h-1.426Zm4.667-4.266L88.544 43h-1.625l-2.29-4.266h1.579Zm6.568 4.41c-.699 0-1.3-.15-1.805-.449a3.037 3.037 0 0 1-1.163-1.27c-.271-.547-.407-1.189-.407-1.924 0-.727.136-1.367.407-1.92a3.155 3.155 0 0 1 1.144-1.298c.493-.31 1.068-.466 1.727-.466.4 0 .788.066 1.163.198.376.133.713.34 1.011.623.299.284.534.651.707 1.104.172.45.258.995.258 1.639v.489h-5.636v-1.034h4.284c0-.363-.074-.685-.222-.965a1.675 1.675 0 0 0-.623-.67 1.742 1.742 0 0 0-.933-.244c-.388 0-.726.095-1.015.286a1.921 1.921 0 0 0-.665.739c-.154.301-.23.63-.23.983v.808c0 .474.082.877.248 1.21.17.332.405.586.707.761.301.173.654.259 1.057.259.261 0 .5-.037.715-.111a1.484 1.484 0 0 0 .919-.9l1.307.235a2.366 2.366 0 0 1-.564 1.011 2.73 2.73 0 0 1-1.01.67 3.784 3.784 0 0 1-1.381.235Zm9.361 2.515v-3.762h-.083a3.64 3.64 0 0 1-.36.517 2 2 0 0 1-.637.508c-.271.144-.622.217-1.053.217a2.747 2.747 0 0 1-1.532-.44c-.447-.294-.797-.715-1.053-1.26-.252-.547-.379-1.204-.379-1.97 0-.767.128-1.422.384-1.967.258-.545.612-.962 1.061-1.251.45-.29.96-.434 1.528-.434.441 0 .795.074 1.062.221.271.145.48.314.628.508.151.194.268.365.351.513h.115v-1.15h1.348v9.75h-1.38Zm-1.828-3.698c.397 0 .732-.104 1.006-.314.277-.212.487-.506.628-.881.145-.376.217-.813.217-1.311 0-.493-.071-.924-.212-1.293a1.908 1.908 0 0 0-.623-.863c-.274-.207-.613-.31-1.016-.31-.415 0-.762.108-1.039.324-.277.215-.486.509-.628.881a3.596 3.596 0 0 0-.207 1.26c0 .474.07.9.212 1.28.142.378.35.678.628.9.28.218.625.327 1.034.327Zm9.556-1.902v-4.15h1.385V43h-1.357v-1.228h-.074a2.213 2.213 0 0 1-.785.946c-.357.25-.802.374-1.334.374a2.4 2.4 0 0 1-1.21-.3 2.112 2.112 0 0 1-.821-.9c-.197-.397-.296-.888-.296-1.473v-4.51h1.381v4.344c0 .483.133.868.401 1.154.268.287.616.43 1.044.43.258 0 .515-.065.77-.194a1.62 1.62 0 0 0 .642-.587c.172-.261.257-.593.254-.997Zm6.296 3.084c-.699 0-1.301-.15-1.805-.448a3.037 3.037 0 0 1-1.164-1.27c-.27-.547-.406-1.189-.406-1.924 0-.727.136-1.367.406-1.92a3.158 3.158 0 0 1 1.145-1.298c.493-.31 1.068-.466 1.727-.466.4 0 .788.066 1.163.198.376.133.713.34 1.011.623.299.284.534.651.707 1.104.172.45.258.995.258 1.639v.489h-5.637v-1.034h4.284c0-.363-.073-.685-.221-.965a1.682 1.682 0 0 0-.623-.67 1.744 1.744 0 0 0-.933-.244c-.388 0-.726.095-1.016.286a1.92 1.92 0 0 0-.664.739 2.13 2.13 0 0 0-.231.983v.808c0 .474.083.877.249 1.21.169.332.405.586.706.761.302.173.654.259 1.058.259.261 0 .5-.037.715-.111a1.482 1.482 0 0 0 .919-.9l1.306.235a2.357 2.357 0 0 1-.563 1.011c-.268.287-.605.51-1.011.67a3.783 3.783 0 0 1-1.38.235Zm9.887-5.503-1.251.222a1.472 1.472 0 0 0-.249-.457 1.236 1.236 0 0 0-.453-.356c-.19-.092-.429-.138-.715-.138-.391 0-.717.088-.979.263-.261.172-.392.395-.392.67 0 .236.087.427.263.572.175.145.458.263.849.355l1.127.259c.652.15 1.138.383 1.458.697.321.314.481.722.481 1.223 0 .425-.123.804-.37 1.136-.243.33-.583.588-1.02.776-.434.187-.937.281-1.51.281-.794 0-1.441-.17-1.943-.508-.502-.341-.809-.826-.923-1.454l1.334-.203c.083.348.254.61.512.79.259.175.596.263 1.011.263.453 0 .814-.094 1.085-.282.271-.19.406-.423.406-.697a.725.725 0 0 0-.249-.559c-.163-.15-.414-.264-.752-.341l-1.201-.264c-.661-.15-1.151-.39-1.468-.72-.314-.329-.471-.746-.471-1.25 0-.42.117-.785.351-1.1.234-.313.557-.558.97-.733.412-.179.885-.268 1.417-.268.766 0 1.369.166 1.81.498.44.33.731.771.872 1.325Zm4.966-1.73v1.107h-3.873v-1.108h3.873Zm-2.834-1.7h1.38v6.708c0 .268.04.47.12.605.08.132.183.223.309.272.13.046.27.07.421.07.11 0 .207-.008.29-.024.083-.015.148-.027.194-.037l.25 1.14a2.694 2.694 0 0 1-.896.148 2.43 2.43 0 0 1-1.016-.194 1.74 1.74 0 0 1-.761-.627c-.194-.284-.291-.639-.291-1.067V34.21Zm9.561 3.43-1.252.222a1.472 1.472 0 0 0-.249-.457 1.232 1.232 0 0 0-.452-.356c-.191-.092-.43-.138-.716-.138-.391 0-.717.088-.979.263-.261.172-.392.395-.392.67 0 .236.088.427.263.572.176.145.459.263.85.355l1.126.259c.653.15 1.139.383 1.459.697.32.314.48.722.48 1.223 0 .425-.123.804-.369 1.136-.243.33-.584.588-1.021.776-.434.187-.937.281-1.509.281-.794 0-1.442-.17-1.944-.508-.501-.341-.809-.826-.923-1.454l1.334-.203c.083.348.254.61.513.79.258.175.595.263 1.011.263.452 0 .814-.094 1.084-.282.271-.19.407-.423.407-.697a.722.722 0 0 0-.25-.559c-.163-.15-.413-.264-.752-.341l-1.2-.264c-.662-.15-1.151-.39-1.468-.72-.314-.329-.471-.746-.471-1.25 0-.42.117-.785.351-1.1.234-.313.557-.558.969-.733.412-.179.885-.268 1.417-.268.767 0 1.37.166 1.81.498.44.33.731.771.873 1.325Z"></path><path fill="#595B5D" d="M146.002 41.624a.5.5 0 0 1-.752-.432v-4.384a.5.5 0 0 1 .752-.432l3.758 2.192a.5.5 0 0 1 0 .864l-3.758 2.192Z"></path><rect width="20" height="20" x="4" y="58" fill="#949698" opacity=".08" rx="2"></rect><path fill="#949698" fill-rule="evenodd" d="M15 62a1 1 0 0 1-.5.866v.634a.5.5 0 0 0 .5.5h.5c1.398 0 2.097 0 2.648.228a3 3 0 0 1 1.624 1.624c.228.551.228 1.25.228 2.648 0 1.398 0 2.097-.228 2.648a3 3 0 0 1-1.624 1.624c-.434.18-.96.218-1.849.226a.301.301 0 0 0-.299.3v.402a.3.3 0 0 0 .3.3h.2a.5.5 0 0 1 .5.5v.3a.2.2 0 0 1-.2.2h-5.6a.2.2 0 0 1-.2-.2v-.3a.5.5 0 0 1 .5-.5h.2a.3.3 0 0 0 .3-.3v-.401c0-.166-.134-.3-.3-.301-.887-.008-1.413-.046-1.848-.226a3 3 0 0 1-1.624-1.624C8 70.597 8 69.898 8 68.5c0-1.398 0-2.097.228-2.648a3 3 0 0 1 1.624-1.624C10.403 64 11.102 64 12.5 64h.5a.5.5 0 0 0 .5-.5v-.634A1 1 0 1 1 15 62Zm-4 6a1 1 0 1 0 0-2 1 1 0 0 0 0 2Zm7-1a1 1 0 1 1-2 0 1 1 0 0 1 2 0Zm-5.6 2a.4.4 0 0 0-.4.4v.7c0 .22.18.4.4.4h3.2a.4.4 0 0 0 .4-.4v-.7a.4.4 0 0 0-.4-.4h-3.2Z" clip-rule="evenodd"></path><path fill="#E2E4E6" d="M31.837 73h-1.514l3.402-9.455h1.649L38.776 73h-1.514l-2.673-7.737h-.074L31.837 73Zm.254-3.702h4.912v1.2h-4.912v-1.2Zm12.431.761v-4.15h1.385V73H44.55v-1.228h-.074a2.213 2.213 0 0 1-.785.946c-.357.25-.801.374-1.334.374a2.4 2.4 0 0 1-1.21-.3 2.11 2.11 0 0 1-.821-.9c-.197-.397-.295-.888-.295-1.473v-4.51h1.38v4.344c0 .483.134.868.401 1.154.268.287.616.43 1.044.43.258 0 .515-.065.77-.194.26-.13.473-.325.642-.587.173-.261.257-.593.254-.997Zm6.55-4.15v1.108h-3.873v-1.108h3.873Zm-2.835-1.699h1.38v6.708c0 .268.04.47.12.605.08.132.184.223.31.272.13.046.27.07.42.07.11 0 .208-.008.291-.024.083-.015.148-.027.194-.037l.25 1.14a2.696 2.696 0 0 1-.896.148 2.428 2.428 0 0 1-1.016-.194 1.742 1.742 0 0 1-.762-.627c-.194-.284-.29-.639-.29-1.067V64.21Zm7.273 8.933c-.665 0-1.245-.152-1.74-.457a3.082 3.082 0 0 1-1.155-1.279c-.274-.547-.41-1.188-.41-1.92 0-.736.136-1.379.41-1.93.274-.55.659-.978 1.154-1.283.496-.305 1.076-.457 1.74-.457.665 0 1.245.152 1.74.457.496.305.881.732 1.155 1.283.274.551.41 1.194.41 1.93 0 .732-.136 1.373-.41 1.92a3.082 3.082 0 0 1-1.154 1.28c-.496.304-1.076.456-1.74.456Zm.004-1.159c.431 0 .788-.113 1.071-.341.283-.228.493-.531.628-.91.139-.378.208-.795.208-1.25 0-.453-.07-.869-.208-1.247a2.03 2.03 0 0 0-.628-.919c-.283-.23-.64-.346-1.07-.346-.435 0-.795.115-1.081.346-.283.23-.494.537-.633.919a3.677 3.677 0 0 0-.203 1.246c0 .456.068.873.203 1.251.139.379.35.682.633.91.286.228.646.341 1.08.341ZM60.356 73v-7.09h1.325v1.153h.087c.148-.39.39-.695.725-.914.335-.221.737-.332 1.205-.332.474 0 .871.11 1.191.332.323.222.562.526.716.914h.073c.17-.378.439-.68.808-.905.37-.227.81-.341 1.32-.341.644 0 1.169.201 1.575.605.41.403.614 1.01.614 1.823V73h-1.38v-4.626c0-.48-.131-.828-.393-1.043a1.427 1.427 0 0 0-.937-.323c-.45 0-.799.138-1.048.415-.25.274-.374.627-.374 1.058V73h-1.376v-4.713c0-.385-.12-.694-.36-.928-.24-.234-.552-.351-.937-.351-.261 0-.503.07-.725.208a1.524 1.524 0 0 0-.53.567 1.738 1.738 0 0 0-.199.845V73h-1.38Zm13.553.157c-.45 0-.856-.083-1.22-.25a2.054 2.054 0 0 1-.863-.733c-.209-.32-.313-.713-.313-1.178 0-.4.076-.729.23-.987.154-.259.362-.464.624-.615.261-.15.553-.264.877-.341.323-.077.652-.135.988-.175l1.034-.12c.264-.034.457-.088.577-.162.12-.074.18-.194.18-.36v-.032c0-.404-.114-.716-.342-.938-.224-.221-.56-.332-1.006-.332-.465 0-.831.103-1.099.31-.265.202-.448.429-.55.678l-1.296-.296c.153-.43.378-.778.673-1.043a2.733 2.733 0 0 1 1.03-.582 4.019 4.019 0 0 1 1.223-.184c.283 0 .584.034.9.101.32.065.62.185.896.36.28.176.51.427.688.753.178.323.268.743.268 1.26V73H76.06v-.97h-.056c-.089.179-.223.355-.401.527a2.134 2.134 0 0 1-.688.43c-.28.113-.616.17-1.007.17Zm.3-1.108c.381 0 .707-.075.978-.226.274-.151.482-.348.624-.591.144-.246.216-.51.216-.79v-.914c-.049.05-.144.096-.286.139a4.46 4.46 0 0 1-.475.106l-.522.079-.425.055a3.42 3.42 0 0 0-.734.17 1.26 1.26 0 0 0-.526.347c-.13.148-.194.345-.194.59 0 .343.126.601.379.776.252.173.574.259.965.259Zm8.347-6.14v1.108h-3.873v-1.108h3.873Zm-2.834-1.699h1.38v6.708c0 .268.04.47.12.605.08.132.183.223.31.272.129.046.269.07.42.07.11 0 .207-.008.29-.024.084-.015.148-.027.194-.037l.25 1.14a2.695 2.695 0 0 1-.895.148 2.428 2.428 0 0 1-1.017-.194 1.742 1.742 0 0 1-.761-.627c-.194-.284-.291-.639-.291-1.067V64.21ZM84.083 73v-7.09h1.38V73h-1.38Zm.697-8.185a.877.877 0 0 1-.618-.24.78.78 0 0 1-.254-.582.77.77 0 0 1 .254-.581.868.868 0 0 1 .618-.245c.24 0 .445.081.614.245.173.16.259.354.259.581a.774.774 0 0 1-.259.582.861.861 0 0 1-.614.24Zm5.527 8.328c-.664 0-1.245-.152-1.74-.457a3.082 3.082 0 0 1-1.154-1.279c-.274-.547-.411-1.188-.411-1.92 0-.736.137-1.379.41-1.93.275-.55.66-.978 1.155-1.283.495-.305 1.076-.457 1.74-.457.665 0 1.245.152 1.74.457.496.305.881.732 1.155 1.283.274.551.41 1.194.41 1.93 0 .732-.136 1.373-.41 1.92a3.082 3.082 0 0 1-1.154 1.28c-.496.304-1.076.456-1.74.456Zm.005-1.159c.43 0 .788-.113 1.071-.341.283-.228.492-.531.628-.91.138-.378.208-.795.208-1.25 0-.453-.07-.869-.208-1.247a2.03 2.03 0 0 0-.628-.919c-.283-.23-.64-.346-1.071-.346-.434 0-.794.115-1.08.346-.283.23-.494.537-.633.919a3.674 3.674 0 0 0-.203 1.246c0 .456.068.873.203 1.251.139.379.35.682.633.91.286.228.646.341 1.08.341Zm6.222-3.194V73h-1.38v-7.09h1.324v1.153h.088c.163-.375.419-.677.766-.905.351-.227.793-.341 1.325-.341.484 0 .907.101 1.27.304.363.2.645.499.845.896.2.397.3.888.3 1.473V73h-1.38v-4.344c0-.514-.134-.916-.402-1.205-.268-.292-.636-.439-1.104-.439-.32 0-.604.07-.854.208a1.494 1.494 0 0 0-.586.61c-.141.264-.212.584-.212.96Z"></path><path fill="#595B5D" d="M109.002 71.624a.5.5 0 0 1-.752-.432v-4.384a.5.5 0 0 1 .752-.432l3.758 2.192a.5.5 0 0 1 0 .864l-3.758 2.192Z"></path></svg>