<svg xmlns="http://www.w3.org/2000/svg" width="333" height="165" fill="none" viewBox="0 0 333 165"><path fill="#8A8F98" d="M.1 2.506C.1 1.302.982.42 2.186.42h7.896c1.204 0 2.086.882 2.086 2.086v.028c0 1.204-.882 2.086-2.086 2.086H2.186C.982 4.62.1 3.738.1 2.534v-.028zm7.642 0c0-1.204.882-2.086 2.086-2.086h4.032c1.204 0 2.085.882 2.085 2.086v.028c0 1.204-.882 2.086-2.085 2.086H9.828c-1.204 0-2.086-.882-2.086-2.086v-.028zm3.785 0c0-1.204.882-2.086 2.086-2.086h4.032c1.204 0 2.086.882 2.086 2.086v.028c0 1.204-.882 2.086-2.086 2.086h-4.032c-1.204 0-2.086-.882-2.086-2.086v-.028zm3.786 0c0-1.204.882-2.086 2.086-2.086h4.032c1.204 0 2.086.882 2.086 2.086v.028c0 1.204-.882 2.086-2.086 2.086H17.4c-1.204 0-2.086-.882-2.086-2.086v-.028zm3.786 0c0-1.204.882-2.086 2.086-2.086h7.896c1.204 0 2.086.882 2.086 2.086v.028c0 1.204-.882 2.086-2.086 2.086h-7.896c-1.204 0-2.086-.882-2.086-2.086v-.028zm15.816 0c0-1.204.882-2.086 2.086-2.086h7.896c1.204 0 2.086.882 2.086 2.086v.028c0 1.204-.882 2.086-2.086 2.086h-7.896c-1.204 0-2.086-.882-2.086-2.086v-.028zm7.641 0c0-1.204.882-2.086 2.086-2.086h7.896c1.204 0 2.086.882 2.086 2.086v.028c0 1.204-.882 2.086-2.086 2.086h-7.896c-1.204 0-2.086-.882-2.086-2.086v-.028zm7.642 0c0-1.204.882-2.086 2.086-2.086h7.896c1.204 0 2.086.882 2.086 2.086v.028c0 1.204-.882 2.086-2.086 2.086h-7.896c-1.204 0-2.086-.882-2.086-2.086v-.028zm7.64 0c0-1.204.883-2.086 2.087-2.086h7.896c1.204 0 2.086.882 2.086 2.086v.028c0 1.204-.882 2.086-2.086 2.086h-7.896c-1.204 0-2.086-.882-2.086-2.086v-.028zm15.817 0c0-1.204.882-2.086 2.086-2.086h7.896c1.204 0 2.086.882 2.086 2.086v.028c0 1.204-.882 2.086-2.086 2.086H75.74c-1.204 0-2.086-.882-2.086-2.086v-.028zm7.641 0c0-1.204.882-2.086 2.086-2.086h4.032c1.204 0 2.086.882 2.086 2.086v.028c0 1.204-.882 2.086-2.086 2.086h-4.032c-1.204 0-2.086-.882-2.086-2.086v-.028zm3.786 0c0-1.204.882-2.086 2.086-2.086h7.896c1.204 0 2.086.882 2.086 2.086v.028c0 1.204-.882 2.086-2.086 2.086h-7.896c-1.204 0-2.086-.882-2.086-2.086v-.028zm7.641 0c0-1.204.882-2.086 2.086-2.086h7.896c1.204 0 2.086.882 2.086 2.086v.028c0 1.204-.882 2.086-2.086 2.086h-7.896c-1.204 0-2.086-.882-2.086-2.086v-.028zm7.642 0c0-1.204.882-2.086 2.086-2.086h7.896c1.204 0 2.086.882 2.086 2.086v.028c0 1.204-.882 2.086-2.086 2.086h-7.896c-1.204 0-2.086-.882-2.086-2.086v-.028zm7.641 0c0-1.204.882-2.086 2.086-2.086h7.896c1.204 0 2.086.882 2.086 2.086v.028c0 1.204-.882 2.086-2.086 2.086h-7.896c-1.204 0-2.086-.882-2.086-2.086v-.028zm7.641 0c0-1.204.882-2.086 2.086-2.086h4.032c1.204 0 2.086.882 2.086 2.086v.028c0 1.204-.882 2.086-2.086 2.086h-4.032c-1.204 0-2.086-.882-2.086-2.086v-.028zm11.961 0c0-1.204.882-2.086 2.086-2.086h4.032c1.204 0 2.086.882 2.086 2.086v.028c0 1.204-.882 2.086-2.086 2.086h-4.032c-1.204 0-2.086-.882-2.086-2.086v-.028zm3.786 0c0-1.204.882-2.086 2.086-2.086h7.896c1.204 0 2.086.882 2.086 2.086v.028c0 1.204-.882 2.086-2.086 2.086h-7.896c-1.204 0-2.086-.882-2.086-2.086v-.028zm7.641 0c0-1.204.882-2.086 2.086-2.086h7.896c1.204 0 2.086.882 2.086 2.086v.028c0 1.204-.882 2.086-2.086 2.086h-7.896c-1.204 0-2.086-.882-2.086-2.086v-.028zm7.641 0c0-1.204.882-2.086 2.086-2.086h7.896c1.204 0 2.086.882 2.086 2.086v.028c0 1.204-.882 2.086-2.086 2.086h-7.896c-1.204 0-2.086-.882-2.086-2.086v-.028zm7.642 0c0-1.204.882-2.086 2.086-2.086h7.896c1.204 0 2.086.882 2.086 2.086v.028c0 1.204-.882 2.086-2.086 2.086h-7.896c-1.204 0-2.086-.882-2.086-2.086v-.028zm15.815 0c0-1.204.882-2.086 2.086-2.086h7.896c1.204 0 2.086.882 2.086 2.086v.028c0 1.204-.882 2.086-2.086 2.086h-7.896c-1.204 0-2.086-.882-2.086-2.086v-.028zm7.642 0c0-1.204.882-2.086 2.086-2.086h7.896c1.204 0 2.086.882 2.086 2.086v.028c0 1.204-.882 2.086-2.086 2.086h-7.896c-1.204 0-2.086-.882-2.086-2.086v-.028zm7.641 0c0-1.204.882-2.086 2.086-2.086h7.896c1.204 0 2.086.882 2.086 2.086v.028c0 1.204-.882 2.086-2.086 2.086h-7.896c-1.204 0-2.086-.882-2.086-2.086v-.028zm15.816 0c0-1.204.882-2.086 2.086-2.086h7.896c1.204 0 2.086.882 2.086 2.086v.028c0 1.204-.882 2.086-2.086 2.086h-7.896c-1.204 0-2.086-.882-2.086-2.086v-.028zm7.641 0c0-1.204.882-2.086 2.086-2.086h7.896c1.204 0 2.086.882 2.086 2.086v.028c0 1.204-.882 2.086-2.086 2.086h-7.896c-1.204 0-2.086-.882-2.086-2.086v-.028zm7.642 0c0-1.204.882-2.086 2.086-2.086h4.032c1.204 0 2.086.882 2.086 2.086v.028c0 1.204-.882 2.086-2.086 2.086h-4.032c-1.204 0-2.086-.882-2.086-2.086v-.028zm3.785 0c0-1.204.882-2.086 2.086-2.086h7.896c1.204 0 2.086.882 2.086 2.086v.028c0 1.204-.882 2.086-2.086 2.086h-7.896c-1.204 0-2.086-.882-2.086-2.086v-.028zm15.816 0c0-1.204.882-2.086 2.086-2.086h4.032c1.204 0 2.086.882 2.086 2.086v.028c0 1.204-.882 2.086-2.086 2.086h-4.032c-1.204 0-2.086-.882-2.086-2.086v-.028zm3.786 0c0-1.204.882-2.086 2.086-2.086h7.896c1.204 0 2.086.882 2.086 2.086v.028c0 1.204-.882 2.086-2.086 2.086h-7.896c-1.204 0-2.086-.882-2.086-2.086v-.028zm7.641 0c0-1.204.882-2.086 2.086-2.086h7.896c1.204 0 2.086.882 2.086 2.086v.028c0 1.204-.882 2.086-2.086 2.086h-7.896c-1.204 0-2.086-.882-2.086-2.086v-.028zm7.642 0c0-1.204.882-2.086 2.086-2.086h7.896c1.204 0 2.086.882 2.086 2.086v.028c0 1.204-.882 2.086-2.086 2.086h-7.896c-1.204 0-2.086-.882-2.086-2.086v-.028zm7.641 0c0-1.204.882-2.086 2.086-2.086h4.032c1.204 0 2.086.882 2.086 2.086v.028c0 1.204-.882 2.086-2.086 2.086h-4.032c-1.204 0-2.086-.882-2.086-2.086v-.028zm3.786 0c0-1.204.882-2.086 2.086-2.086h7.896c1.204 0 2.086.882 2.086 2.086v.028c0 1.204-.882 2.086-2.086 2.086h-7.896c-1.204 0-2.086-.882-2.086-2.086v-.028zm7.641 0c0-1.204.882-2.086 2.086-2.086h7.896c1.204 0 2.086.882 2.086 2.086v.028c0 1.204-.882 2.086-2.086 2.086h-7.896c-1.204 0-2.086-.882-2.086-2.086v-.028zm7.642 0c0-1.204.882-2.086 2.086-2.086h4.032c1.204 0 2.086.882 2.086 2.086v.028c0 1.204-.882 2.086-2.086 2.086h-4.032c-1.204 0-2.086-.882-2.086-2.086v-.028zm11.96 0c0-1.204.882-2.086 2.086-2.086h7.896c1.204 0 2.086.882 2.086 2.086v.028c0 1.204-.882 2.086-2.086 2.086h-7.896c-1.204 0-2.086-.882-2.086-2.086v-.028zm7.641 0c0-1.204.882-2.086 2.086-2.086h7.896c1.204 0 2.086.882 2.086 2.086v.028c0 1.204-.882 2.086-2.086 2.086h-7.896c-1.204 0-2.086-.882-2.086-2.086v-.028zM.1 22.506c0-1.204.882-2.086 2.086-2.086h4.032c1.204 0 2.086.882 2.086 2.086v.028c0 1.204-.882 2.086-2.086 2.086H2.186C.982 24.62.1 23.738.1 22.534v-.028zm3.786 0c0-1.204.882-2.086 2.086-2.086h7.896c1.204 0 2.086.882 2.086 2.086v.028c0 1.204-.882 2.086-2.086 2.086H5.972c-1.204 0-2.086-.882-2.086-2.086v-.028zm7.641 0c0-1.204.882-2.086 2.086-2.086h7.896c1.204 0 2.086.882 2.086 2.086v.028c0 1.204-.882 2.086-2.086 2.086h-7.896c-1.204 0-2.086-.882-2.086-2.086v-.028zm7.642 0c0-1.204.882-2.086 2.086-2.086h4.032c1.204 0 2.086.882 2.086 2.086v.028c0 1.204-.882 2.086-2.086 2.086h-4.032c-1.204 0-2.086-.882-2.086-2.086v-.028zm3.786 0c0-1.204.882-2.086 2.086-2.086h7.896c1.204 0 2.086.882 2.086 2.086v.028c0 1.204-.882 2.086-2.086 2.086H25.04c-1.204 0-2.086-.882-2.086-2.086v-.028zm7.64 0c0-1.204.883-2.086 2.087-2.086h4.032c1.204 0 2.086.882 2.086 2.086v.028c0 1.204-.882 2.086-2.086 2.086h-4.032c-1.204 0-2.086-.882-2.086-2.086v-.028zm3.787 0c0-1.204.882-2.086 2.086-2.086h7.896c1.204 0 2.086.882 2.086 2.086v.028c0 1.204-.882 2.086-2.086 2.086h-7.896c-1.204 0-2.086-.882-2.086-2.086v-.028zm15.816 0c0-1.204.882-2.086 2.086-2.086h7.896c1.204 0 2.086.882 2.086 2.086v.028c0 1.204-.882 2.086-2.086 2.086h-7.896c-1.204 0-2.086-.882-2.086-2.086v-.028zm7.64 0c0-1.204.883-2.086 2.087-2.086h7.896c1.204 0 2.086.882 2.086 2.086v.028c0 1.204-.882 2.086-2.086 2.086h-7.896c-1.204 0-2.086-.882-2.086-2.086v-.028zm7.642 0c0-1.204.882-2.086 2.086-2.086h7.896c1.204 0 2.086.882 2.086 2.086v.028c0 1.204-.882 2.086-2.086 2.086h-7.896c-1.204 0-2.086-.882-2.086-2.086v-.028zm7.642 0c0-1.204.882-2.086 2.086-2.086h7.896c1.204 0 2.086.882 2.086 2.086v.028c0 1.204-.882 2.086-2.086 2.086h-7.896c-1.204 0-2.086-.882-2.086-2.086v-.028zm7.64 0c0-1.204.883-2.086 2.087-2.086h7.896c1.204 0 2.086.882 2.086 2.086v.028c0 1.204-.882 2.086-2.086 2.086h-7.896c-1.204 0-2.086-.882-2.086-2.086v-.028zm15.817 0c0-1.204.882-2.086 2.086-2.086h4.032c1.204 0 2.086.882 2.086 2.086v.028c0 1.204-.882 2.086-2.086 2.086h-4.032c-1.204 0-2.086-.882-2.086-2.086v-.028zm3.786 0c0-1.204.882-2.086 2.086-2.086h7.896c1.204 0 2.086.882 2.086 2.086v.028c0 1.204-.882 2.086-2.086 2.086h-7.896c-1.204 0-2.086-.882-2.086-2.086v-.028zm15.816 0c0-1.204.882-2.086 2.086-2.086h4.032c1.204 0 2.086.882 2.086 2.086v.028c0 1.204-.882 2.086-2.086 2.086h-4.032c-1.204 0-2.086-.882-2.086-2.086v-.028zm3.785 0c0-1.204.882-2.086 2.086-2.086h7.896c1.204 0 2.086.882 2.086 2.086v.028c0 1.204-.882 2.086-2.086 2.086h-7.896c-1.204 0-2.086-.882-2.086-2.086v-.028zm7.642 0c0-1.204.882-2.086 2.086-2.086h7.896c1.204 0 2.086.882 2.086 2.086v.028c0 1.204-.882 2.086-2.086 2.086h-7.896c-1.204 0-2.086-.882-2.086-2.086v-.028zm7.641 0c0-1.204.882-2.086 2.086-2.086h4.032c1.204 0 2.086.882 2.086 2.086v.028c0 1.204-.882 2.086-2.086 2.086h-4.032c-1.204 0-2.086-.882-2.086-2.086v-.028zm3.786 0c0-1.204.882-2.086 2.086-2.086h4.032c1.204 0 2.086.882 2.086 2.086v.028c0 1.204-.882 2.086-2.086 2.086h-4.032c-1.204 0-2.086-.882-2.086-2.086v-.028zm3.786 0c0-1.204.882-2.086 2.086-2.086h4.032c1.204 0 2.086.882 2.086 2.086v.028c0 1.204-.882 2.086-2.086 2.086h-4.032c-1.204 0-2.086-.882-2.086-2.086v-.028zm3.786 0c0-1.204.882-2.086 2.086-2.086h7.896c1.204 0 2.086.882 2.086 2.086v.028c0 1.204-.882 2.086-2.086 2.086h-7.896c-1.204 0-2.086-.882-2.086-2.086v-.028zm7.641 0c0-1.204.882-2.086 2.086-2.086h7.896c1.204 0 2.086.882 2.086 2.086v.028c0 1.204-.882 2.086-2.086 2.086h-7.896c-1.204 0-2.086-.882-2.086-2.086v-.028zm7.641 0c0-1.204.882-2.086 2.086-2.086h4.032c1.204 0 2.086.882 2.086 2.086v.028c0 1.204-.882 2.086-2.086 2.086h-4.032c-1.204 0-2.086-.882-2.086-2.086v-.028zm11.961 0c0-1.204.882-2.086 2.086-2.086h7.896c1.204 0 2.086.882 2.086 2.086v.028c0 1.204-.882 2.086-2.086 2.086h-7.896c-1.204 0-2.086-.882-2.086-2.086v-.028zm7.641 0c0-1.204.882-2.086 2.086-2.086h7.896c1.204 0 2.086.882 2.086 2.086v.028c0 1.204-.882 2.086-2.086 2.086h-7.896c-1.204 0-2.086-.882-2.086-2.086v-.028zm7.641 0c0-1.204.882-2.086 2.086-2.086h4.032c1.204 0 2.086.882 2.086 2.086v.028c0 1.204-.882 2.086-2.086 2.086h-4.032c-1.204 0-2.086-.882-2.086-2.086v-.028zm3.786 0c0-1.204.882-2.086 2.086-2.086h4.032c1.204 0 2.086.882 2.086 2.086v.028c0 1.204-.882 2.086-2.086 2.086h-4.032c-1.204 0-2.086-.882-2.086-2.086v-.028zm3.786 0c0-1.204.882-2.086 2.086-2.086h4.032c1.204 0 2.086.882 2.086 2.086v.028c0 1.204-.882 2.086-2.086 2.086h-4.032c-1.204 0-2.086-.882-2.086-2.086v-.028zm3.786 0c0-1.204.882-2.086 2.086-2.086h7.896c1.204 0 2.086.882 2.086 2.086v.028c0 1.204-.882 2.086-2.086 2.086h-7.896c-1.204 0-2.086-.882-2.086-2.086v-.028zm7.641 0c0-1.204.882-2.086 2.086-2.086h4.032c1.204 0 2.086.882 2.086 2.086v.028c0 1.204-.882 2.086-2.086 2.086h-4.032c-1.204 0-2.086-.882-2.086-2.086v-.028zm3.786 0c0-1.204.882-2.086 2.086-2.086h7.896c1.204 0 2.086.882 2.086 2.086v.028c0 1.204-.882 2.086-2.086 2.086h-7.896c-1.204 0-2.086-.882-2.086-2.086v-.028zm7.641 0c0-1.204.882-2.086 2.086-2.086h7.896c1.204 0 2.086.882 2.086 2.086v.028c0 1.204-.882 2.086-2.086 2.086h-7.896c-1.204 0-2.086-.882-2.086-2.086v-.028zm7.642 0c0-1.204.882-2.086 2.086-2.086h7.896c1.204 0 2.086.882 2.086 2.086v.028c0 1.204-.882 2.086-2.086 2.086h-7.896c-1.204 0-2.086-.882-2.086-2.086v-.028zm7.641 0c0-1.204.882-2.086 2.086-2.086h4.032c1.204 0 2.086.882 2.086 2.086v.028c0 1.204-.882 2.086-2.086 2.086h-4.032c-1.204 0-2.086-.882-2.086-2.086v-.028zm11.96 0c0-1.204.882-2.086 2.086-2.086h7.896c1.204 0 2.086.882 2.086 2.086v.028c0 1.204-.882 2.086-2.086 2.086h-7.896c-1.204 0-2.086-.882-2.086-2.086v-.028zm7.642 0c0-1.204.882-2.086 2.086-2.086h4.032c1.204 0 2.086.882 2.086 2.086v.028c0 1.204-.882 2.086-2.086 2.086h-4.032c-1.204 0-2.086-.882-2.086-2.086v-.028zm3.786 0c0-1.204.882-2.086 2.086-2.086h7.896c1.204 0 2.086.882 2.086 2.086v.028c0 1.204-.882 2.086-2.086 2.086h-7.896c-1.204 0-2.086-.882-2.086-2.086v-.028zm7.641 0c0-1.204.882-2.086 2.086-2.086h4.032c1.204 0 2.086.882 2.086 2.086v.028c0 1.204-.882 2.086-2.086 2.086h-4.032c-1.204 0-2.086-.882-2.086-2.086v-.028zm3.786 0c0-1.204.882-2.086 2.086-2.086h7.896c1.204 0 2.086.882 2.086 2.086v.028c0 1.204-.882 2.086-2.086 2.086h-7.896c-1.204 0-2.086-.882-2.086-2.086v-.028zm7.641 0c0-1.204.882-2.086 2.086-2.086h7.896c1.204 0 2.086.882 2.086 2.086v.028c0 1.204-.882 2.086-2.086 2.086h-7.896c-1.204 0-2.086-.882-2.086-2.086v-.028zm7.641 0c0-1.204.882-2.086 2.086-2.086h4.032c1.204 0 2.086.882 2.086 2.086v.028c0 1.204-.882 2.086-2.086 2.086h-4.032c-1.204 0-2.086-.882-2.086-2.086v-.028zM.1 42.506c0-1.204.882-2.086 2.086-2.086h7.896c1.204 0 2.086.882 2.086 2.086v.028c0 1.204-.882 2.086-2.086 2.086H2.186C.982 44.62.1 43.738.1 42.534v-.028zm7.642 0c0-1.204.882-2.086 2.086-2.086h7.896c1.203 0 2.085.882 2.085 2.086v.028c0 1.204-.882 2.086-2.085 2.086H9.828c-1.204 0-2.086-.882-2.086-2.086v-.028zm7.64 0c0-1.204.883-2.086 2.087-2.086h7.896c1.204 0 2.086.882 2.086 2.086v.028c0 1.204-.882 2.086-2.086 2.086h-7.896c-1.204 0-2.086-.882-2.086-2.086v-.028zm7.642 0c0-1.204.882-2.086 2.086-2.086h7.896c1.204 0 2.086.882 2.086 2.086v.028c0 1.204-.882 2.086-2.086 2.086H25.11c-1.204 0-2.086-.882-2.086-2.086v-.028zm7.642 0c0-1.204.881-2.086 2.085-2.086h7.897c1.203 0 2.085.882 2.085 2.086v.028c0 1.204-.881 2.086-2.085 2.086H32.75c-1.203 0-2.085-.882-2.085-2.086v-.028zm7.64 0c0-1.204.883-2.086 2.087-2.086h7.896c1.204 0 2.086.882 2.086 2.086v.028c0 1.204-.882 2.086-2.086 2.086h-7.896c-1.204 0-2.086-.882-2.086-2.086v-.028zm7.642 0c0-1.204.882-2.086 2.086-2.086h7.896c1.204 0 2.086.882 2.086 2.086v.028c0 1.204-.882 2.086-2.086 2.086h-7.896c-1.204 0-2.086-.882-2.086-2.086v-.028zm7.642 0c0-1.204.881-2.086 2.085-2.086h4.033c1.203 0 2.086.882 2.086 2.086v.028c0 1.204-.883 2.086-2.086 2.086h-4.032c-1.205 0-2.087-.882-2.087-2.086v-.028zm3.785 0c0-1.204.882-2.086 2.086-2.086h7.896c1.204 0 2.086.882 2.086 2.086v.028c0 1.204-.882 2.086-2.086 2.086h-7.896c-1.204 0-2.086-.882-2.086-2.086v-.028zm7.642 0c0-1.204.882-2.086 2.086-2.086h4.032c1.204 0 2.086.882 2.086 2.086v.028c0 1.204-.882 2.086-2.086 2.086h-4.032c-1.204 0-2.086-.882-2.086-2.086v-.028zm11.96 0c0-1.204.882-2.086 2.086-2.086h7.896c1.204 0 2.086.882 2.086 2.086v.028c0 1.204-.882 2.086-2.086 2.086h-7.896c-1.204 0-2.086-.882-2.086-2.086v-.028zm7.641 0c0-1.204.882-2.086 2.086-2.086H94.6c1.204 0 2.086.882 2.086 2.086v.028c0 1.204-.882 2.086-2.086 2.086h-7.896c-1.204 0-2.086-.882-2.086-2.086v-.028zm7.642 0c0-1.204.882-2.086 2.086-2.086h7.896c1.204 0 2.086.882 2.086 2.086v.028c0 1.204-.882 2.086-2.086 2.086h-7.896c-1.204 0-2.086-.882-2.086-2.086v-.028zm15.816 0c0-1.204.882-2.086 2.086-2.086h7.896c1.204 0 2.086.882 2.086 2.086v.028c0 1.204-.882 2.086-2.086 2.086h-7.896c-1.204 0-2.086-.882-2.086-2.086v-.028zm7.641 0c0-1.204.882-2.086 2.086-2.086h4.032c1.204 0 2.086.882 2.086 2.086v.028c0 1.204-.882 2.086-2.086 2.086h-4.032c-1.204 0-2.086-.882-2.086-2.086v-.028zm3.786 0c0-1.204.882-2.086 2.086-2.086h7.896c1.204 0 2.086.882 2.086 2.086v.028c0 1.204-.882 2.086-2.086 2.086h-7.896c-1.204 0-2.086-.882-2.086-2.086v-.028zm7.641 0c0-1.204.882-2.086 2.086-2.086h4.032c1.204 0 2.086.882 2.086 2.086v.028c0 1.204-.882 2.086-2.086 2.086h-4.032c-1.204 0-2.086-.882-2.086-2.086v-.028zm3.786 0c0-1.204.882-2.086 2.086-2.086h7.896c1.204 0 2.086.882 2.086 2.086v.028c0 1.204-.882 2.086-2.086 2.086h-7.896c-1.204 0-2.086-.882-2.086-2.086v-.028zm15.816 0c0-1.204.882-2.086 2.086-2.086h7.896c1.204 0 2.086.882 2.086 2.086v.028c0 1.204-.882 2.086-2.086 2.086h-7.896c-1.204 0-2.086-.882-2.086-2.086v-.028zm7.641 0c0-1.204.882-2.086 2.086-2.086h7.896c1.204 0 2.086.882 2.086 2.086v.028c0 1.204-.882 2.086-2.086 2.086h-7.896c-1.204 0-2.086-.882-2.086-2.086v-.028zm7.641 0c0-1.204.882-2.086 2.086-2.086h7.896c1.204 0 2.086.882 2.086 2.086v.028c0 1.204-.882 2.086-2.086 2.086h-7.896c-1.204 0-2.086-.882-2.086-2.086v-.028zm15.816 0c0-1.204.882-2.086 2.086-2.086h7.896c1.204 0 2.086.882 2.086 2.086v.028c0 1.204-.882 2.086-2.086 2.086h-7.896c-1.204 0-2.086-.882-2.086-2.086v-.028zm7.642 0c0-1.204.882-2.086 2.086-2.086h4.032c1.204 0 2.086.882 2.086 2.086v.028c0 1.204-.882 2.086-2.086 2.086h-4.032c-1.204 0-2.086-.882-2.086-2.086v-.028zm3.786 0c0-1.204.882-2.086 2.086-2.086h4.032c1.204 0 2.086.882 2.086 2.086v.028c0 1.204-.882 2.086-2.086 2.086h-4.032c-1.204 0-2.086-.882-2.086-2.086v-.028zm3.785 0c0-1.204.882-2.086 2.086-2.086h7.896c1.204 0 2.086.882 2.086 2.086v.028c0 1.204-.882 2.086-2.086 2.086h-7.896c-1.204 0-2.086-.882-2.086-2.086v-.028zm7.642 0c0-1.204.882-2.086 2.086-2.086h7.896c1.204 0 2.086.882 2.086 2.086v.028c0 1.204-.882 2.086-2.086 2.086h-7.896c-1.204 0-2.086-.882-2.086-2.086v-.028zm7.641 0c0-1.204.882-2.086 2.086-2.086h4.032c1.204 0 2.086.882 2.086 2.086v.028c0 1.204-.882 2.086-2.086 2.086h-4.032c-1.204 0-2.086-.882-2.086-2.086v-.028zm3.786 0c0-1.204.882-2.086 2.086-2.086h7.896c1.204 0 2.086.882 2.086 2.086v.028c0 1.204-.882 2.086-2.086 2.086h-7.896c-1.204 0-2.086-.882-2.086-2.086v-.028zm7.641 0c0-1.204.882-2.086 2.086-2.086h4.032c1.204 0 2.086.882 2.086 2.086v.028c0 1.204-.882 2.086-2.086 2.086h-4.032c-1.204 0-2.086-.882-2.086-2.086v-.028zm3.786 0c0-1.204.882-2.086 2.086-2.086h7.896c1.204 0 2.086.882 2.086 2.086v.028c0 1.204-.882 2.086-2.086 2.086h-7.896c-1.204 0-2.086-.882-2.086-2.086v-.028zm23.99 0c0-1.204.882-2.086 2.086-2.086h7.896c1.204 0 2.086.882 2.086 2.086v.028c0 1.204-.882 2.086-2.086 2.086h-7.896c-1.204 0-2.086-.882-2.086-2.086v-.028zm7.642 0c0-1.204.882-2.086 2.086-2.086h4.032c1.204 0 2.086.882 2.086 2.086v.028c0 1.204-.882 2.086-2.086 2.086h-4.032c-1.204 0-2.086-.882-2.086-2.086v-.028zm3.786 0c0-1.204.882-2.086 2.086-2.086h4.032c1.204 0 2.086.882 2.086 2.086v.028c0 1.204-.882 2.086-2.086 2.086h-4.032c-1.204 0-2.086-.882-2.086-2.086v-.028zm3.786 0c0-1.204.882-2.086 2.086-2.086h7.896c1.204 0 2.086.882 2.086 2.086v.028c0 1.204-.882 2.086-2.086 2.086h-7.896c-1.204 0-2.086-.882-2.086-2.086v-.028zm15.815 0c0-1.204.882-2.086 2.086-2.086h4.032c1.204 0 2.086.882 2.086 2.086v.028c0 1.204-.882 2.086-2.086 2.086h-4.032c-1.204 0-2.086-.882-2.086-2.086v-.028zm3.786 0c0-1.204.882-2.086 2.086-2.086h4.032c1.204 0 2.086.882 2.086 2.086v.028c0 1.204-.882 2.086-2.086 2.086h-4.032c-1.204 0-2.086-.882-2.086-2.086v-.028zm3.786 0c0-1.204.882-2.086 2.086-2.086h7.896c1.204 0 2.086.882 2.086 2.086v.028c0 1.204-.882 2.086-2.086 2.086h-7.896c-1.204 0-2.086-.882-2.086-2.086v-.028zm7.641 0c0-1.204.882-2.086 2.086-2.086h7.896c1.204 0 2.086.882 2.086 2.086v.028c0 1.204-.882 2.086-2.086 2.086h-7.896c-1.204 0-2.086-.882-2.086-2.086v-.028zm7.642 0c0-1.204.882-2.086 2.086-2.086h4.032c1.204 0 2.086.882 2.086 2.086v.028c0 1.204-.882 2.086-2.086 2.086h-4.032c-1.204 0-2.086-.882-2.086-2.086v-.028zm3.786 0c0-1.204.882-2.086 2.086-2.086h4.032c1.204 0 2.086.882 2.086 2.086v.028c0 1.204-.882 2.086-2.086 2.086h-4.032c-1.204 0-2.086-.882-2.086-2.086v-.028zm3.785 0c0-1.204.882-2.086 2.086-2.086h7.896c1.204 0 2.086.882 2.086 2.086v.028c0 1.204-.882 2.086-2.086 2.086h-7.896c-1.204 0-2.086-.882-2.086-2.086v-.028zm7.642 0c0-1.204.882-2.086 2.086-2.086h7.896c1.204 0 2.086.882 2.086 2.086v.028c0 1.204-.882 2.086-2.086 2.086h-7.896c-1.204 0-2.086-.882-2.086-2.086v-.028zm7.641 0c0-1.204.882-2.086 2.086-2.086h4.032c1.204 0 2.086.882 2.086 2.086v.028c0 1.204-.882 2.086-2.086 2.086h-4.032c-1.204 0-2.086-.882-2.086-2.086v-.028zm-324.18 20c0-1.204.881-2.086 2.085-2.086h4.032c1.204 0 2.086.882 2.086 2.086v.028c0 1.204-.882 2.086-2.086 2.086H2.186C.982 64.62.1 63.738.1 62.534v-.028zm3.785 0c0-1.204.882-2.086 2.086-2.086h7.896c1.204 0 2.086.882 2.086 2.086v.028c0 1.204-.882 2.086-2.086 2.086H5.972c-1.204 0-2.086-.882-2.086-2.086v-.028zm7.641 0c0-1.204.882-2.086 2.086-2.086h4.032c1.204 0 2.086.882 2.086 2.086v.028c0 1.204-.882 2.086-2.086 2.086h-4.032c-1.204 0-2.086-.882-2.086-2.086v-.028zm3.786 0c0-1.204.882-2.086 2.086-2.086h7.896c1.204 0 2.086.882 2.086 2.086v.028c0 1.204-.882 2.086-2.086 2.086H17.4c-1.204 0-2.086-.882-2.086-2.086v-.028zm7.642 0c0-1.204.882-2.086 2.086-2.086h7.896c1.204 0 2.086.882 2.086 2.086v.028c0 1.204-.882 2.086-2.086 2.086H25.04c-1.204 0-2.086-.882-2.086-2.086v-.028zm7.64 0c0-1.204.883-2.086 2.087-2.086h4.032c1.204 0 2.086.882 2.086 2.086v.028c0 1.204-.882 2.086-2.086 2.086h-4.032c-1.204 0-2.086-.882-2.086-2.086v-.028zm3.787 0c0-1.204.882-2.086 2.086-2.086H40.5c1.204 0 2.086.882 2.086 2.086v.028c0 1.204-.882 2.086-2.086 2.086h-4.032c-1.204 0-2.086-.882-2.086-2.086v-.028zm3.786 0c0-1.204.882-2.086 2.086-2.086h4.032c1.204 0 2.086.882 2.086 2.086v.028c0 1.204-.882 2.086-2.086 2.086h-4.032c-1.204 0-2.086-.882-2.086-2.086v-.028zm3.785 0c0-1.204.883-2.086 2.086-2.086h7.896c1.204 0 2.087.882 2.087 2.086v.028c0 1.204-.883 2.086-2.087 2.086H44.04c-1.203 0-2.086-.882-2.086-2.086v-.028zm7.642 0c0-1.204.882-2.086 2.086-2.086h7.896c1.204 0 2.086.882 2.086 2.086v.028c0 1.204-.882 2.086-2.086 2.086H51.68c-1.204 0-2.086-.882-2.086-2.086v-.028zm15.816 0c0-1.204.882-2.086 2.086-2.086h7.896c1.204 0 2.086.882 2.086 2.086v.028c0 1.204-.882 2.086-2.086 2.086h-7.896c-1.204 0-2.086-.882-2.086-2.086v-.028zm7.641 0c0-1.204.882-2.086 2.086-2.086h7.896c1.204 0 2.086.882 2.086 2.086v.028c0 1.204-.882 2.086-2.086 2.086h-7.896c-1.204 0-2.086-.882-2.086-2.086v-.028zm7.641 0c0-1.204.882-2.086 2.086-2.086h4.032c1.204 0 2.086.882 2.086 2.086v.028c0 1.204-.882 2.086-2.086 2.086H82.78c-1.204 0-2.086-.882-2.086-2.086v-.028zm3.786 0c0-1.204.882-2.086 2.086-2.086h4.032c1.204 0 2.086.882 2.086 2.086v.028c0 1.204-.882 2.086-2.086 2.086h-4.032c-1.204 0-2.086-.882-2.086-2.086v-.028zm3.786 0c0-1.204.882-2.086 2.086-2.086h7.896c1.204 0 2.086.882 2.086 2.086v.028c0 1.204-.882 2.086-2.086 2.086h-7.896c-1.204 0-2.086-.882-2.086-2.086v-.028zm7.641 0c0-1.204.882-2.086 2.086-2.086h7.896c1.204 0 2.086.882 2.086 2.086v.028c0 1.204-.882 2.086-2.086 2.086h-7.896c-1.204 0-2.086-.882-2.086-2.086v-.028zm7.642 0c0-1.204.882-2.086 2.086-2.086h7.896c1.204 0 2.086.882 2.086 2.086v.028c0 1.204-.882 2.086-2.086 2.086h-7.896c-1.204 0-2.086-.882-2.086-2.086v-.028zM.1 102.506c0-1.204.882-2.086 2.086-2.086h7.896c1.204 0 2.086.882 2.086 2.086v.028c0 1.204-.882 2.086-2.086 2.086H2.186c-1.204 0-2.086-.882-2.086-2.086v-.028zm7.642 0c0-1.204.882-2.086 2.086-2.086h4.032c1.204 0 2.085.882 2.085 2.086v.028c0 1.204-.882 2.086-2.085 2.086H9.828c-1.204 0-2.086-.882-2.086-2.086v-.028zm3.785 0c0-1.204.882-2.086 2.086-2.086h4.032c1.204 0 2.086.882 2.086 2.086v.028c0 1.204-.882 2.086-2.086 2.086h-4.032c-1.204 0-2.086-.882-2.086-2.086v-.028zm3.786 0c0-1.204.882-2.086 2.086-2.086h4.032c1.204 0 2.086.882 2.086 2.086v.028c0 1.204-.882 2.086-2.086 2.086H17.4c-1.204 0-2.086-.882-2.086-2.086v-.028zm3.786 0c0-1.204.882-2.086 2.086-2.086h7.896c1.204 0 2.086.882 2.086 2.086v.028c0 1.204-.882 2.086-2.086 2.086h-7.896c-1.204 0-2.086-.882-2.086-2.086v-.028zm15.816 0c0-1.204.882-2.086 2.086-2.086h7.896c1.204 0 2.086.882 2.086 2.086v.028c0 1.204-.882 2.086-2.086 2.086h-7.896c-1.204 0-2.086-.882-2.086-2.086v-.028zm7.641 0c0-1.204.882-2.086 2.086-2.086h7.896c1.204 0 2.086.882 2.086 2.086v.028c0 1.204-.882 2.086-2.086 2.086h-7.896c-1.204 0-2.086-.882-2.086-2.086v-.028zm7.642 0c0-1.204.882-2.086 2.086-2.086h7.896c1.204 0 2.086.882 2.086 2.086v.028c0 1.204-.882 2.086-2.086 2.086h-7.896c-1.204 0-2.086-.882-2.086-2.086v-.028zm7.64 0c0-1.204.883-2.086 2.087-2.086h7.896c1.204 0 2.086.882 2.086 2.086v.028c0 1.204-.882 2.086-2.086 2.086h-7.896c-1.204 0-2.086-.882-2.086-2.086v-.028zm15.817 0c0-1.204.882-2.086 2.086-2.086h7.896c1.204 0 2.086.882 2.086 2.086v.028c0 1.204-.882 2.086-2.086 2.086H75.74c-1.204 0-2.086-.882-2.086-2.086v-.028zm7.641 0c0-1.204.882-2.086 2.086-2.086h4.032c1.204 0 2.086.882 2.086 2.086v.028c0 1.204-.882 2.086-2.086 2.086h-4.032c-1.204 0-2.086-.882-2.086-2.086v-.028zm3.786 0c0-1.204.882-2.086 2.086-2.086h7.896c1.204 0 2.086.882 2.086 2.086v.028c0 1.204-.882 2.086-2.086 2.086h-7.896c-1.204 0-2.086-.882-2.086-2.086v-.028zm7.641 0c0-1.204.882-2.086 2.086-2.086h7.896c1.204 0 2.086.882 2.086 2.086v.028c0 1.204-.882 2.086-2.086 2.086h-7.896c-1.204 0-2.086-.882-2.086-2.086v-.028zm7.642 0c0-1.204.882-2.086 2.086-2.086h7.896c1.204 0 2.086.882 2.086 2.086v.028c0 1.204-.882 2.086-2.086 2.086h-7.896c-1.204 0-2.086-.882-2.086-2.086v-.028zm7.641 0c0-1.204.882-2.086 2.086-2.086h7.896c1.204 0 2.086.882 2.086 2.086v.028c0 1.204-.882 2.086-2.086 2.086h-7.896c-1.204 0-2.086-.882-2.086-2.086v-.028zm7.641 0c0-1.204.882-2.086 2.086-2.086h4.032c1.204 0 2.086.882 2.086 2.086v.028c0 1.204-.882 2.086-2.086 2.086h-4.032c-1.204 0-2.086-.882-2.086-2.086v-.028zm11.961 0c0-1.204.882-2.086 2.086-2.086h4.032c1.204 0 2.086.882 2.086 2.086v.028c0 1.204-.882 2.086-2.086 2.086h-4.032c-1.204 0-2.086-.882-2.086-2.086v-.028zm3.786 0c0-1.204.882-2.086 2.086-2.086h7.896c1.204 0 2.086.882 2.086 2.086v.028c0 1.204-.882 2.086-2.086 2.086h-7.896c-1.204 0-2.086-.882-2.086-2.086v-.028zm7.641 0c0-1.204.882-2.086 2.086-2.086h7.896c1.204 0 2.086.882 2.086 2.086v.028c0 1.204-.882 2.086-2.086 2.086h-7.896c-1.204 0-2.086-.882-2.086-2.086v-.028zm7.641 0c0-1.204.882-2.086 2.086-2.086h7.896c1.204 0 2.086.882 2.086 2.086v.028c0 1.204-.882 2.086-2.086 2.086h-7.896c-1.204 0-2.086-.882-2.086-2.086v-.028zm7.642 0c0-1.204.882-2.086 2.086-2.086h7.896c1.204 0 2.086.882 2.086 2.086v.028c0 1.204-.882 2.086-2.086 2.086h-7.896c-1.204 0-2.086-.882-2.086-2.086v-.028zm15.815 0c0-1.204.882-2.086 2.086-2.086h7.896c1.204 0 2.086.882 2.086 2.086v.028c0 1.204-.882 2.086-2.086 2.086h-7.896c-1.204 0-2.086-.882-2.086-2.086v-.028zm7.642 0c0-1.204.882-2.086 2.086-2.086h7.896c1.204 0 2.086.882 2.086 2.086v.028c0 1.204-.882 2.086-2.086 2.086h-7.896c-1.204 0-2.086-.882-2.086-2.086v-.028zm7.641 0c0-1.204.882-2.086 2.086-2.086h7.896c1.204 0 2.086.882 2.086 2.086v.028c0 1.204-.882 2.086-2.086 2.086h-7.896c-1.204 0-2.086-.882-2.086-2.086v-.028zm15.816 0c0-1.204.882-2.086 2.086-2.086h7.896c1.204 0 2.086.882 2.086 2.086v.028c0 1.204-.882 2.086-2.086 2.086h-7.896c-1.204 0-2.086-.882-2.086-2.086v-.028zm7.641 0c0-1.204.882-2.086 2.086-2.086h7.896c1.204 0 2.086.882 2.086 2.086v.028c0 1.204-.882 2.086-2.086 2.086h-7.896c-1.204 0-2.086-.882-2.086-2.086v-.028zm7.642 0c0-1.204.882-2.086 2.086-2.086h4.032c1.204 0 2.086.882 2.086 2.086v.028c0 1.204-.882 2.086-2.086 2.086h-4.032c-1.204 0-2.086-.882-2.086-2.086v-.028zm3.785 0c0-1.204.882-2.086 2.086-2.086h7.896c1.204 0 2.086.882 2.086 2.086v.028c0 1.204-.882 2.086-2.086 2.086h-7.896c-1.204 0-2.086-.882-2.086-2.086v-.028zm15.816 0c0-1.204.882-2.086 2.086-2.086h4.032c1.204 0 2.086.882 2.086 2.086v.028c0 1.204-.882 2.086-2.086 2.086h-4.032c-1.204 0-2.086-.882-2.086-2.086v-.028zm3.786 0c0-1.204.882-2.086 2.086-2.086h7.896c1.204 0 2.086.882 2.086 2.086v.028c0 1.204-.882 2.086-2.086 2.086h-7.896c-1.204 0-2.086-.882-2.086-2.086v-.028zm7.641 0c0-1.204.882-2.086 2.086-2.086h7.896c1.204 0 2.086.882 2.086 2.086v.028c0 1.204-.882 2.086-2.086 2.086h-7.896c-1.204 0-2.086-.882-2.086-2.086v-.028zm7.642 0c0-1.204.882-2.086 2.086-2.086h7.896c1.204 0 2.086.882 2.086 2.086v.028c0 1.204-.882 2.086-2.086 2.086h-7.896c-1.204 0-2.086-.882-2.086-2.086v-.028zm7.641 0c0-1.204.882-2.086 2.086-2.086h4.032c1.204 0 2.086.882 2.086 2.086v.028c0 1.204-.882 2.086-2.086 2.086h-4.032c-1.204 0-2.086-.882-2.086-2.086v-.028zm3.786 0c0-1.204.882-2.086 2.086-2.086h7.896c1.204 0 2.086.882 2.086 2.086v.028c0 1.204-.882 2.086-2.086 2.086h-7.896c-1.204 0-2.086-.882-2.086-2.086v-.028zm7.641 0c0-1.204.882-2.086 2.086-2.086h7.896c1.204 0 2.086.882 2.086 2.086v.028c0 1.204-.882 2.086-2.086 2.086h-7.896c-1.204 0-2.086-.882-2.086-2.086v-.028zm7.642 0c0-1.204.882-2.086 2.086-2.086h4.032c1.204 0 2.086.882 2.086 2.086v.028c0 1.204-.882 2.086-2.086 2.086h-4.032c-1.204 0-2.086-.882-2.086-2.086v-.028zm11.96 0c0-1.204.882-2.086 2.086-2.086h7.896c1.204 0 2.086.882 2.086 2.086v.028c0 1.204-.882 2.086-2.086 2.086h-7.896c-1.204 0-2.086-.882-2.086-2.086v-.028zm7.641 0c0-1.204.882-2.086 2.086-2.086h7.896c1.204 0 2.086.882 2.086 2.086v.028c0 1.204-.882 2.086-2.086 2.086h-7.896c-1.204 0-2.086-.882-2.086-2.086v-.028zM.1 122.506c0-1.204.882-2.086 2.086-2.086h4.032c1.204 0 2.086.882 2.086 2.086v.028c0 1.204-.882 2.086-2.086 2.086H2.186c-1.204 0-2.086-.882-2.086-2.086v-.028zm3.786 0c0-1.204.882-2.086 2.086-2.086h7.896c1.204 0 2.086.882 2.086 2.086v.028c0 1.204-.882 2.086-2.086 2.086H5.972c-1.204 0-2.086-.882-2.086-2.086v-.028zm7.641 0c0-1.204.882-2.086 2.086-2.086h7.896c1.204 0 2.086.882 2.086 2.086v.028c0 1.204-.882 2.086-2.086 2.086h-7.896c-1.204 0-2.086-.882-2.086-2.086v-.028zm7.642 0c0-1.204.882-2.086 2.086-2.086h4.032c1.204 0 2.086.882 2.086 2.086v.028c0 1.204-.882 2.086-2.086 2.086h-4.032c-1.204 0-2.086-.882-2.086-2.086v-.028zm3.786 0c0-1.204.882-2.086 2.086-2.086h7.896c1.204 0 2.086.882 2.086 2.086v.028c0 1.204-.882 2.086-2.086 2.086H25.04c-1.204 0-2.086-.882-2.086-2.086v-.028zm7.64 0c0-1.204.883-2.086 2.087-2.086h4.032c1.204 0 2.086.882 2.086 2.086v.028c0 1.204-.882 2.086-2.086 2.086h-4.032c-1.204 0-2.086-.882-2.086-2.086v-.028zm3.787 0c0-1.204.882-2.086 2.086-2.086h7.896c1.204 0 2.086.882 2.086 2.086v.028c0 1.204-.882 2.086-2.086 2.086h-7.896c-1.204 0-2.086-.882-2.086-2.086v-.028zm15.816 0c0-1.204.882-2.086 2.086-2.086h7.896c1.204 0 2.086.882 2.086 2.086v.028c0 1.204-.882 2.086-2.086 2.086h-7.896c-1.204 0-2.086-.882-2.086-2.086v-.028zm7.64 0c0-1.204.883-2.086 2.087-2.086h7.896c1.204 0 2.086.882 2.086 2.086v.028c0 1.204-.882 2.086-2.086 2.086h-7.896c-1.204 0-2.086-.882-2.086-2.086v-.028zm7.642 0c0-1.204.882-2.086 2.086-2.086h7.896c1.204 0 2.086.882 2.086 2.086v.028c0 1.204-.882 2.086-2.086 2.086h-7.896c-1.204 0-2.086-.882-2.086-2.086v-.028zm7.642 0c0-1.204.882-2.086 2.086-2.086h7.896c1.204 0 2.086.882 2.086 2.086v.028c0 1.204-.882 2.086-2.086 2.086h-7.896c-1.204 0-2.086-.882-2.086-2.086v-.028zm7.64 0c0-1.204.883-2.086 2.087-2.086h7.896c1.204 0 2.086.882 2.086 2.086v.028c0 1.204-.882 2.086-2.086 2.086h-7.896c-1.204 0-2.086-.882-2.086-2.086v-.028zm15.817 0c0-1.204.882-2.086 2.086-2.086h4.032c1.204 0 2.086.882 2.086 2.086v.028c0 1.204-.882 2.086-2.086 2.086h-4.032c-1.204 0-2.086-.882-2.086-2.086v-.028zm3.786 0c0-1.204.882-2.086 2.086-2.086h7.896c1.204 0 2.086.882 2.086 2.086v.028c0 1.204-.882 2.086-2.086 2.086h-7.896c-1.204 0-2.086-.882-2.086-2.086v-.028zm15.816 0c0-1.204.882-2.086 2.086-2.086h4.032c1.204 0 2.086.882 2.086 2.086v.028c0 1.204-.882 2.086-2.086 2.086h-4.032c-1.204 0-2.086-.882-2.086-2.086v-.028zm3.785 0c0-1.204.882-2.086 2.086-2.086h7.896c1.204 0 2.086.882 2.086 2.086v.028c0 1.204-.882 2.086-2.086 2.086h-7.896c-1.204 0-2.086-.882-2.086-2.086v-.028zm7.642 0c0-1.204.882-2.086 2.086-2.086h7.896c1.204 0 2.086.882 2.086 2.086v.028c0 1.204-.882 2.086-2.086 2.086h-7.896c-1.204 0-2.086-.882-2.086-2.086v-.028zm7.641 0c0-1.204.882-2.086 2.086-2.086h4.032c1.204 0 2.086.882 2.086 2.086v.028c0 1.204-.882 2.086-2.086 2.086h-4.032c-1.204 0-2.086-.882-2.086-2.086v-.028zm3.786 0c0-1.204.882-2.086 2.086-2.086h4.032c1.204 0 2.086.882 2.086 2.086v.028c0 1.204-.882 2.086-2.086 2.086h-4.032c-1.204 0-2.086-.882-2.086-2.086v-.028zm3.786 0c0-1.204.882-2.086 2.086-2.086h4.032c1.204 0 2.086.882 2.086 2.086v.028c0 1.204-.882 2.086-2.086 2.086h-4.032c-1.204 0-2.086-.882-2.086-2.086v-.028zm3.786 0c0-1.204.882-2.086 2.086-2.086h7.896c1.204 0 2.086.882 2.086 2.086v.028c0 1.204-.882 2.086-2.086 2.086h-7.896c-1.204 0-2.086-.882-2.086-2.086v-.028zm7.641 0c0-1.204.882-2.086 2.086-2.086h7.896c1.204 0 2.086.882 2.086 2.086v.028c0 1.204-.882 2.086-2.086 2.086h-7.896c-1.204 0-2.086-.882-2.086-2.086v-.028zm7.641 0c0-1.204.882-2.086 2.086-2.086h4.032c1.204 0 2.086.882 2.086 2.086v.028c0 1.204-.882 2.086-2.086 2.086h-4.032c-1.204 0-2.086-.882-2.086-2.086v-.028zm11.961 0c0-1.204.882-2.086 2.086-2.086h7.896c1.204 0 2.086.882 2.086 2.086v.028c0 1.204-.882 2.086-2.086 2.086h-7.896c-1.204 0-2.086-.882-2.086-2.086v-.028zm7.641 0c0-1.204.882-2.086 2.086-2.086h7.896c1.204 0 2.086.882 2.086 2.086v.028c0 1.204-.882 2.086-2.086 2.086h-7.896c-1.204 0-2.086-.882-2.086-2.086v-.028zm7.641 0c0-1.204.882-2.086 2.086-2.086h4.032c1.204 0 2.086.882 2.086 2.086v.028c0 1.204-.882 2.086-2.086 2.086h-4.032c-1.204 0-2.086-.882-2.086-2.086v-.028zm3.786 0c0-1.204.882-2.086 2.086-2.086h4.032c1.204 0 2.086.882 2.086 2.086v.028c0 1.204-.882 2.086-2.086 2.086h-4.032c-1.204 0-2.086-.882-2.086-2.086v-.028zm3.786 0c0-1.204.882-2.086 2.086-2.086h4.032c1.204 0 2.086.882 2.086 2.086v.028c0 1.204-.882 2.086-2.086 2.086h-4.032c-1.204 0-2.086-.882-2.086-2.086v-.028zm3.786 0c0-1.204.882-2.086 2.086-2.086h7.896c1.204 0 2.086.882 2.086 2.086v.028c0 1.204-.882 2.086-2.086 2.086h-7.896c-1.204 0-2.086-.882-2.086-2.086v-.028zm7.641 0c0-1.204.882-2.086 2.086-2.086h4.032c1.204 0 2.086.882 2.086 2.086v.028c0 1.204-.882 2.086-2.086 2.086h-4.032c-1.204 0-2.086-.882-2.086-2.086v-.028zm3.786 0c0-1.204.882-2.086 2.086-2.086h7.896c1.204 0 2.086.882 2.086 2.086v.028c0 1.204-.882 2.086-2.086 2.086h-7.896c-1.204 0-2.086-.882-2.086-2.086v-.028zm7.641 0c0-1.204.882-2.086 2.086-2.086h7.896c1.204 0 2.086.882 2.086 2.086v.028c0 1.204-.882 2.086-2.086 2.086h-7.896c-1.204 0-2.086-.882-2.086-2.086v-.028zm7.642 0c0-1.204.882-2.086 2.086-2.086h7.896c1.204 0 2.086.882 2.086 2.086v.028c0 1.204-.882 2.086-2.086 2.086h-7.896c-1.204 0-2.086-.882-2.086-2.086v-.028zm7.641 0c0-1.204.882-2.086 2.086-2.086h4.032c1.204 0 2.086.882 2.086 2.086v.028c0 1.204-.882 2.086-2.086 2.086h-4.032c-1.204 0-2.086-.882-2.086-2.086v-.028zm11.96 0c0-1.204.882-2.086 2.086-2.086h7.896c1.204 0 2.086.882 2.086 2.086v.028c0 1.204-.882 2.086-2.086 2.086h-7.896c-1.204 0-2.086-.882-2.086-2.086v-.028zm7.642 0c0-1.204.882-2.086 2.086-2.086h4.032c1.204 0 2.086.882 2.086 2.086v.028c0 1.204-.882 2.086-2.086 2.086h-4.032c-1.204 0-2.086-.882-2.086-2.086v-.028zm3.786 0c0-1.204.882-2.086 2.086-2.086h7.896c1.204 0 2.086.882 2.086 2.086v.028c0 1.204-.882 2.086-2.086 2.086h-7.896c-1.204 0-2.086-.882-2.086-2.086v-.028zm7.641 0c0-1.204.882-2.086 2.086-2.086h4.032c1.204 0 2.086.882 2.086 2.086v.028c0 1.204-.882 2.086-2.086 2.086h-4.032c-1.204 0-2.086-.882-2.086-2.086v-.028zm3.786 0c0-1.204.882-2.086 2.086-2.086h7.896c1.204 0 2.086.882 2.086 2.086v.028c0 1.204-.882 2.086-2.086 2.086h-7.896c-1.204 0-2.086-.882-2.086-2.086v-.028zm7.641 0c0-1.204.882-2.086 2.086-2.086h7.896c1.204 0 2.086.882 2.086 2.086v.028c0 1.204-.882 2.086-2.086 2.086h-7.896c-1.204 0-2.086-.882-2.086-2.086v-.028zm7.641 0c0-1.204.882-2.086 2.086-2.086h4.032c1.204 0 2.086.882 2.086 2.086v.028c0 1.204-.882 2.086-2.086 2.086h-4.032c-1.204 0-2.086-.882-2.086-2.086v-.028zM.1 142.506c0-1.204.882-2.086 2.086-2.086h7.896c1.204 0 2.086.882 2.086 2.086v.028c0 1.204-.882 2.086-2.086 2.086H2.186c-1.204 0-2.086-.882-2.086-2.086v-.028zm7.642 0c0-1.204.882-2.086 2.086-2.086h7.896c1.203 0 2.085.882 2.085 2.086v.028c0 1.204-.882 2.086-2.085 2.086H9.828c-1.204 0-2.086-.882-2.086-2.086v-.028zm7.64 0c0-1.204.883-2.086 2.087-2.086h7.896c1.204 0 2.086.882 2.086 2.086v.028c0 1.204-.882 2.086-2.086 2.086h-7.896c-1.204 0-2.086-.882-2.086-2.086v-.028zm7.642 0c0-1.204.882-2.086 2.086-2.086h7.896c1.204 0 2.086.882 2.086 2.086v.028c0 1.204-.882 2.086-2.086 2.086H25.11c-1.204 0-2.086-.882-2.086-2.086v-.028zm7.642 0c0-1.204.881-2.086 2.085-2.086h7.897c1.203 0 2.085.882 2.085 2.086v.028c0 1.204-.881 2.086-2.085 2.086H32.75c-1.203 0-2.085-.882-2.085-2.086v-.028zm7.64 0c0-1.204.883-2.086 2.087-2.086h7.896c1.204 0 2.086.882 2.086 2.086v.028c0 1.204-.882 2.086-2.086 2.086h-7.896c-1.204 0-2.086-.882-2.086-2.086v-.028zm7.642 0c0-1.204.882-2.086 2.086-2.086h7.896c1.204 0 2.086.882 2.086 2.086v.028c0 1.204-.882 2.086-2.086 2.086h-7.896c-1.204 0-2.086-.882-2.086-2.086v-.028zm7.642 0c0-1.204.881-2.086 2.085-2.086h4.033c1.203 0 2.086.882 2.086 2.086v.028c0 1.204-.883 2.086-2.086 2.086h-4.032c-1.205 0-2.087-.882-2.087-2.086v-.028zm3.785 0c0-1.204.882-2.086 2.086-2.086h7.896c1.204 0 2.086.882 2.086 2.086v.028c0 1.204-.882 2.086-2.086 2.086h-7.896c-1.204 0-2.086-.882-2.086-2.086v-.028zm7.642 0c0-1.204.882-2.086 2.086-2.086h4.032c1.204 0 2.086.882 2.086 2.086v.028c0 1.204-.882 2.086-2.086 2.086h-4.032c-1.204 0-2.086-.882-2.086-2.086v-.028zm11.96 0c0-1.204.882-2.086 2.086-2.086h7.896c1.204 0 2.086.882 2.086 2.086v.028c0 1.204-.882 2.086-2.086 2.086h-7.896c-1.204 0-2.086-.882-2.086-2.086v-.028zm7.641 0c0-1.204.882-2.086 2.086-2.086H94.6c1.204 0 2.086.882 2.086 2.086v.028c0 1.204-.882 2.086-2.086 2.086h-7.896c-1.204 0-2.086-.882-2.086-2.086v-.028zm7.642 0c0-1.204.882-2.086 2.086-2.086h7.896c1.204 0 2.086.882 2.086 2.086v.028c0 1.204-.882 2.086-2.086 2.086h-7.896c-1.204 0-2.086-.882-2.086-2.086v-.028zm15.816 0c0-1.204.882-2.086 2.086-2.086h7.896c1.204 0 2.086.882 2.086 2.086v.028c0 1.204-.882 2.086-2.086 2.086h-7.896c-1.204 0-2.086-.882-2.086-2.086v-.028zm7.641 0c0-1.204.882-2.086 2.086-2.086h4.032c1.204 0 2.086.882 2.086 2.086v.028c0 1.204-.882 2.086-2.086 2.086h-4.032c-1.204 0-2.086-.882-2.086-2.086v-.028zm3.786 0c0-1.204.882-2.086 2.086-2.086h7.896c1.204 0 2.086.882 2.086 2.086v.028c0 1.204-.882 2.086-2.086 2.086h-7.896c-1.204 0-2.086-.882-2.086-2.086v-.028zm7.641 0c0-1.204.882-2.086 2.086-2.086h4.032c1.204 0 2.086.882 2.086 2.086v.028c0 1.204-.882 2.086-2.086 2.086h-4.032c-1.204 0-2.086-.882-2.086-2.086v-.028zm3.786 0c0-1.204.882-2.086 2.086-2.086h7.896c1.204 0 2.086.882 2.086 2.086v.028c0 1.204-.882 2.086-2.086 2.086h-7.896c-1.204 0-2.086-.882-2.086-2.086v-.028zm15.816 0c0-1.204.882-2.086 2.086-2.086h7.896c1.204 0 2.086.882 2.086 2.086v.028c0 1.204-.882 2.086-2.086 2.086h-7.896c-1.204 0-2.086-.882-2.086-2.086v-.028zm7.641 0c0-1.204.882-2.086 2.086-2.086h7.896c1.204 0 2.086.882 2.086 2.086v.028c0 1.204-.882 2.086-2.086 2.086h-7.896c-1.204 0-2.086-.882-2.086-2.086v-.028zm7.641 0c0-1.204.882-2.086 2.086-2.086h7.896c1.204 0 2.086.882 2.086 2.086v.028c0 1.204-.882 2.086-2.086 2.086h-7.896c-1.204 0-2.086-.882-2.086-2.086v-.028zm15.816 0c0-1.204.882-2.086 2.086-2.086h7.896c1.204 0 2.086.882 2.086 2.086v.028c0 1.204-.882 2.086-2.086 2.086h-7.896c-1.204 0-2.086-.882-2.086-2.086v-.028zm7.642 0c0-1.204.882-2.086 2.086-2.086h4.032c1.204 0 2.086.882 2.086 2.086v.028c0 1.204-.882 2.086-2.086 2.086h-4.032c-1.204 0-2.086-.882-2.086-2.086v-.028zm3.786 0c0-1.204.882-2.086 2.086-2.086h4.032c1.204 0 2.086.882 2.086 2.086v.028c0 1.204-.882 2.086-2.086 2.086h-4.032c-1.204 0-2.086-.882-2.086-2.086v-.028zm3.785 0c0-1.204.882-2.086 2.086-2.086h7.896c1.204 0 2.086.882 2.086 2.086v.028c0 1.204-.882 2.086-2.086 2.086h-7.896c-1.204 0-2.086-.882-2.086-2.086v-.028zm7.642 0c0-1.204.882-2.086 2.086-2.086h7.896c1.204 0 2.086.882 2.086 2.086v.028c0 1.204-.882 2.086-2.086 2.086h-7.896c-1.204 0-2.086-.882-2.086-2.086v-.028zm7.641 0c0-1.204.882-2.086 2.086-2.086h4.032c1.204 0 2.086.882 2.086 2.086v.028c0 1.204-.882 2.086-2.086 2.086h-4.032c-1.204 0-2.086-.882-2.086-2.086v-.028zm3.786 0c0-1.204.882-2.086 2.086-2.086h7.896c1.204 0 2.086.882 2.086 2.086v.028c0 1.204-.882 2.086-2.086 2.086h-7.896c-1.204 0-2.086-.882-2.086-2.086v-.028zm7.641 0c0-1.204.882-2.086 2.086-2.086h4.032c1.204 0 2.086.882 2.086 2.086v.028c0 1.204-.882 2.086-2.086 2.086h-4.032c-1.204 0-2.086-.882-2.086-2.086v-.028zm3.786 0c0-1.204.882-2.086 2.086-2.086h7.896c1.204 0 2.086.882 2.086 2.086v.028c0 1.204-.882 2.086-2.086 2.086h-7.896c-1.204 0-2.086-.882-2.086-2.086v-.028zm23.99 0c0-1.204.882-2.086 2.086-2.086h7.896c1.204 0 2.086.882 2.086 2.086v.028c0 1.204-.882 2.086-2.086 2.086h-7.896c-1.204 0-2.086-.882-2.086-2.086v-.028zm7.642 0c0-1.204.882-2.086 2.086-2.086h4.032c1.204 0 2.086.882 2.086 2.086v.028c0 1.204-.882 2.086-2.086 2.086h-4.032c-1.204 0-2.086-.882-2.086-2.086v-.028zm3.786 0c0-1.204.882-2.086 2.086-2.086h4.032c1.204 0 2.086.882 2.086 2.086v.028c0 1.204-.882 2.086-2.086 2.086h-4.032c-1.204 0-2.086-.882-2.086-2.086v-.028zm3.786 0c0-1.204.882-2.086 2.086-2.086h7.896c1.204 0 2.086.882 2.086 2.086v.028c0 1.204-.882 2.086-2.086 2.086h-7.896c-1.204 0-2.086-.882-2.086-2.086v-.028zm15.815 0c0-1.204.882-2.086 2.086-2.086h4.032c1.204 0 2.086.882 2.086 2.086v.028c0 1.204-.882 2.086-2.086 2.086h-4.032c-1.204 0-2.086-.882-2.086-2.086v-.028zm3.786 0c0-1.204.882-2.086 2.086-2.086h4.032c1.204 0 2.086.882 2.086 2.086v.028c0 1.204-.882 2.086-2.086 2.086h-4.032c-1.204 0-2.086-.882-2.086-2.086v-.028zm3.786 0c0-1.204.882-2.086 2.086-2.086h7.896c1.204 0 2.086.882 2.086 2.086v.028c0 1.204-.882 2.086-2.086 2.086h-7.896c-1.204 0-2.086-.882-2.086-2.086v-.028zm7.641 0c0-1.204.882-2.086 2.086-2.086h7.896c1.204 0 2.086.882 2.086 2.086v.028c0 1.204-.882 2.086-2.086 2.086h-7.896c-1.204 0-2.086-.882-2.086-2.086v-.028zm7.642 0c0-1.204.882-2.086 2.086-2.086h4.032c1.204 0 2.086.882 2.086 2.086v.028c0 1.204-.882 2.086-2.086 2.086h-4.032c-1.204 0-2.086-.882-2.086-2.086v-.028zm3.786 0c0-1.204.882-2.086 2.086-2.086h4.032c1.204 0 2.086.882 2.086 2.086v.028c0 1.204-.882 2.086-2.086 2.086h-4.032c-1.204 0-2.086-.882-2.086-2.086v-.028zm3.785 0c0-1.204.882-2.086 2.086-2.086h7.896c1.204 0 2.086.882 2.086 2.086v.028c0 1.204-.882 2.086-2.086 2.086h-7.896c-1.204 0-2.086-.882-2.086-2.086v-.028zm7.642 0c0-1.204.882-2.086 2.086-2.086h7.896c1.204 0 2.086.882 2.086 2.086v.028c0 1.204-.882 2.086-2.086 2.086h-7.896c-1.204 0-2.086-.882-2.086-2.086v-.028zm7.641 0c0-1.204.882-2.086 2.086-2.086h4.032c1.204 0 2.086.882 2.086 2.086v.028c0 1.204-.882 2.086-2.086 2.086h-4.032c-1.204 0-2.086-.882-2.086-2.086v-.028zm-324.18 20c0-1.204.881-2.086 2.085-2.086h4.032c1.204 0 2.086.882 2.086 2.086v.028c0 1.204-.882 2.086-2.086 2.086H2.186c-1.204 0-2.086-.882-2.086-2.086v-.028zm3.785 0c0-1.204.882-2.086 2.086-2.086h7.896c1.204 0 2.086.882 2.086 2.086v.028c0 1.204-.882 2.086-2.086 2.086H5.972c-1.204 0-2.086-.882-2.086-2.086v-.028zm7.641 0c0-1.204.882-2.086 2.086-2.086h4.032c1.204 0 2.086.882 2.086 2.086v.028c0 1.204-.882 2.086-2.086 2.086h-4.032c-1.204 0-2.086-.882-2.086-2.086v-.028zm3.786 0c0-1.204.882-2.086 2.086-2.086h7.896c1.204 0 2.086.882 2.086 2.086v.028c0 1.204-.882 2.086-2.086 2.086H17.4c-1.204 0-2.086-.882-2.086-2.086v-.028zm7.642 0c0-1.204.882-2.086 2.086-2.086h7.896c1.204 0 2.086.882 2.086 2.086v.028c0 1.204-.882 2.086-2.086 2.086H25.04c-1.204 0-2.086-.882-2.086-2.086v-.028zm7.64 0c0-1.204.883-2.086 2.087-2.086h4.032c1.204 0 2.086.882 2.086 2.086v.028c0 1.204-.882 2.086-2.086 2.086h-4.032c-1.204 0-2.086-.882-2.086-2.086v-.028zm3.787 0c0-1.204.882-2.086 2.086-2.086H40.5c1.204 0 2.086.882 2.086 2.086v.028c0 1.204-.882 2.086-2.086 2.086h-4.032c-1.204 0-2.086-.882-2.086-2.086v-.028zm3.786 0c0-1.204.882-2.086 2.086-2.086h4.032c1.204 0 2.086.882 2.086 2.086v.028c0 1.204-.882 2.086-2.086 2.086h-4.032c-1.204 0-2.086-.882-2.086-2.086v-.028zm3.785 0c0-1.204.883-2.086 2.086-2.086h7.896c1.204 0 2.087.882 2.087 2.086v.028c0 1.204-.883 2.086-2.087 2.086H44.04c-1.203 0-2.086-.882-2.086-2.086v-.028zm7.642 0c0-1.204.882-2.086 2.086-2.086h7.896c1.204 0 2.086.882 2.086 2.086v.028c0 1.204-.882 2.086-2.086 2.086H51.68c-1.204 0-2.086-.882-2.086-2.086v-.028zm15.816 0c0-1.204.882-2.086 2.086-2.086h7.896c1.204 0 2.086.882 2.086 2.086v.028c0 1.204-.882 2.086-2.086 2.086h-7.896c-1.204 0-2.086-.882-2.086-2.086v-.028zm7.641 0c0-1.204.882-2.086 2.086-2.086h7.896c1.204 0 2.086.882 2.086 2.086v.028c0 1.204-.882 2.086-2.086 2.086h-7.896c-1.204 0-2.086-.882-2.086-2.086v-.028zm7.641 0c0-1.204.882-2.086 2.086-2.086h4.032c1.204 0 2.086.882 2.086 2.086v.028c0 1.204-.882 2.086-2.086 2.086H82.78c-1.204 0-2.086-.882-2.086-2.086v-.028zm3.786 0c0-1.204.882-2.086 2.086-2.086h4.032c1.204 0 2.086.882 2.086 2.086v.028c0 1.204-.882 2.086-2.086 2.086h-4.032c-1.204 0-2.086-.882-2.086-2.086v-.028zm3.786 0c0-1.204.882-2.086 2.086-2.086h7.896c1.204 0 2.086.882 2.086 2.086v.028c0 1.204-.882 2.086-2.086 2.086h-7.896c-1.204 0-2.086-.882-2.086-2.086v-.028zm7.641 0c0-1.204.882-2.086 2.086-2.086h7.896c1.204 0 2.086.882 2.086 2.086v.028c0 1.204-.882 2.086-2.086 2.086h-7.896c-1.204 0-2.086-.882-2.086-2.086v-.028zm7.642 0c0-1.204.882-2.086 2.086-2.086h7.896c1.204 0 2.086.882 2.086 2.086v.028c0 1.204-.882 2.086-2.086 2.086h-7.896c-1.204 0-2.086-.882-2.086-2.086v-.028z" opacity="0.2"></path></svg>