<svg width="16" height="16" viewBox="0 0 16 16" fill="#F2C94C" xmlns="http://www.w3.org/2000/svg"><path d="M10.7519 6.0284L8.25194 4.57006C8.1741 4.52466 8.08705 4.50195 8 4.50195V11.3442C8.08705 11.3442 8.1741 11.3215 8.25194 11.2761L10.7519 9.81781C10.9055 9.7282 11 9.56375 11 9.38592V6.46029C11 6.28245 10.9055 6.118 10.7519 6.0284Z"></path><path fill-rule="evenodd" clip-rule="evenodd" d="M8.75581 1.21343C8.28876 0.931461 7.71124 0.93146 7.24419 1.21343L2.74419 3.93024C2.28337 4.20846 2 4.71907 2 5.27123V10.7327C2 11.2848 2.28337 11.7954 2.74419 12.0737L7.24419 14.7905C7.71124 15.0724 8.28876 15.0724 8.75581 14.7905L13.2558 12.0737C13.7166 11.7954 14 11.2848 14 10.7327V5.27123C14 4.71907 13.7166 4.20846 13.2558 3.93024L8.75581 1.21343ZM12.5 5.27123L8 2.55442L3.5 5.27123L3.5 10.7327L8 13.4495L12.5 10.7327L12.5 5.27123Z"></path></svg>