<svg width="87" height="20" viewBox="0 0 87 20" fill="none" xmlns="http://www.w3.org/2000/svg"><g clip-path="url(#clip0_7597_40642)"><rect width="20" height="20" fill="#0E1010"></rect><path d="M13.9995 14.6483C14.1122 14.5509 14.2222 14.4486 14.3292 14.3416C16.7236 11.9472 16.7236 8.06518 14.3292 5.67079C11.9348 3.2764 8.05276 3.2764 5.65837 5.67079C5.55136 5.7778 5.44912 5.88779 5.35167 6.00048L13.9995 14.6483Z" fill="#E2E4E6"></path><path d="M13.2692 15.1908L4.80922 6.73081C4.63954 6.99884 4.49268 7.27716 4.36862 7.563L12.437 15.6314C12.7228 15.5073 13.0012 15.3605 13.2692 15.1908Z" fill="#E2E4E6"></path><path d="M11.4867 15.9538L4.04615 8.51331C3.9556 8.87551 3.89855 9.24436 3.875 9.61495L10.3851 16.125C10.7556 16.1014 11.1245 16.0444 11.4867 15.9538Z" fill="#E2E4E6"></path><path d="M9.05241 16.0651L3.93486 10.9476C4.12685 12.1899 4.70136 13.3846 5.65837 14.3416C6.61538 15.2986 7.81006 15.8731 9.05241 16.0651Z" fill="#E2E4E6"></path></g><path d="M26.9325 15V5.54545H28.6452V13.5643H32.8093V15H26.9325ZM34.1219 15V7.90909H35.7931V15H34.1219ZM34.9621 6.9027C34.6975 6.9027 34.4697 6.81499 34.2789 6.63956C34.0881 6.46106 33.9927 6.24716 33.9927 5.99787C33.9927 5.7455 34.0881 5.5316 34.2789 5.35618C34.4697 5.17767 34.6975 5.08842 34.9621 5.08842C35.2299 5.08842 35.4576 5.17767 35.6454 5.35618C35.8362 5.5316 35.9316 5.7455 35.9316 5.99787C35.9316 6.24716 35.8362 6.46106 35.6454 6.63956C35.4576 6.81499 35.2299 6.9027 34.9621 6.9027ZM39.0828 10.8452V15H37.4116V7.90909H39.0089V9.11399H39.092C39.2551 8.71697 39.5152 8.40151 39.8722 8.16761C40.2323 7.93371 40.677 7.81676 41.2063 7.81676C41.6957 7.81676 42.1219 7.9214 42.4851 8.13068C42.8513 8.33996 43.1345 8.64311 43.3345 9.04013C43.5377 9.43714 43.6377 9.9188 43.6346 10.4851V15H41.9634V10.7436C41.9634 10.2696 41.8403 9.89879 41.5941 9.63104C41.351 9.36328 41.014 9.2294 40.5831 9.2294C40.2907 9.2294 40.0307 9.29403 39.8029 9.4233C39.5783 9.54948 39.4013 9.7326 39.272 9.97266C39.1459 10.2127 39.0828 10.5036 39.0828 10.8452ZM48.3727 15.1385C47.6617 15.1385 47.0477 14.9908 46.5307 14.6953C46.0167 14.3968 45.6213 13.9751 45.3443 13.4304C45.0673 12.8826 44.9288 12.2378 44.9288 11.4961C44.9288 10.7667 45.0673 10.1265 45.3443 9.57564C45.6243 9.02166 46.0152 8.59079 46.5169 8.28303C47.0185 7.97218 47.6079 7.81676 48.285 7.81676C48.722 7.81676 49.1344 7.88755 49.5222 8.02912C49.913 8.16761 50.2577 8.38305 50.5563 8.67543C50.8579 8.9678 51.0949 9.3402 51.2672 9.79261C51.4396 10.242 51.5257 10.7775 51.5257 11.3991V11.9116H45.7136V10.7852H49.9238C49.9207 10.4651 49.8515 10.1804 49.7161 9.93111C49.5807 9.67874 49.3914 9.48023 49.1482 9.33558C48.9082 9.19093 48.6281 9.11861 48.308 9.11861C47.9664 9.11861 47.6664 9.2017 47.4078 9.3679C47.1493 9.53101 46.9477 9.74645 46.8031 10.0142C46.6615 10.2789 46.5892 10.5697 46.5861 10.8867V11.87C46.5861 12.2824 46.6615 12.6364 46.8123 12.9318C46.9631 13.2242 47.1739 13.4489 47.4448 13.6058C47.7156 13.7597 48.0326 13.8366 48.3958 13.8366C48.6389 13.8366 48.8589 13.8028 49.0559 13.7351C49.2529 13.6643 49.4237 13.5612 49.5683 13.4258C49.713 13.2904 49.8222 13.1226 49.8961 12.9226L51.4565 13.098C51.358 13.5104 51.1703 13.8705 50.8933 14.1783C50.6194 14.483 50.2685 14.7199 49.8407 14.8892C49.4129 15.0554 48.9236 15.1385 48.3727 15.1385ZM54.88 15.1431C54.4307 15.1431 54.026 15.0631 53.6659 14.9031C53.3089 14.7399 53.0257 14.4999 52.8164 14.1829C52.6102 13.8659 52.5071 13.475 52.5071 13.0103C52.5071 12.6102 52.581 12.2794 52.7287 12.0178C52.8765 11.7562 53.078 11.5469 53.3335 11.3899C53.5889 11.233 53.8767 11.1145 54.1968 11.0344C54.5199 10.9513 54.8538 10.8913 55.1985 10.8544C55.614 10.8113 55.951 10.7728 56.2096 10.739C56.4681 10.7021 56.6558 10.6467 56.7728 10.5728C56.8928 10.4959 56.9528 10.3774 56.9528 10.2173V10.1896C56.9528 9.84186 56.8497 9.57256 56.6435 9.38175C56.4373 9.19093 56.1403 9.09553 55.7525 9.09553C55.3432 9.09553 55.0185 9.18478 54.7784 9.36328C54.5415 9.54178 54.3814 9.7526 54.2983 9.99574L52.738 9.77415C52.8611 9.34328 53.0642 8.98319 53.3473 8.69389C53.6305 8.40151 53.9767 8.183 54.386 8.03835C54.7954 7.89062 55.2478 7.81676 55.7433 7.81676C56.0849 7.81676 56.425 7.85677 56.7635 7.93679C57.1021 8.01681 57.4114 8.14915 57.6914 8.33381C57.9715 8.51539 58.1962 8.76314 58.3654 9.07706C58.5378 9.39098 58.624 9.78338 58.624 10.2543V15H57.0174V14.0259H56.962C56.8605 14.2229 56.7174 14.4076 56.5327 14.5799C56.3511 14.7492 56.1218 14.8861 55.8449 14.9908C55.5709 15.0923 55.2493 15.1431 54.88 15.1431ZM55.314 13.9151C55.6494 13.9151 55.9403 13.849 56.1865 13.7166C56.4327 13.5812 56.622 13.4027 56.7543 13.1811C56.8897 12.9595 56.9574 12.7179 56.9574 12.4563V11.6207C56.9051 11.6638 56.8159 11.7038 56.6897 11.7408C56.5666 11.7777 56.4281 11.81 56.2742 11.8377C56.1203 11.8654 55.968 11.89 55.8172 11.9116C55.6663 11.9331 55.5355 11.9516 55.4248 11.967C55.1755 12.0008 54.9523 12.0562 54.7554 12.1332C54.5584 12.2101 54.403 12.3178 54.2891 12.4563C54.1752 12.5917 54.1183 12.7672 54.1183 12.9826C54.1183 13.2904 54.2306 13.5227 54.4553 13.6797C54.68 13.8366 54.9662 13.9151 55.314 13.9151ZM60.2044 15V7.90909H61.8248V9.09091H61.8986C62.0279 8.68158 62.2495 8.36612 62.5634 8.14453C62.8804 7.91986 63.242 7.80753 63.6483 7.80753C63.7406 7.80753 63.8437 7.81214 63.9576 7.82138C64.0745 7.82753 64.1715 7.8383 64.2484 7.85369V9.39098C64.1776 9.36636 64.0653 9.34482 63.9114 9.32635C63.7606 9.30481 63.6144 9.29403 63.4728 9.29403C63.1681 9.29403 62.8942 9.3602 62.6511 9.49254C62.411 9.6218 62.2218 9.80185 62.0833 10.0327C61.9448 10.2635 61.8755 10.5297 61.8755 10.8313V15H60.2044Z" fill="#E2E4E6"></path><path d="M75.5303 7.46967C75.2374 7.17678 74.7626 7.17678 74.4697 7.46967C74.1768 7.76256 74.1768 8.23744 74.4697 8.53033L78.4697 12.5303C78.76 12.8207 79.2299 12.8236 79.5238 12.5368L83.5238 8.63419C83.8202 8.34492 83.8261 7.87009 83.5368 7.57361C83.2476 7.27713 82.7727 7.27128 82.4762 7.56054L79.0065 10.9458L75.5303 7.46967Z" fill="#57595A"></path><defs><clipPath id="clip0_7597_40642"><rect width="20" height="20" rx="4" fill="white"></rect></clipPath></defs></svg>