<svg width="66" height="36" viewBox="0 0 66 36" fill="none" xmlns="http://www.w3.org/2000/svg"><g filter="url(#filter0_dd_6793_8685)"><rect x="34" y="2" width="28" height="28" rx="10" fill="#1A1C1F"></rect><rect x="34.25" y="2.25" width="27.5" height="27.5" rx="9.75" stroke="#22262A" stroke-width="0.5"></rect><g clip-path="url(#clip0_6793_8685)"><path d="M45.25 8.95C42.8752 8.95 40.95 10.8752 40.95 13.25V18.75C40.95 21.1248 42.8752 23.05 45.25 23.05H50.75C53.1248 23.05 55.05 21.1248 55.05 18.75V16.7529C55.05 16.311 54.6918 15.9529 54.25 15.9529C53.8082 15.9529 53.45 16.311 53.45 16.7529V18.75C53.45 20.2412 52.2412 21.45 50.75 21.45H45.25C43.7588 21.45 42.55 20.2412 42.55 18.75V13.25C42.55 11.7588 43.7588 10.55 45.25 10.55H47.25C47.6918 10.55 48.05 10.1918 48.05 9.75C48.05 9.30817 47.6918 8.95 47.25 8.95H45.25ZM48.5528 16.9792L54.7327 10.7992C55.1558 10.3762 55.1558 9.6903 54.7327 9.26728C54.3097 8.84424 53.6238 8.84424 53.2008 9.26728L47.0208 15.4474C46.3864 16.0818 46.0057 16.9263 45.9504 17.8218C45.9425 17.9508 46.0492 18.0575 46.1781 18.0496C47.0738 17.9944 47.9183 17.6137 48.5528 16.9792Z" fill="#E2E4E6" stroke="#E2E4E6" stroke-width="0.1" stroke-linecap="round"></path></g></g><path d="M19.8168 20.9163L19.9937 20.7397C20.1598 20.906 20.2531 21.1315 20.2531 21.3666C20.2531 21.6016 20.1598 21.8271 19.9937 21.9934L19.9914 21.9958L19.9913 21.9957C19.8242 22.1588 19.6 22.25 19.3666 22.25C19.1331 22.25 18.9089 22.1588 18.7418 21.9957L18.7395 21.9936L18.7396 21.9936L15.5653 18.8193C14.5922 19.4942 13.4078 19.8014 12.2249 19.6812C10.9692 19.5535 9.80883 18.9537 8.9786 18.003C8.14836 17.0523 7.71023 15.8217 7.75284 14.5603C7.79545 13.2988 8.31563 12.1006 9.20813 11.2081C10.1006 10.3156 11.2988 9.79545 12.5603 9.75284C13.8217 9.71023 15.0523 10.1484 16.003 10.9786C16.9537 11.8088 17.5535 12.9692 17.6812 14.2249C17.8014 15.4078 17.4942 16.5922 16.8193 17.5653L19.9936 20.7396L19.8168 20.9163ZM10.0951 12.9731C9.74488 13.4973 9.55792 14.1135 9.55788 14.7439C9.55891 15.5891 9.89511 16.3994 10.4927 16.997C11.0904 17.5947 11.9007 17.9309 12.746 17.9319C13.3763 17.9318 13.9925 17.7449 14.5167 17.3947C15.0409 17.0444 15.4495 16.5465 15.6908 15.964C15.9321 15.3815 15.9952 14.7406 15.8722 14.1222C15.7492 13.5039 15.4456 12.9358 14.9998 12.49C14.5539 12.0442 13.9859 11.7406 13.3676 11.6176C12.7492 11.4946 12.1082 11.5577 11.5257 11.799C10.9433 12.0403 10.4454 12.4489 10.0951 12.9731Z" fill="#62666D"></path><defs><filter id="filter0_dd_6793_8685" x="30" y="0" width="36" height="36" filterUnits="userSpaceOnUse" color-interpolation-filters="sRGB"><feFlood flood-opacity="0" result="BackgroundImageFix"></feFlood><feColorMatrix in="SourceAlpha" type="matrix" values="0 0 0 0 0 0 0 0 0 0 0 0 0 0 0 0 0 0 127 0" result="hardAlpha"></feColorMatrix><feOffset dy="1"></feOffset><feGaussianBlur stdDeviation="1"></feGaussianBlur><feColorMatrix type="matrix" values="0 0 0 0 0 0 0 0 0 0 0 0 0 0 0 0 0 0 0.04 0"></feColorMatrix><feBlend mode="normal" in2="BackgroundImageFix" result="effect1_dropShadow_6793_8685"></feBlend><feColorMatrix in="SourceAlpha" type="matrix" values="0 0 0 0 0 0 0 0 0 0 0 0 0 0 0 0 0 0 127 0" result="hardAlpha"></feColorMatrix><feOffset dy="2"></feOffset><feGaussianBlur stdDeviation="2"></feGaussianBlur><feComposite in2="hardAlpha" operator="out"></feComposite><feColorMatrix type="matrix" values="0 0 0 0 0 0 0 0 0 0 0 0 0 0 0 0 0 0 0.04 0"></feColorMatrix><feBlend mode="normal" in2="effect1_dropShadow_6793_8685" result="effect2_dropShadow_6793_8685"></feBlend><feBlend mode="normal" in="SourceGraphic" in2="effect2_dropShadow_6793_8685" result="shape"></feBlend></filter><clipPath id="clip0_6793_8685"><rect width="16" height="16" fill="white" transform="translate(40 8)"></rect></clipPath></defs></svg>