<svg width="84" height="24" viewBox="0 0 84 24" fill="none" xmlns="http://www.w3.org/2000/svg"><path d="M9.67382 15.4801C9.93899 15.7983 10.4119 15.8413 10.7301 15.5761C11.0483 15.311 11.0913 14.8381 10.8261 14.5198L9.35128 12.75L16.25 12.75C16.6642 12.75 17 12.4142 17 12C17 11.5858 16.6642 11.25 16.25 11.25L9.35125 11.25L10.8261 9.48012C11.0913 9.16191 11.0483 8.68899 10.7301 8.42381C10.4119 8.15864 9.93899 8.20163 9.67382 8.51984L7.17382 11.5198C6.94204 11.798 6.94204 12.202 7.17382 12.4801L9.67382 15.4801Z" fill="#949698"></path><g opacity="0.6"><path d="M38.3262 8.51988C38.061 8.20167 37.5881 8.15868 37.2699 8.42385C36.9517 8.68903 36.9087 9.16195 37.1739 9.48016L38.6487 11.25H31.75C31.3358 11.25 31 11.5858 31 12C31 12.4142 31.3358 12.75 31.75 12.75H38.6488L37.1739 14.5199C36.9087 14.8381 36.9517 15.311 37.2699 15.5762C37.5881 15.8414 38.061 15.7984 38.3262 15.4802L40.8262 12.4802C41.058 12.202 41.058 11.798 40.8262 11.5199L38.3262 8.51988Z" fill="#949698"></path></g><path d="M72.75 9C72.75 8.58579 72.4142 8.25 72 8.25C71.5858 8.25 71.25 8.58579 71.25 9V12C71.25 12.4142 71.5858 12.75 72 12.75H75C75.4142 12.75 75.75 12.4142 75.75 12C75.75 11.5858 75.4142 11.25 75 11.25H72.75V9Z" fill="#949698"></path><path fill-rule="evenodd" clip-rule="evenodd" d="M79 12C79 15.866 75.866 19 72 19C68.134 19 65 15.866 65 12C65 8.13401 68.134 5 72 5C75.866 5 79 8.13401 79 12ZM77.5 12C77.5 15.0376 75.0376 17.5 72 17.5C68.9624 17.5 66.5 15.0376 66.5 12C66.5 8.96243 68.9624 6.5 72 6.5C75.0376 6.5 77.5 8.96243 77.5 12Z" fill="#949698"></path></svg>