<svg class="" style="--icon-color:var(--color-text-secondary)" width="16" height="16" viewBox="0 0 16 16" fill="var(--color-text-secondary)" role="img" focusable="false" aria-hidden="true"><path fill-rule="evenodd" clip-rule="evenodd" d="M7.19404 1.18963C6 0.467371 6.5 1.97074 6.5 2.97299C6.5 3.97525 5.5 5.45947 5 5.97974C4.5 6.5 4 6.98199 4 6.98199C3.14252 7.87856 3 8.98398 3 9.98874V10.0159C3 12.7685 5.23858 15 8 15C10.7614 15 13 12.7685 13 10.0159V6C13 5.15486 11.6513 5.95895 11 6.5L10 7.45656V5.53023C10 4.11834 9.33313 2.78883 8.2 1.94169L7.19404 1.18963ZM8 13.9978C6.75 13.9978 5.5 13.5604 5.5 11.811C5.5 10.4429 6.51931 9.09715 7.36222 8.40117C7.64036 8.17151 8 8.38851 8 8.74969V10.4989C8 10.8601 8.36968 11.1027 8.69997 10.9582L9.80003 10.4771C10.1303 10.3327 10.5038 10.5754 10.4832 10.936C10.4109 12.1989 10.0281 13.9978 8 13.9978Z"></path></svg>