<svg aria-hidden="true" xmlns="http://www.w3.org/2000/svg" width="26" height="26" fill="none" viewBox="0 0 26 26"><circle cx="13" cy="13" r="12" stroke="#28282C" stroke-dasharray="2 6" stroke-linecap="round" stroke-width="2"></circle><path fill="#8A8F98" fill-rule="evenodd" d="M13 6.875a6.125 6.125 0 1 1 0 12.25 6.125 6.125 0 0 1 0-12.25Zm-.515 10.91c.101.011.187-.07.187-.17v-1.9a.17.17 0 0 0-.187-.172 4.398 4.398 0 0 0-1.294.339.167.167 0 0 0-.09.209c.12.34.257.653.405.934.122.232.25.438.38.615.024.034.06.057.1.066.164.035.33.061.5.08Zm1.03-2.242a.17.17 0 0 0-.187.171v1.9a.17.17 0 0 0 .187.171c.169-.018.335-.044.499-.08a.167.167 0 0 0 .1-.065c.13-.177.258-.383.38-.615.148-.28.285-.594.405-.934a.167.167 0 0 0-.09-.21 4.398 4.398 0 0 0-1.294-.338Zm-.023-.661a.18.18 0 0 1-.164-.178v-1.2c0-.098.079-.176.175-.176h1.717c.099 0 .178.082.173.18a9.66 9.66 0 0 1-.214 1.593.178.178 0 0 1-.242.123 5.124 5.124 0 0 0-1.444-.342Zm-.995-2.21a.175.175 0 0 0 .175-.175v-1.201a.18.18 0 0 0-.165-.178 5.124 5.124 0 0 1-1.444-.342.178.178 0 0 0-.242.123 9.66 9.66 0 0 0-.214 1.592.173.173 0 0 0 .173.18h1.717Zm.995-1.554a.18.18 0 0 0-.164.178v1.2c0 .098.079.176.175.176h1.717a.173.173 0 0 0 .173-.18 9.66 9.66 0 0 0-.214-1.593.178.178 0 0 0-.242-.123 5.124 5.124 0 0 1-1.444.342Zm.023-.661a.17.17 0 0 1-.187-.171v-1.9a.17.17 0 0 1 .187-.171c.169.018.335.044.499.08.04.008.076.031.1.065.13.177.258.383.38.615.148.28.285.594.405.934a.167.167 0 0 1-.09.21 4.398 4.398 0 0 1-1.294.338Zm-1.03 0c.101.01.187-.07.187-.171v-1.9a.17.17 0 0 0-.187-.171c-.169.018-.335.044-.499.08a.168.168 0 0 0-.1.065c-.13.177-.258.383-.38.615-.148.28-.285.594-.405.934a.167.167 0 0 0 .09.21c.378.166.818.286 1.294.338Zm.023 4.425a.18.18 0 0 0 .164-.178v-1.2a.175.175 0 0 0-.175-.176H10.78a.173.173 0 0 0-.173.18 9.66 9.66 0 0 0 .214 1.593c.023.107.14.164.242.123a5.124 5.124 0 0 1 1.444-.342Zm3.197 1.58c-.087-.083-.226-.043-.27.07a7.385 7.385 0 0 1-.369.816 4.82 4.82 0 0 0 .909-.565 1.872 1.872 0 0 0-.27-.321Zm.902-.276c-.072.081-.2.072-.271-.01a3.052 3.052 0 0 0-.51-.466.183.183 0 0 1-.071-.192 10.23 10.23 0 0 0 .296-2.02.177.177 0 0 1 .176-.17h1.387a.17.17 0 0 1 .171.187 4.793 4.793 0 0 1-1.178 2.67Zm-6.432-.476a.183.183 0 0 0 .07-.192 10.233 10.233 0 0 1-.296-2.02.177.177 0 0 0-.176-.17H8.386a.17.17 0 0 0-.171.187 4.793 4.793 0 0 0 1.178 2.67c.072.082.2.073.271-.01.146-.169.32-.325.51-.465Zm-.15 1.073c.28.22.584.41.909.565a7.393 7.393 0 0 1-.37-.817c-.043-.112-.182-.152-.269-.07-.11.106-.199.214-.27.322Zm.909-8.13a7.39 7.39 0 0 0-.37.816c-.043.112-.182.152-.269.07-.11-.106-.199-.214-.27-.322.28-.22.584-.41.909-.565Zm-.689 1.829a.183.183 0 0 0-.07-.192 3.053 3.053 0 0 1-.51-.465c-.072-.083-.2-.092-.272-.01a4.793 4.793 0 0 0-1.178 2.67c-.011.101.07.187.17.187h1.388a.177.177 0 0 0 .176-.17c.034-.715.138-1.395.296-2.02Zm5.982 2.19a.177.177 0 0 1-.176-.17 10.23 10.23 0 0 0-.296-2.02.183.183 0 0 1 .07-.192c.192-.14.365-.296.51-.465.072-.083.2-.092.272-.01a4.793 4.793 0 0 1 1.178 2.67.17.17 0 0 1-.17.187h-1.388Zm-.252-3.455c-.071.108-.16.216-.27.321-.087.083-.226.043-.27-.07a7.39 7.39 0 0 0-.369-.816c.325.155.63.345.909.565Z" clip-rule="evenodd"></path></svg>