<svg class="" style="--icon-color:var(--color-text-secondary)" width="16" height="16" viewBox="0 0 16 16" fill="var(--color-text-secondary)" role="img" focusable="false" aria-hidden="true"><path fill-rule="evenodd" clip-rule="evenodd" d="M8.03531 2.4967C8.00782 2.49206 7.97974 2.49206 7.95225 2.4967C7.94834 2.49762 7.93369 2.50161 7.89987 2.51472C7.84539 2.53584 7.77481 2.56698 7.64896 2.62291L3.76649 4.34834C3.27153 4.56831 2.9481 4.71286 2.72417 4.8378C2.58219 4.91702 2.52809 4.96361 2.51321 4.9772C2.48794 5.03526 2.48565 5.10081 2.50683 5.16048C2.52072 5.17508 2.57145 5.22532 2.70758 5.31423C2.92227 5.45446 3.23486 5.62118 3.71331 5.87507L6.47204 7.33898C7.1979 7.72415 7.42758 7.83752 7.65481 7.88244C7.87863 7.92668 8.10893 7.92668 8.33274 7.88244C8.55998 7.83752 8.78966 7.72415 9.51552 7.33898L12.2742 5.87507C12.7527 5.62118 13.0653 5.45446 13.28 5.31423C13.4161 5.22532 13.4668 5.17508 13.4807 5.16049C13.5019 5.10081 13.4996 5.03527 13.4743 4.97721C13.4595 4.96361 13.4054 4.91703 13.2634 4.83781C13.0394 4.71287 12.716 4.56831 12.2211 4.34834L8.3386 2.62291C8.21275 2.56698 8.14217 2.53584 8.08768 2.51472M7.70273 1.01854C7.8954 0.986007 8.09216 0.986007 8.28483 1.01854C8.50567 1.05583 8.7095 1.14687 8.90002 1.23197C8.91581 1.23902 8.9315 1.24603 8.9471 1.25296L12.8619 2.99276C13.3156 3.19437 13.7026 3.36635 13.9934 3.52863C14.2797 3.68837 14.6072 3.90799 14.7946 4.26626C15.0403 4.73608 15.0597 5.29202 14.8472 5.7778C14.6853 6.14824 14.3738 6.39013 14.0994 6.56942C13.8205 6.75154 13.4464 6.95005 13.0078 7.18275L10.2179 8.66325C10.1873 8.67946 10.1572 8.69546 10.1275 8.71125C9.5304 9.02846 9.09485 9.25986 8.62329 9.35307C8.20763 9.43524 7.77993 9.43524 7.36427 9.35307C6.89271 9.25986 6.45717 9.02846 5.8601 8.71125C5.83038 8.69546 5.80025 8.67946 5.7697 8.66325L2.97973 7.18276C2.54116 6.95005 2.16704 6.75154 1.88819 6.56941C1.6137 6.39013 1.30229 6.14824 1.14031 5.7778C0.927888 5.29201 0.947252 4.73607 1.19296 4.26626C1.38032 3.90799 1.70781 3.68836 1.99411 3.52862C2.28494 3.36635 2.67197 3.19437 3.12565 2.99276L7.04046 1.25296C7.05607 1.24603 7.07176 1.23902 7.08754 1.23197C7.27806 1.14687 7.48189 1.05583 7.70273 1.01854ZM8.03531 2.4967C8.03458 2.49657 8.03421 2.49648 8.03419 2.49647ZM8.03531 2.4967C8.03458 2.49657 8.03421 2.49648 8.03419 2.49647Z"></path><path d="M2.11544 7.84129C1.75436 7.63903 1.29772 7.76786 1.09551 8.12904C0.893307 8.49022 1.0221 8.94699 1.38319 9.14925L4.22703 10.7422C5.39968 11.3994 6.13596 11.812 6.93014 11.9765C7.6318 12.1218 8.35579 12.1218 9.05744 11.9765C9.85162 11.812 10.5879 11.3994 11.7606 10.7422L14.6044 9.14925C14.9655 8.94699 15.0943 8.49022 14.8921 8.12904C14.6899 7.76786 14.2332 7.63903 13.8721 7.84129L11.1425 9.3703C9.81742 10.1126 9.29302 10.3968 8.75354 10.5086C8.25236 10.6124 7.73523 10.6124 7.23404 10.5086C6.69456 10.3968 6.17017 10.1125 4.84508 9.3703L2.11544 7.84129Z"></path><path d="M2.12332 10.8439C1.76471 10.6373 1.30654 10.7606 1.09998 11.1193C0.893422 11.478 1.01668 11.9363 1.3753 12.1429L3.35378 13.2829C4.83534 14.1367 5.7312 14.653 6.69796 14.8582C7.55234 15.0395 8.43523 15.0395 9.28961 14.8582C10.2564 14.653 11.1522 14.1367 12.6338 13.2829L14.6123 12.1429C14.9709 11.9363 15.0941 11.478 14.8876 11.1193C14.681 10.7606 14.2229 10.6373 13.8642 10.8439L12.0082 11.9133C10.3656 12.8597 9.68496 13.2418 8.97861 13.3917C8.32928 13.5295 7.65828 13.5295 7.00896 13.3917C6.30261 13.2418 5.62199 12.8597 3.9794 11.9133L2.12332 10.8439Z"></path></svg>