<svg xmlns="http://www.w3.org/2000/svg" width="228" height="112" fill="none" viewBox="0 0 228 112"><path fill="#57595A" d="M6.668 16l-2.42-8.727h1.384l1.7 6.758h.081l1.769-6.758h1.372l1.768 6.763h.081L14.1 7.273h1.39L13.064 16h-1.325L9.902 9.463h-.068L7.997 16h-1.33zm12.032.132c-.614 0-1.15-.14-1.607-.422a2.845 2.845 0 01-1.065-1.18c-.253-.506-.38-1.097-.38-1.773 0-.679.127-1.273.38-1.781a2.839 2.839 0 011.065-1.185c.457-.281.993-.422 1.607-.422.613 0 1.149.14 1.606.422.457.281.813.676 1.065 1.185.253.508.38 1.102.38 1.781 0 .676-.127 1.267-.38 1.773a2.83 2.83 0 01-1.065 1.18c-.457.281-.993.422-1.606.422zm.004-1.07c.398 0 .727-.105.988-.315.262-.21.455-.49.58-.84a3.33 3.33 0 00.192-1.154c0-.418-.064-.801-.192-1.15a1.874 1.874 0 00-.58-.849c-.26-.213-.59-.32-.988-.32-.4 0-.733.107-.997.32a1.903 1.903 0 00-.584.848c-.125.35-.188.733-.188 1.15 0 .421.063.806.188 1.156.128.35.322.629.584.84.264.21.596.315.997.315zm4.469.938V9.455h1.232v1.04h.068c.119-.353.33-.63.63-.832a1.805 1.805 0 011.032-.306 5.436 5.436 0 01.54.03v1.218a2.3 2.3 0 00-.272-.047c-.13-.02-.261-.03-.392-.03-.301 0-.57.064-.805.192a1.425 1.425 0 00-.759 1.283V16h-1.274zm5.777-2.22l-.008-1.556h.221l2.608-2.77h1.526l-2.975 3.154h-.2L28.95 13.78zM27.778 16V7.273h1.275V16h-1.275zm4.134 0l-2.344-3.11.878-.891L33.476 16h-1.564zm7.45-4.947l-1.154.204a1.368 1.368 0 00-.23-.422 1.139 1.139 0 00-.418-.328 1.513 1.513 0 00-.66-.128c-.36 0-.662.081-.904.243-.241.16-.362.365-.362.618a.65.65 0 00.243.528c.162.134.423.243.784.329l1.04.238c.602.14 1.051.354 1.347.644.295.29.443.666.443 1.129 0 .392-.114.741-.341 1.048-.225.304-.538.543-.942.716-.4.174-.865.26-1.393.26-.733 0-1.331-.156-1.794-.469-.464-.315-.748-.762-.853-1.342l1.232-.188c.077.322.234.564.473.73.239.161.55.242.933.242.418 0 .752-.087 1.002-.26.25-.176.374-.39.374-.643a.669.669 0 00-.23-.516c-.15-.14-.382-.244-.694-.315l-1.108-.243c-.61-.14-1.063-.361-1.355-.665-.29-.304-.435-.689-.435-1.155 0-.386.108-.724.324-1.014.216-.29.514-.516.895-.678.38-.164.817-.247 1.308-.247.707 0 1.264.154 1.67.46.407.304.675.712.806 1.224zm1.53 7.401v-9h1.244v1.062h.106a3.57 3.57 0 01.32-.473c.14-.18.333-.336.58-.47.247-.136.574-.204.98-.204.528 0 1 .134 1.415.4.414.268.74.653.975 1.156.24.503.358 1.108.358 1.815 0 .707-.117 1.314-.353 1.82-.236.502-.56.89-.972 1.163-.412.27-.882.405-1.41.405-.398 0-.723-.067-.976-.2a1.847 1.847 0 01-.588-.47 3.546 3.546 0 01-.328-.476h-.077v3.473h-1.274zm1.248-5.727c0 .46.067.864.2 1.21.134.347.327.618.58.814.253.194.563.29.93.29.38 0 .698-.1.954-.302a1.9 1.9 0 00.58-.831 3.3 3.3 0 00.2-1.18c0-.432-.066-.82-.197-1.164a1.781 1.781 0 00-.58-.814c-.255-.199-.574-.298-.958-.298-.37 0-.682.095-.937.285-.253.19-.445.456-.576.797a3.34 3.34 0 00-.196 1.193zm8.063 3.418c-.415 0-.79-.077-1.125-.23a1.895 1.895 0 01-.797-.678c-.193-.295-.29-.658-.29-1.086 0-.37.071-.674.213-.912.142-.239.334-.428.575-.567.242-.14.512-.244.81-.316.298-.07.602-.124.912-.161l.955-.111c.244-.031.421-.081.532-.15.111-.067.166-.178.166-.332v-.03c0-.372-.105-.66-.315-.865-.207-.204-.517-.306-.929-.306-.429 0-.767.095-1.014.285a1.528 1.528 0 00-.507.627l-1.198-.273c.142-.398.35-.719.623-.963.275-.247.592-.426.95-.537a3.71 3.71 0 011.13-.17c.26 0 .538.03.83.093.296.06.571.17.827.332.258.162.47.394.635.695.164.298.247.686.247 1.163V16h-1.244v-.895h-.052a1.812 1.812 0 01-.37.486 1.977 1.977 0 01-.635.396 2.463 2.463 0 01-.93.158zm.277-1.023c.352 0 .653-.07.903-.209a1.45 1.45 0 00.575-.545c.134-.227.2-.47.2-.729v-.843a.665.665 0 01-.264.127 4.11 4.11 0 01-.438.098l-.482.073-.392.05a3.153 3.153 0 00-.678.159c-.201.073-.363.18-.485.32-.12.136-.18.317-.18.545 0 .315.117.554.35.716.233.159.53.238.89.238zm7.407 1.01c-.633 0-1.179-.143-1.636-.43a2.85 2.85 0 01-1.049-1.198c-.244-.508-.366-1.09-.366-1.747 0-.665.125-1.251.375-1.76.25-.511.602-.91 1.057-1.197.454-.287.99-.43 1.606-.43.497 0 .94.092 1.33.276.389.182.703.438.942.767.241.33.385.715.43 1.155h-1.24a1.485 1.485 0 00-.469-.792c-.241-.222-.565-.333-.971-.333-.355 0-.667.094-.934.281-.264.185-.47.45-.618.793-.147.341-.221.744-.221 1.21 0 .477.072.89.217 1.236.145.347.35.615.614.806.267.19.58.285.942.285.241 0 .46-.044.656-.132a1.33 1.33 0 00.498-.388c.137-.168.232-.37.286-.605h1.24a2.409 2.409 0 01-.413 1.133c-.23.333-.539.594-.925.785-.384.19-.834.285-1.35.285zm6.873 0c-.645 0-1.2-.138-1.667-.413a2.805 2.805 0 01-1.074-1.172c-.25-.506-.374-1.098-.374-1.777 0-.67.124-1.261.374-1.773A2.92 2.92 0 0163.076 9.8c.455-.287.986-.43 1.594-.43.37 0 .727.06 1.074.183.347.122.658.313.933.575.276.261.493.6.652 1.018.16.415.239.92.239 1.513v.452h-5.203v-.955h3.954a1.88 1.88 0 00-.204-.89 1.547 1.547 0 00-.576-.618 1.608 1.608 0 00-.86-.226c-.358 0-.67.088-.938.264a1.77 1.77 0 00-.614.682 1.968 1.968 0 00-.213.908v.745c0 .438.077.81.23 1.117.157.307.374.541.653.703.278.159.603.239.975.239.242 0 .462-.034.66-.103a1.37 1.37 0 00.848-.831l1.207.218c-.097.355-.27.666-.52.933-.247.264-.558.47-.933.618a3.492 3.492 0 01-1.274.217zm9.179-5.38A.5.5 0 0174.37 10h5.258a.5.5 0 01.432.752l-2.63 4.508a.5.5 0 01-.863 0l-2.63-4.508z"></path><path fill="#949698" fill-rule="evenodd" d="M14.036 32.497a.252.252 0 00-.083 0 .462.462 0 00-.053.018 6.51 6.51 0 00-.25.108l-3.883 1.725c-.495.22-.819.365-1.042.49a1.062 1.062 0 00-.211.14.25.25 0 00-.007.182c.014.015.065.065.2.154.216.14.528.307 1.007.561l2.758 1.464c.726.385.956.498 1.183.543.224.045.454.045.678 0 .227-.044.457-.158 1.183-.543l2.759-1.464c.478-.254.79-.42 1.005-.56.136-.09.187-.14.201-.154a.25.25 0 00-.006-.184 1.148 1.148 0 00-.211-.14c-.224-.124-.548-.269-1.043-.489l-3.882-1.725a6.51 6.51 0 00-.25-.108m-.386-1.497a1.75 1.75 0 01.582 0 2.6 2.6 0 01.615.214l.047.021 3.915 1.74c.454.201.841.373 1.132.536.286.16.614.379.801.737a1.75 1.75 0 01.053 1.512c-.162.37-.474.612-.748.791-.28.182-.653.381-1.092.614l-2.79 1.48-.09.048c-.597.318-1.033.549-1.504.642a3.25 3.25 0 01-1.26 0c-.47-.093-.907-.325-1.504-.642a31.04 31.04 0 01-.09-.048l-2.79-1.48a15.17 15.17 0 01-1.091-.614c-.275-.179-.586-.42-.748-.791a1.75 1.75 0 01.052-1.512c.188-.358.515-.578.801-.737.291-.163.678-.335 1.132-.536l3.915-1.74.047-.021c.19-.085.394-.176.615-.213zm.333 1.479h-.001zm0 0h-.001z" clip-rule="evenodd"></path><path fill="#949698" d="M8.116 37.841a.75.75 0 10-.732 1.308l2.843 1.593c1.173.657 1.91 1.07 2.704 1.235a5.245 5.245 0 002.127 0c.794-.165 1.53-.578 2.703-1.235l2.844-1.593a.75.75 0 00-.733-1.308l-2.73 1.53c-1.324.742-1.849 1.026-2.388 1.138a3.746 3.746 0 01-1.52 0c-.54-.112-1.063-.397-2.389-1.139l-2.73-1.529z"></path><path fill="#949698" d="M8.124 40.844a.75.75 0 10-.748 1.299l1.978 1.14c1.482.854 2.378 1.37 3.344 1.575a6.243 6.243 0 002.592 0c.967-.205 1.863-.721 3.344-1.575l1.979-1.14a.75.75 0 00-.748-1.3l-1.856 1.07c-1.643.947-2.324 1.329-3.03 1.479-.65.137-1.32.137-1.97 0-.706-.15-1.387-.532-3.03-1.479l-1.855-1.07z"></path><path fill="#E2E4E6" d="M31.865 33.545l2.631 7.7h.107l2.631-7.7h1.542L35.374 43h-1.649l-3.402-9.455h1.542zM40.031 43v-7.09h1.38V43h-1.38zm.697-8.185a.877.877 0 01-.62-.24.78.78 0 01-.253-.582c0-.227.085-.421.254-.581a.869.869 0 01.618-.245c.24 0 .445.081.615.245.172.16.258.354.258.581a.774.774 0 01-.258.582.861.861 0 01-.614.24zm5.596 8.328c-.699 0-1.3-.15-1.805-.448a3.038 3.038 0 01-1.163-1.27c-.271-.547-.407-1.189-.407-1.924 0-.727.136-1.367.407-1.92a3.155 3.155 0 011.144-1.298c.493-.31 1.068-.466 1.727-.466.4 0 .788.066 1.163.198.376.133.713.34 1.011.623.299.284.534.651.707 1.104.172.45.258.995.258 1.639v.489H43.73v-1.034h4.285c0-.363-.074-.685-.222-.965a1.675 1.675 0 00-.623-.67 1.742 1.742 0 00-.933-.244c-.388 0-.726.095-1.015.286a1.92 1.92 0 00-.665.739 2.13 2.13 0 00-.231.983v.808c0 .474.083.877.25 1.21.168.332.404.586.706.761.301.173.654.259 1.057.259.261 0 .5-.037.715-.111a1.485 1.485 0 00.919-.9l1.306.235a2.366 2.366 0 01-.563 1.011c-.268.287-.605.51-1.01.67a3.785 3.785 0 01-1.381.235zM52.422 43l-2.086-7.09h1.426l1.39 5.207h.069l1.394-5.208h1.426l1.386 5.184h.069l1.38-5.184h1.427L58.22 43h-1.408l-1.44-5.12h-.107L53.826 43h-1.404zm14.504-5.36l-1.251.222a1.481 1.481 0 00-.25-.457 1.234 1.234 0 00-.452-.356c-.19-.092-.43-.138-.715-.138-.391 0-.717.088-.979.263-.262.172-.392.395-.392.67 0 .236.087.427.263.572.175.145.458.263.85.355l1.126.259c.652.15 1.138.383 1.458.697.32.314.48.722.48 1.223 0 .425-.123.804-.369 1.136-.243.33-.583.588-1.02.776-.434.187-.937.281-1.51.281-.794 0-1.442-.17-1.943-.508-.502-.341-.81-.826-.923-1.454l1.334-.203c.083.348.254.61.512.79.259.175.596.263 1.011.263.453 0 .814-.094 1.085-.282.27-.19.406-.423.406-.697a.724.724 0 00-.249-.559c-.163-.15-.414-.264-.752-.341l-1.2-.264c-.663-.15-1.152-.39-1.469-.72-.314-.329-.47-.746-.47-1.25 0-.42.116-.785.35-1.1.234-.313.557-.558.97-.733.412-.179.884-.268 1.417-.268.766 0 1.37.166 1.81.498.44.33.73.771.872 1.325z"></path><path fill="#949698" fill-rule="evenodd" d="M11.097 61.161a1.75 1.75 0 011.815.024l2.956 1.848a.25.25 0 00.265 0l2.956-1.843A1.25 1.25 0 0121 62.251v9.932c0 .484-.28.924-.718 1.13l-3.47 1.633a1.75 1.75 0 01-1.672-.099l-3.008-1.88a.25.25 0 00-.265 0L8.911 74.81A1.25 1.25 0 017 73.749v-9.463c0-.443.234-.853.616-1.077l3.481-2.048zM8.5 64.429l2.75-1.618v8.786c-.06.029-.12.061-.177.097L8.5 73.299v-8.87zm4.427 7.266a1.732 1.732 0 00-.177-.097v-8.745l2.323 1.452c.058.036.117.068.177.097v8.745l-2.323-1.452zm3.823 1.623l2.75-1.294v-9.322l-2.573 1.604a1.744 1.744 0 01-.177.097v8.915z" clip-rule="evenodd"></path><path fill="#E2E4E6" d="M31.039 73v-9.455h3.37c.732 0 1.34.127 1.823.379.486.252.85.602 1.09 1.048.24.443.36.956.36 1.537 0 .579-.122 1.088-.365 1.528-.24.437-.603.777-1.09 1.02-.483.244-1.09.365-1.823.365h-2.553v-1.228h2.424c.462 0 .837-.066 1.126-.198.293-.133.507-.325.642-.577.135-.253.203-.556.203-.91 0-.357-.07-.666-.208-.928a1.342 1.342 0 00-.641-.6c-.29-.141-.67-.212-1.14-.212h-1.792V73H31.04zm4.667-4.266L38.042 73h-1.625l-2.29-4.266h1.579zm6.499 4.41c-.665 0-1.245-.153-1.74-.458a3.082 3.082 0 01-1.155-1.279c-.274-.547-.41-1.188-.41-1.92 0-.736.136-1.379.41-1.93.274-.55.659-.978 1.154-1.283.496-.305 1.076-.457 1.74-.457.666 0 1.246.152 1.741.457.496.305.88.732 1.154 1.283.274.551.411 1.194.411 1.93 0 .732-.137 1.373-.41 1.92a3.082 3.082 0 01-1.155 1.28c-.495.304-1.075.456-1.74.456zm.004-1.16c.431 0 .788-.113 1.072-.341.283-.228.492-.531.627-.91.139-.378.208-.795.208-1.25 0-.453-.07-.869-.208-1.247a2.03 2.03 0 00-.627-.919c-.284-.23-.64-.346-1.072-.346-.434 0-.794.115-1.08.346-.283.23-.494.537-.632.919a3.677 3.677 0 00-.203 1.246c0 .456.067.873.203 1.251.138.379.349.682.632.91.286.228.647.341 1.08.341zm6.905 1.173a2.88 2.88 0 01-1.218-.25 2.054 2.054 0 01-.864-.733c-.209-.32-.313-.713-.313-1.178 0-.4.076-.729.23-.987.154-.259.362-.464.624-.615.261-.15.554-.264.877-.341.323-.077.652-.135.988-.175l1.034-.12c.264-.034.457-.088.577-.162.12-.074.18-.194.18-.36v-.032c0-.404-.114-.716-.342-.938-.224-.221-.56-.332-1.006-.332-.465 0-.831.103-1.099.31-.264.202-.448.429-.55.678l-1.297-.296c.154-.43.38-.778.675-1.043a2.732 2.732 0 011.029-.582 4.02 4.02 0 011.223-.184c.283 0 .584.034.9.101.32.065.62.185.896.36.28.176.51.427.688.753.179.323.268.743.268 1.26V73h-1.348v-.97h-.056a1.956 1.956 0 01-.401.527 2.133 2.133 0 01-.688.43c-.28.113-.616.17-1.007.17zm.3-1.108c.382 0 .709-.075.98-.226.273-.151.48-.348.623-.591a1.54 1.54 0 00.216-.79v-.914c-.049.05-.144.096-.286.139a4.46 4.46 0 01-.475.106 58.06 58.06 0 01-.522.079l-.425.055a3.42 3.42 0 00-.734.17 1.26 1.26 0 00-.526.347c-.13.148-.194.345-.194.59 0 .343.126.601.379.776.252.173.574.259.965.259zm7.693 1.09a2.748 2.748 0 01-1.533-.44c-.446-.294-.797-.715-1.052-1.26-.253-.547-.379-1.204-.379-1.97 0-.767.128-1.422.383-1.967.259-.545.613-.962 1.062-1.251.45-.29.959-.434 1.528-.434.44 0 .794.074 1.062.221.27.145.48.314.628.508.15.194.267.365.35.513h.084v-3.514h1.38V73h-1.348v-1.103h-.115a3.65 3.65 0 01-.36.517 2 2 0 01-.638.507c-.27.145-.621.217-1.052.217zm.304-1.178c.398 0 .733-.104 1.007-.314.277-.212.486-.506.628-.881.144-.376.217-.813.217-1.312 0-.492-.071-.923-.213-1.292a1.898 1.898 0 00-.623-.863c-.274-.207-.612-.31-1.016-.31-.415 0-.761.108-1.038.323-.277.216-.486.51-.628.882a3.596 3.596 0 00-.208 1.26c0 .475.071.9.213 1.28.141.378.35.678.627.9.28.218.625.327 1.034.327zM62.59 73v-7.09h1.325v1.153h.088c.147-.39.389-.695.725-.914.335-.221.737-.332 1.204-.332.474 0 .871.11 1.191.332.324.222.562.526.716.914h.074a2 2 0 01.808-.905c.369-.227.81-.341 1.32-.341.643 0 1.168.201 1.574.605.41.403.614 1.01.614 1.823V73h-1.38v-4.626c0-.48-.13-.828-.392-1.043a1.427 1.427 0 00-.938-.323c-.449 0-.798.138-1.048.415-.249.274-.374.627-.374 1.058V73h-1.375v-4.713c0-.385-.12-.694-.36-.928-.24-.234-.553-.351-.938-.351-.261 0-.503.07-.724.208a1.523 1.523 0 00-.531.567 1.739 1.739 0 00-.199.845V73h-1.38zm13.553.157c-.45 0-.856-.083-1.219-.25a2.054 2.054 0 01-.863-.733c-.21-.32-.314-.713-.314-1.178 0-.4.077-.729.23-.987.155-.259.362-.464.624-.615.261-.15.554-.264.877-.341.323-.077.653-.135.988-.175l1.034-.12c.265-.034.457-.088.577-.162.12-.074.18-.194.18-.36v-.032c0-.404-.114-.716-.341-.938-.225-.221-.56-.332-1.007-.332-.465 0-.83.103-1.099.31-.264.202-.447.429-.549.678l-1.297-.296c.154-.43.378-.778.674-1.043a2.733 2.733 0 011.03-.582 4.02 4.02 0 011.223-.184c.283 0 .583.034.9.101.32.065.618.185.895.36.28.176.51.427.688.753.179.323.268.743.268 1.26V73h-1.348v-.97h-.055a1.96 1.96 0 01-.402.527 2.133 2.133 0 01-.688.43c-.28.113-.615.17-1.006.17zm.3-1.108c.382 0 .708-.075.979-.226.273-.151.481-.348.623-.591a1.54 1.54 0 00.217-.79v-.914c-.05.05-.145.096-.286.139a4.46 4.46 0 01-.476.106 58.06 58.06 0 01-.522.079l-.424.055a3.42 3.42 0 00-.734.17 1.26 1.26 0 00-.527.347c-.129.148-.194.345-.194.59 0 .343.127.601.38.776.251.173.573.259.964.259zm5.038 3.61v-9.75h1.348v1.15h.115c.08-.148.195-.319.346-.513.151-.194.36-.363.628-.508.268-.147.622-.221 1.062-.221a2.77 2.77 0 011.533.434c.449.289.801.706 1.057 1.25.258.545.388 1.201.388 1.967 0 .767-.128 1.424-.384 1.972-.255.544-.606.965-1.052 1.26a2.725 2.725 0 01-1.528.438c-.431 0-.784-.072-1.057-.217a2 2 0 01-.638-.507 3.851 3.851 0 01-.355-.517h-.083v3.762h-1.38zm1.352-6.205c0 .5.073.936.217 1.312.145.375.354.669.628.881.274.21.61.314 1.007.314.412 0 .757-.109 1.034-.328.277-.221.486-.521.627-.9a3.56 3.56 0 00.217-1.279c0-.467-.07-.887-.212-1.26a1.93 1.93 0 00-.628-.882c-.277-.215-.623-.323-1.038-.323-.4 0-.74.103-1.016.31a1.898 1.898 0 00-.623.863c-.142.37-.213.8-.213 1.292zm11.985-1.814l-1.251.222a1.481 1.481 0 00-.25-.457 1.234 1.234 0 00-.452-.356c-.19-.092-.43-.138-.716-.138-.39 0-.717.088-.978.263-.262.172-.393.395-.393.67 0 .236.088.427.263.572.176.145.459.263.85.355l1.126.259c.653.15 1.139.383 1.459.697.32.314.48.722.48 1.223 0 .425-.123.804-.37 1.136-.242.33-.582.588-1.02.776-.433.187-.937.281-1.509.281-.794 0-1.442-.17-1.944-.508-.501-.341-.809-.826-.923-1.454l1.334-.203c.083.348.254.61.513.79.258.175.595.263 1.01.263.453 0 .815-.094 1.086-.282.27-.19.406-.423.406-.697a.724.724 0 00-.25-.559c-.163-.15-.413-.264-.752-.341l-1.2-.264c-.662-.15-1.151-.39-1.468-.72-.314-.329-.471-.746-.471-1.25 0-.42.117-.786.35-1.1a2.31 2.31 0 01.97-.733c.413-.179.885-.268 1.417-.268.767 0 1.37.166 1.81.498.44.33.731.771.873 1.325z"></path><path fill="#949698" d="M16.5 96.5a2.5 2.5 0 11-5 0 2.5 2.5 0 015 0z"></path><path fill="#949698" fill-rule="evenodd" d="M7 94.75A3.75 3.75 0 0110.75 91h6.5A3.75 3.75 0 0121 94.75v6.5a3.75 3.75 0 01-3.75 3.75h-6.5A3.75 3.75 0 017 101.25v-6.5zm3.75-2.25a2.25 2.25 0 00-2.25 2.25v6.5c0 .826.445 1.548 1.108 1.939l.007-.01C10.148 102.404 11.476 101 14 101s3.852 1.404 4.384 2.179l.008.01a2.248 2.248 0 001.108-1.939v-6.5a2.25 2.25 0 00-2.25-2.25h-6.5z" clip-rule="evenodd"></path><path fill="#E2E4E6" d="M30.572 94.773v-1.227h7.318v1.227h-2.95V103h-1.422v-8.227h-2.946zm10.851 8.37c-.698 0-1.3-.149-1.805-.448a3.031 3.031 0 01-1.163-1.269c-.27-.548-.406-1.19-.406-1.925 0-.727.135-1.367.406-1.92a3.155 3.155 0 011.145-1.298c.492-.31 1.068-.466 1.727-.466.4 0 .787.066 1.163.198.375.133.712.34 1.01.623.3.284.535.651.707 1.104.173.45.259.995.259 1.639v.489h-5.637v-1.034h4.284c0-.363-.074-.685-.221-.965a1.675 1.675 0 00-.624-.67 1.742 1.742 0 00-.932-.244 1.8 1.8 0 00-1.016.286 1.92 1.92 0 00-.665.739c-.154.302-.23.63-.23.983v.808c0 .474.083.877.249 1.21.17.332.404.586.706.761.302.173.654.259 1.057.259.262 0 .5-.037.716-.111a1.48 1.48 0 00.919-.9l1.306.235a2.362 2.362 0 01-.563 1.011 2.72 2.72 0 01-1.011.67 3.783 3.783 0 01-1.38.235zm6.638.014c-.45 0-.856-.083-1.219-.249a2.058 2.058 0 01-.863-.734c-.21-.32-.314-.713-.314-1.178 0-.4.077-.729.23-.987.155-.259.362-.464.624-.615a3.29 3.29 0 01.877-.341c.323-.077.652-.135.988-.175l1.034-.12c.265-.034.457-.088.577-.162.12-.074.18-.194.18-.36v-.032c0-.404-.114-.716-.341-.938-.225-.221-.56-.332-1.007-.332-.465 0-.83.103-1.099.31-.264.202-.447.429-.549.678l-1.297-.296c.154-.43.378-.778.674-1.043a2.733 2.733 0 011.03-.582 4.02 4.02 0 011.223-.184c.283 0 .583.034.9.101.32.065.618.185.895.36.28.176.51.427.688.753.179.323.268.743.268 1.26V103h-1.348v-.969h-.055c-.09.178-.223.353-.402.526a2.141 2.141 0 01-.688.429c-.28.114-.615.171-1.006.171zm.3-1.108c.382 0 .708-.075.979-.226.273-.151.481-.348.623-.591.145-.246.217-.509.217-.79v-.914c-.05.05-.145.096-.286.139a4.46 4.46 0 01-.476.106 58.06 58.06 0 01-.522.079l-.424.055c-.268.034-.513.09-.734.171-.219.08-.394.195-.527.346-.129.148-.194.345-.194.591 0 .342.127.6.379.775.252.173.574.259.965.259zm5.038.951v-7.09h1.325v1.153h.087c.148-.39.39-.695.725-.914.335-.221.737-.332 1.205-.332.474 0 .87.11 1.191.332.323.222.562.526.715.914h.074c.17-.378.439-.68.808-.905.37-.227.81-.341 1.32-.341.644 0 1.169.201 1.575.605.41.403.614 1.01.614 1.823V103h-1.38v-4.626c0-.48-.131-.828-.393-1.043a1.427 1.427 0 00-.937-.323c-.45 0-.799.138-1.048.415-.25.274-.374.627-.374 1.058V103H57.53v-4.713c0-.385-.12-.694-.36-.928-.24-.234-.552-.351-.937-.351-.261 0-.503.07-.725.208a1.524 1.524 0 00-.53.567 1.739 1.739 0 00-.2.845V103h-1.38zM70.2 97.64l-1.25.222a1.481 1.481 0 00-.25-.457 1.234 1.234 0 00-.452-.356c-.191-.092-.43-.138-.716-.138-.39 0-.717.088-.979.263-.261.172-.392.395-.392.67 0 .236.088.427.263.572.176.145.459.263.85.355l1.126.259c.653.15 1.139.383 1.459.697.32.314.48.722.48 1.223 0 .425-.123.804-.37 1.136-.242.329-.583.588-1.02.776-.434.187-.937.281-1.51.281-.793 0-1.441-.169-1.943-.508-.501-.341-.81-.826-.923-1.454l1.334-.203c.083.348.254.611.513.789.258.176.595.264 1.01.264.453 0 .815-.094 1.085-.282.271-.191.407-.423.407-.697a.725.725 0 00-.25-.559c-.163-.151-.414-.264-.752-.341l-1.2-.264c-.662-.15-1.151-.39-1.468-.72-.314-.329-.471-.746-.471-1.25 0-.42.117-.786.35-1.1.234-.313.558-.558.97-.733.412-.179.885-.268 1.417-.268.767 0 1.37.166 1.81.498.44.33.73.771.872 1.325z"></path></svg>