<svg xmlns="http://www.w3.org/2000/svg" width="236" height="274" fill="none" viewBox="0 0 236 274"><g filter="url(#filter0_d_7597_40572)"><path fill="#57595A" d="M8.286 7.273H9.78l2.28 3.967h.094l2.28-3.967h1.495l-3.166 5.3V16h-1.312v-3.426L8.286 7.273Zm10.464 8.86c-.613 0-1.149-.141-1.606-.423a2.844 2.844 0 0 1-1.066-1.18c-.252-.506-.379-1.097-.379-1.773 0-.679.127-1.273.38-1.781a2.838 2.838 0 0 1 1.065-1.185c.457-.281.993-.422 1.606-.422.614 0 1.15.14 1.607.422.457.281.812.676 1.065 1.185.253.508.38 1.102.38 1.781 0 .676-.127 1.267-.38 1.773s-.608.899-1.065 1.18c-.457.281-.993.422-1.607.422Zm.005-1.07c.397 0 .727-.106.988-.316.262-.21.455-.49.58-.84a3.34 3.34 0 0 0 .192-1.154c0-.418-.064-.801-.192-1.15a1.874 1.874 0 0 0-.58-.849c-.261-.213-.59-.32-.988-.32-.401 0-.733.107-.997.32a1.903 1.903 0 0 0-.584.848c-.125.35-.188.733-.188 1.15 0 .421.063.806.188 1.156.128.35.322.629.584.84.264.21.596.315.997.315Zm8.615-1.777V9.455h1.278V16h-1.252v-1.133h-.069c-.15.349-.392.64-.724.873-.33.23-.74.345-1.232.345-.42 0-.792-.092-1.116-.277a1.946 1.946 0 0 1-.759-.83c-.181-.367-.272-.82-.272-1.36V9.455h1.274v4.01c0 .446.123.8.37 1.065.248.264.569.396.964.396.238 0 .476-.06.711-.179a1.5 1.5 0 0 0 .593-.541c.159-.242.237-.548.234-.92ZM30.36 16V9.455h1.232v1.04h.068c.12-.353.33-.63.63-.832a1.805 1.805 0 0 1 1.032-.306 5.436 5.436 0 0 1 .541.03v1.218a2.3 2.3 0 0 0-.272-.047c-.131-.02-.262-.03-.392-.03-.302 0-.57.064-.806.192a1.425 1.425 0 0 0-.758 1.283V16H30.36Zm10.837-6.545v1.022h-3.575V9.455h3.575Zm-2.616-1.569h1.274v6.192c0 .247.037.433.11.558a.578.578 0 0 0 .286.252c.12.042.249.064.388.064.102 0 .192-.007.268-.022l.18-.034.23 1.053a2.498 2.498 0 0 1-.827.136 2.243 2.243 0 0 1-.938-.179 1.608 1.608 0 0 1-.703-.58c-.179-.26-.268-.589-.268-.984V7.886Zm6.776 8.246c-.645 0-1.2-.138-1.666-.413a2.804 2.804 0 0 1-1.074-1.172c-.25-.506-.375-1.098-.375-1.777 0-.67.125-1.261.375-1.773.253-.511.605-.91 1.057-1.197.455-.287.986-.43 1.594-.43.37 0 .727.06 1.074.183.346.122.657.313.933.575.275.261.493.6.652 1.018.159.415.239.92.239 1.513v.452h-5.204v-.955h3.955c0-.335-.068-.632-.205-.89a1.548 1.548 0 0 0-.575-.618 1.608 1.608 0 0 0-.86-.226c-.359 0-.671.088-.938.264-.264.173-.469.4-.614.682a1.969 1.969 0 0 0-.213.908v.745c0 .438.077.81.23 1.117.156.307.374.541.652.703.279.159.604.239.976.239.242 0 .462-.034.66-.103a1.37 1.37 0 0 0 .848-.831l1.206.218c-.096.355-.27.666-.52.933a2.52 2.52 0 0 1-.933.618 3.493 3.493 0 0 1-1.274.217Zm6.127.013c-.415 0-.79-.077-1.125-.23a1.896 1.896 0 0 1-.797-.678c-.193-.295-.29-.658-.29-1.086 0-.37.071-.674.213-.912.142-.239.334-.428.576-.567.241-.14.511-.244.81-.316a8.05 8.05 0 0 1 .911-.161l.955-.111c.244-.031.422-.081.532-.15.111-.067.167-.178.167-.332v-.03c0-.372-.105-.66-.316-.865-.207-.204-.517-.306-.929-.306-.429 0-.767.095-1.014.285-.244.188-.413.396-.507.627l-1.197-.273c.142-.398.35-.719.622-.963.275-.247.592-.426.95-.537a3.71 3.71 0 0 1 1.13-.17c.26 0 .538.03.83.093.296.06.571.17.827.332.259.162.47.394.635.695.165.298.247.686.247 1.163V16H53.47v-.895h-.051a1.813 1.813 0 0 1-.371.486c-.165.159-.377.291-.635.396a2.463 2.463 0 0 1-.929.158Zm.277-1.023c.352 0 .653-.07.903-.209.253-.139.445-.32.576-.545.133-.227.2-.47.2-.729v-.843a.665.665 0 0 1-.264.127c-.128.037-.274.07-.44.098-.164.026-.324.05-.48.073l-.393.05a3.154 3.154 0 0 0-.677.159c-.202.073-.364.18-.486.32-.12.136-.179.317-.179.545 0 .315.116.554.35.716.232.159.53.238.89.238Zm4.65.878V9.455h1.223v1.065h.081c.137-.36.36-.642.67-.844.309-.204.68-.307 1.111-.307.438 0 .804.103 1.1.307a1.8 1.8 0 0 1 .66.844h.069c.156-.35.404-.628.745-.835.341-.21.748-.316 1.22-.316.593 0 1.077.186 1.452.559.378.372.567.933.567 1.683V16h-1.274v-4.27c0-.443-.12-.764-.362-.963a1.318 1.318 0 0 0-.866-.298c-.414 0-.737.128-.967.383-.23.253-.345.578-.345.976V16h-1.27v-4.35c0-.356-.11-.642-.332-.857-.222-.216-.51-.324-.865-.324-.242 0-.465.064-.67.192-.201.125-.364.3-.49.524a1.605 1.605 0 0 0-.183.78V16h-1.274Zm15.51-4.947-1.154.204a1.368 1.368 0 0 0-.23-.422 1.139 1.139 0 0 0-.418-.328 1.513 1.513 0 0 0-.66-.128c-.361 0-.663.081-.904.243-.241.16-.362.365-.362.618 0 .219.08.395.243.528.162.134.423.243.784.329l1.04.238c.602.14 1.05.354 1.346.644.296.29.443.666.443 1.129 0 .392-.113.741-.34 1.048-.225.304-.539.543-.942.716-.4.174-.865.26-1.394.26-.733 0-1.33-.156-1.794-.469-.463-.315-.747-.762-.852-1.342l1.231-.188c.077.322.235.564.474.73.238.161.55.242.933.242.417 0 .751-.087 1.001-.26.25-.176.375-.39.375-.643a.669.669 0 0 0-.23-.516c-.15-.14-.382-.244-.695-.315l-1.108-.243c-.61-.14-1.062-.361-1.355-.665-.29-.304-.434-.689-.434-1.155 0-.386.108-.724.324-1.014.216-.29.514-.516.894-.678.381-.164.817-.247 1.309-.247.707 0 1.264.154 1.67.46.406.304.675.712.805 1.224Z"></path><path fill="#595B5D" d="M77.939 10.752A.5.5 0 0 1 78.37 10h5.258a.5.5 0 0 1 .432.752l-2.63 4.508a.5.5 0 0 1-.863 0l-2.63-4.508Z"></path><rect width="20" height="20" x="8" y="28" fill="#4EA7FC" opacity=".08" rx="2"></rect><path fill="#4EA7FC" d="m14.285 31.324 10.278 10.278a.5.5 0 0 1 0 .707l-2.431 2.432a.5.5 0 0 1-.708 0L19.8 43.116l1.166-1.166.074-.085a.832.832 0 0 0-1.251-1.092l-1.166 1.166-1.043-1.043 1.167-1.165.074-.086a.832.832 0 0 0-1.251-1.091l-1.167 1.165-1.042-1.042 1.166-1.166.075-.085a.832.832 0 0 0-1.252-1.092L14.184 37.5l-1.042-1.042 1.166-1.166.074-.085a.832.832 0 0 0-1.251-1.092l-1.166 1.166-.819-.818a.5.5 0 0 1 0-.707l2.432-2.432a.5.5 0 0 1 .707 0Zm-.192 8.439 2.405 2.405-1.306 1.344c-.639.64-3.247 1.362-3.707 1.238l-.046-.02c-.275-.197.777-2.923 1.45-3.72l.076-.082 1.128-1.165Zm10.43-8.264c.627.627.664 1.62.111 2.29l-.11.12-2.613 2.688-2.41-2.408 2.612-2.69a1.705 1.705 0 0 1 2.41 0Z"></path><path fill="#E2E4E6" d="M35.039 43v-9.455h3.37c.735 0 1.345.134 1.828.402a2.61 2.61 0 0 1 1.085 1.099c.24.462.36.982.36 1.56 0 .582-.122 1.105-.365 1.57-.24.461-.603.828-1.09 1.099-.483.267-1.09.401-1.823.401h-2.317v-1.21h2.188c.465 0 .842-.08 1.13-.24.29-.163.503-.384.638-.664s.203-.599.203-.956-.068-.674-.203-.95a1.456 1.456 0 0 0-.642-.652c-.289-.157-.67-.235-1.145-.235h-1.79V43h-1.427Zm8.204 0v-7.09h1.334v1.126h.074c.13-.382.357-.682.684-.9.329-.222.701-.333 1.117-.333a5.96 5.96 0 0 1 .586.032v1.32a2.484 2.484 0 0 0-.295-.05 2.81 2.81 0 0 0-.425-.033 1.8 1.8 0 0 0-.873.208 1.543 1.543 0 0 0-.821 1.39V43h-1.38Zm7.723.143c-.665 0-1.245-.152-1.74-.457a3.082 3.082 0 0 1-1.155-1.279c-.274-.547-.41-1.188-.41-1.92 0-.736.136-1.379.41-1.93.274-.55.659-.979 1.154-1.283.496-.305 1.076-.457 1.74-.457.665 0 1.245.152 1.741.457.495.304.88.732 1.154 1.283.274.551.411 1.194.411 1.93 0 .732-.137 1.372-.41 1.92a3.082 3.082 0 0 1-1.155 1.28c-.495.304-1.076.456-1.74.456Zm.004-1.159c.431 0 .788-.114 1.071-.341.283-.228.493-.531.628-.91.139-.378.208-.795.208-1.25 0-.453-.07-.869-.208-1.247a2.03 2.03 0 0 0-.628-.919c-.283-.23-.64-.346-1.07-.346-.435 0-.795.115-1.081.346-.283.23-.494.537-.633.919a3.674 3.674 0 0 0-.203 1.246c0 .456.068.873.203 1.251.139.379.35.682.633.91.286.227.646.341 1.08.341Zm7.496 1.154a2.748 2.748 0 0 1-1.532-.438c-.447-.296-.798-.716-1.053-1.26-.252-.548-.379-1.205-.379-1.972 0-.766.128-1.422.384-1.966.258-.545.612-.962 1.061-1.251a2.76 2.76 0 0 1 1.528-.434c.44 0 .794.074 1.062.221.271.145.48.314.628.508.15.194.268.365.35.513h.084v-3.514h1.38V43h-1.348v-1.103h-.115a3.65 3.65 0 0 1-.36.517 2 2 0 0 1-.637.508c-.271.144-.622.217-1.053.217Zm.305-1.177c.397 0 .732-.104 1.006-.314.277-.212.486-.506.628-.881.145-.376.217-.813.217-1.311 0-.493-.07-.924-.212-1.293a1.899 1.899 0 0 0-.623-.863c-.274-.207-.613-.31-1.016-.31-.416 0-.762.108-1.039.324-.277.215-.486.509-.628.881a3.596 3.596 0 0 0-.207 1.26c0 .474.07.9.212 1.28.142.378.35.678.628.9.28.218.624.327 1.034.327Zm9.67-1.902v-4.15h1.385V43H68.47v-1.228h-.074a2.214 2.214 0 0 1-.785.946c-.357.25-.802.374-1.334.374-.455 0-.859-.1-1.21-.3a2.108 2.108 0 0 1-.821-.9c-.197-.397-.296-.888-.296-1.473v-4.51h1.38v4.344c0 .483.135.868.402 1.154.268.287.616.43 1.044.43.258 0 .515-.065.77-.194.26-.13.473-.325.642-.587.173-.261.257-.593.254-.997Zm6.227 3.084c-.687 0-1.278-.155-1.773-.466a3.087 3.087 0 0 1-1.136-1.297c-.264-.551-.397-1.182-.397-1.893 0-.72.136-1.356.407-1.907.27-.554.652-.986 1.144-1.297.493-.31 1.073-.466 1.74-.466.54 0 1.02.1 1.441.3.422.197.762.474 1.02.83.262.358.417.775.467 1.252h-1.344a1.61 1.61 0 0 0-.507-.859c-.262-.24-.613-.36-1.053-.36-.385 0-.722.102-1.011.305-.286.2-.51.486-.67.859-.16.369-.24.806-.24 1.31 0 .518.079.964.236 1.34.157.375.379.666.665.872.289.206.63.31 1.02.31.261 0 .498-.049.71-.144.216-.099.396-.239.541-.42.148-.182.25-.4.31-.656h1.343a2.61 2.61 0 0 1-.448 1.228c-.25.36-.583.644-1.002.85-.415.206-.903.31-1.463.31Zm7.699-7.234v1.108h-3.873v-1.108h3.873Zm-2.835-1.699h1.38v6.708c0 .268.04.47.12.605.08.132.184.223.31.272.13.046.27.07.42.07.11 0 .208-.008.29-.024.084-.015.149-.027.195-.037l.25 1.14c-.08.031-.195.062-.343.093a2.696 2.696 0 0 1-.553.055 2.428 2.428 0 0 1-1.016-.194 1.742 1.742 0 0 1-.762-.627c-.194-.284-.29-.639-.29-1.067V34.21Z"></path><path fill="#595B5D" d="M87.939 36.752A.5.5 0 0 1 88.37 36h5.258a.5.5 0 0 1 .432.752l-2.63 4.508a.5.5 0 0 1-.863 0l-2.63-4.508Z"></path><path fill="#949698" fill-rule="evenodd" d="M38.5 71.22a2.5 2.5 0 0 0 1.5-2.29V64.5a2.5 2.5 0 0 0-2.5-2.5h-4.43a2.5 2.5 0 0 0-2.29 1.5H36a2.5 2.5 0 0 1 2.5 2.5v5.22Zm-8 2.78a2.5 2.5 0 0 1-2.5-2.5v-4.43a2.5 2.5 0 0 1 2.5-2.5h4.429a2.5 2.5 0 0 1 2.5 2.5v4.43a2.5 2.5 0 0 1-2.5 2.5H30.5Zm3.5-4.5a1.5 1.5 0 1 1-3 0 1.5 1.5 0 0 1 3 0Zm1.5 0a3 3 0 1 1-6 0 3 3 0 0 1 6 0Z" clip-rule="evenodd"></path><path fill="#E2E4E6" d="M52.465 63.545V73H51.04v-9.455h1.426Zm7.28 4.095-1.25.222a1.481 1.481 0 0 0-.25-.457 1.234 1.234 0 0 0-.452-.356c-.191-.092-.43-.138-.716-.138-.39 0-.717.088-.979.263-.261.172-.392.395-.392.67 0 .236.088.427.263.572.175.145.459.263.85.355l1.126.259c.652.15 1.139.383 1.459.697.32.314.48.722.48 1.223 0 .425-.123.804-.37 1.136-.243.33-.583.588-1.02.776-.434.187-.937.281-1.51.281-.793 0-1.441-.17-1.943-.508-.502-.341-.81-.826-.923-1.454l1.334-.203c.083.348.254.61.513.79.258.175.595.263 1.01.263.453 0 .814-.094 1.085-.282.271-.19.407-.423.407-.697a.724.724 0 0 0-.25-.559c-.163-.15-.414-.264-.752-.341l-1.2-.264c-.662-.15-1.151-.39-1.468-.72-.314-.329-.471-.746-.471-1.25 0-.42.117-.786.35-1.1.234-.313.557-.558.97-.733.412-.179.885-.268 1.417-.268.767 0 1.37.166 1.81.498.44.33.73.771.872 1.325Zm6.97 0-1.251.222a1.483 1.483 0 0 0-.25-.457 1.233 1.233 0 0 0-.452-.356c-.19-.092-.429-.138-.715-.138-.391 0-.717.088-.979.263-.261.172-.392.395-.392.67 0 .236.087.427.263.572.175.145.458.263.85.355l1.126.259c.652.15 1.138.383 1.459.697.32.314.48.722.48 1.223 0 .425-.123.804-.37 1.136-.243.33-.583.588-1.02.776-.434.187-.937.281-1.51.281-.794 0-1.441-.17-1.943-.508-.502-.341-.81-.826-.923-1.454l1.334-.203c.083.348.254.61.512.79.259.175.596.263 1.011.263.453 0 .814-.094 1.085-.282.27-.19.406-.423.406-.697a.725.725 0 0 0-.249-.559c-.163-.15-.414-.264-.752-.341l-1.2-.264c-.662-.15-1.152-.39-1.469-.72-.314-.329-.47-.746-.47-1.25 0-.42.116-.786.35-1.1.234-.313.557-.558.97-.733.412-.179.885-.268 1.417-.268.766 0 1.37.166 1.81.498.44.33.73.771.872 1.325Zm6.148 2.42v-4.15h1.385V73h-1.357v-1.228h-.074a2.213 2.213 0 0 1-.785.946c-.357.25-.802.374-1.334.374-.455 0-.859-.1-1.21-.3a2.109 2.109 0 0 1-.821-.9c-.197-.397-.296-.888-.296-1.473v-4.51h1.38v4.344c0 .483.134.868.402 1.154.268.287.616.43 1.044.43.258 0 .515-.065.77-.194.259-.13.473-.325.642-.587.172-.261.257-.593.254-.997Zm6.296 3.083c-.699 0-1.3-.15-1.805-.448a3.037 3.037 0 0 1-1.164-1.27c-.27-.547-.406-1.189-.406-1.924 0-.727.136-1.367.406-1.92a3.155 3.155 0 0 1 1.145-1.298c.493-.31 1.068-.466 1.727-.466.4 0 .788.066 1.163.198.376.133.713.34 1.011.623.299.284.534.651.707 1.104.172.45.258.995.258 1.639v.489h-5.637v-1.034h4.285c0-.363-.074-.685-.222-.965a1.675 1.675 0 0 0-.623-.67 1.741 1.741 0 0 0-.933-.244c-.388 0-.726.095-1.016.286a1.921 1.921 0 0 0-.664.739c-.154.302-.231.63-.231.983v.808c0 .474.083.877.25 1.21.169.332.404.586.706.761.301.173.653.259 1.057.259.261 0 .5-.037.715-.111a1.484 1.484 0 0 0 .919-.9l1.306.235a2.367 2.367 0 0 1-.563 1.011c-.268.287-.605.51-1.01.67a3.785 3.785 0 0 1-1.381.235Zm9.887-5.503-1.25.222a1.481 1.481 0 0 0-.25-.457 1.234 1.234 0 0 0-.453-.356c-.19-.092-.429-.138-.715-.138-.391 0-.717.088-.979.263-.261.172-.392.395-.392.67 0 .236.087.427.263.572.175.145.459.263.85.355l1.126.259c.652.15 1.139.383 1.459.697.32.314.48.722.48 1.223 0 .425-.123.804-.37 1.136-.243.33-.583.588-1.02.776-.434.187-.937.281-1.51.281-.793 0-1.441-.17-1.943-.508-.502-.341-.81-.826-.923-1.454l1.334-.203c.083.348.254.61.512.79.259.175.596.263 1.011.263.453 0 .814-.094 1.085-.282.271-.19.406-.423.406-.697a.724.724 0 0 0-.249-.559c-.163-.15-.414-.264-.752-.341l-1.2-.264c-.662-.15-1.152-.39-1.469-.72-.314-.329-.47-.746-.47-1.25 0-.42.116-.786.35-1.1.234-.313.557-.558.97-.733.412-.179.885-.268 1.417-.268.766 0 1.37.166 1.81.498.44.33.73.771.872 1.325ZM51.837 103h-1.514l3.402-9.454h1.649L58.776 103h-1.514l-2.673-7.737h-.074L51.837 103Zm.254-3.702h4.912v1.2h-4.912v-1.2Zm10.812 3.845c-.686 0-1.277-.155-1.773-.466a3.086 3.086 0 0 1-1.135-1.297c-.265-.551-.397-1.182-.397-1.893 0-.72.135-1.356.406-1.907.27-.554.652-.986 1.145-1.297.492-.31 1.072-.466 1.74-.466.539 0 1.019.1 1.44.3.422.197.762.474 1.02.83.262.358.418.775.467 1.252h-1.343a1.61 1.61 0 0 0-.508-.859c-.262-.24-.613-.36-1.053-.36-.384 0-.721.102-1.01.305-.287.2-.51.486-.67.859-.16.369-.24.806-.24 1.31 0 .518.078.964.235 1.339.157.376.379.667.665.873.29.206.63.309 1.02.309.262 0 .499-.048.711-.143.216-.098.396-.238.54-.42.148-.182.251-.4.31-.656h1.343a2.61 2.61 0 0 1-.448 1.228c-.249.36-.583.644-1.001.85-.416.206-.904.309-1.464.309Zm7.7-7.234v1.108h-3.874v-1.108h3.873Zm-2.835-1.699h1.38v6.708c0 .268.04.469.12.605.08.132.183.223.31.272.129.046.269.069.42.069.11 0 .207-.007.29-.023.083-.015.148-.027.194-.037l.25 1.141c-.08.03-.194.061-.342.092a2.691 2.691 0 0 1-.554.055 2.424 2.424 0 0 1-1.016-.194 1.739 1.739 0 0 1-.761-.627c-.194-.284-.291-.639-.291-1.067V94.21Zm4.361 8.79v-7.09h1.38V103h-1.38Zm.697-8.185a.877.877 0 0 1-.618-.24.78.78 0 0 1-.254-.582.77.77 0 0 1 .254-.581.868.868 0 0 1 .618-.245c.24 0 .445.082.614.245.172.16.259.353.259.581a.774.774 0 0 1-.259.582.861.861 0 0 1-.614.24Zm8.606 1.094L78.862 103h-1.478l-2.576-7.09h1.482l1.795 5.456h.074l1.792-5.457h1.481Zm4.113 7.234c-.7 0-1.3-.149-1.805-.448a3.031 3.031 0 0 1-1.164-1.269c-.27-.548-.406-1.19-.406-1.925 0-.727.135-1.367.406-1.92a3.155 3.155 0 0 1 1.145-1.298c.492-.31 1.068-.466 1.727-.466.4 0 .788.066 1.163.198.375.133.712.34 1.011.623.299.284.534.651.706 1.104.173.45.259.995.259 1.639v.489H82.95v-1.034h4.284c0-.363-.074-.685-.221-.965a1.675 1.675 0 0 0-.624-.67 1.742 1.742 0 0 0-.932-.244c-.388 0-.726.095-1.016.286a1.92 1.92 0 0 0-.665.739c-.153.302-.23.63-.23.983v.808c0 .474.083.877.249 1.21.17.332.405.586.706.761.302.173.654.259 1.057.259.262 0 .5-.037.716-.111a1.48 1.48 0 0 0 .919-.9l1.306.235a2.362 2.362 0 0 1-.563 1.011c-.268.287-.605.51-1.011.67a3.783 3.783 0 0 1-1.38.235ZM51.039 133v-9.455H54.5c.671 0 1.227.111 1.667.333.44.218.769.515.988.891.218.372.327.792.327 1.26 0 .394-.072.726-.217.997a1.794 1.794 0 0 1-.581.647c-.24.16-.505.277-.794.35v.093c.314.015.62.117.918.304.302.185.551.448.748.79.197.341.296.757.296 1.246 0 .484-.114.917-.342 1.302-.225.382-.572.685-1.043.91-.471.221-1.073.332-1.805.332h-3.624Zm1.426-1.223h2.06c.682 0 1.172-.133 1.467-.397.296-.265.443-.596.443-.993 0-.298-.075-.572-.226-.822a1.62 1.62 0 0 0-.646-.595c-.277-.148-.606-.222-.988-.222h-2.11v3.029Zm0-4.141h1.911c.32 0 .608-.062.864-.185.258-.123.463-.295.614-.517a1.37 1.37 0 0 0 .23-.794 1.31 1.31 0 0 0-.41-.983c-.274-.265-.694-.397-1.26-.397h-1.949v2.876Zm9.032 5.521c-.449 0-.855-.083-1.218-.249a2.059 2.059 0 0 1-.864-.734c-.209-.32-.314-.713-.314-1.178 0-.4.077-.729.231-.987.154-.259.362-.464.623-.614a3.25 3.25 0 0 1 .878-.342c.323-.077.652-.136.988-.176l1.034-.12c.264-.033.457-.087.577-.161.12-.074.18-.194.18-.36v-.033c0-.403-.114-.715-.342-.937-.225-.221-.56-.332-1.006-.332-.465 0-.831.103-1.099.309-.265.203-.448.43-.55.679l-1.297-.296a2.5 2.5 0 0 1 .674-1.043 2.73 2.73 0 0 1 1.03-.582 4.022 4.022 0 0 1 1.223-.184c.283 0 .583.034.9.101.32.065.619.185.896.36a2 2 0 0 1 .688.753c.178.323.268.743.268 1.26V133h-1.348v-.969h-.056a1.98 1.98 0 0 1-.401.526 2.141 2.141 0 0 1-.688.429c-.28.114-.616.171-1.007.171Zm.3-1.108c.382 0 .708-.075.98-.226.273-.151.48-.348.622-.591.145-.246.217-.509.217-.79v-.914c-.049.05-.144.096-.286.139-.138.04-.297.075-.475.106l-.522.079-.425.055a3.431 3.431 0 0 0-.734.171c-.218.08-.394.195-.526.346-.13.148-.194.345-.194.591 0 .342.126.6.379.775.252.173.574.259.964.259Zm8.025 1.094c-.686 0-1.277-.155-1.773-.466a3.086 3.086 0 0 1-1.135-1.297c-.265-.551-.397-1.182-.397-1.893 0-.72.135-1.356.406-1.907.27-.554.652-.986 1.145-1.297.492-.311 1.072-.466 1.74-.466.539 0 1.019.1 1.44.3.422.197.762.474 1.02.831.262.357.418.774.467 1.251h-1.343a1.608 1.608 0 0 0-.508-.859c-.262-.24-.613-.36-1.053-.36-.385 0-.722.102-1.01.305-.287.2-.51.486-.67.858-.16.37-.24.807-.24 1.312 0 .517.078.963.235 1.338.157.376.379.667.665.873.29.206.63.309 1.02.309.262 0 .499-.048.711-.143.216-.098.396-.238.54-.42.148-.182.251-.4.31-.656h1.343c-.05.459-.198.868-.448 1.228s-.583.644-1.002.85c-.415.206-.903.309-1.463.309Zm5.659-2.548-.01-1.685h.24l2.826-3.001h1.652l-3.222 3.416h-.217l-1.27 1.27ZM74.21 133v-9.455h1.38V133h-1.38Zm4.478 0-2.539-3.37.951-.965L80.383 133H78.69Zm4.139-9.455V133h-1.38v-9.455h1.38Zm4.844 9.598c-.665 0-1.245-.152-1.74-.457a3.083 3.083 0 0 1-1.155-1.279c-.274-.548-.41-1.188-.41-1.92 0-.736.136-1.379.41-1.93a3.07 3.07 0 0 1 1.154-1.283c.496-.305 1.076-.457 1.74-.457.665 0 1.245.152 1.741.457.495.304.88.732 1.154 1.283.274.551.411 1.194.411 1.93 0 .732-.137 1.372-.41 1.92a3.083 3.083 0 0 1-1.155 1.279c-.496.305-1.076.457-1.74.457Zm.004-1.159c.431 0 .788-.113 1.071-.341.283-.228.493-.531.628-.91.139-.378.208-.795.208-1.251a3.6 3.6 0 0 0-.208-1.246 2.03 2.03 0 0 0-.628-.919c-.283-.231-.64-.346-1.07-.346-.435 0-.795.115-1.081.346a2.063 2.063 0 0 0-.633.919 3.674 3.674 0 0 0-.203 1.246c0 .456.068.873.203 1.251.139.379.35.682.633.91.286.228.646.341 1.08.341Zm7.815 3.823c-.563 0-1.048-.074-1.454-.222a2.806 2.806 0 0 1-.988-.586 2.454 2.454 0 0 1-.573-.799l1.187-.489c.083.135.194.278.332.429.142.154.332.285.572.393.244.107.556.161.938.161.523 0 .955-.127 1.297-.383.341-.252.512-.655.512-1.209v-1.395h-.087a3.16 3.16 0 0 1-.36.504 1.965 1.965 0 0 1-.638.48c-.27.135-.623.203-1.057.203a2.95 2.95 0 0 1-1.514-.393c-.446-.264-.8-.654-1.062-1.168-.258-.517-.388-1.152-.388-1.906s.128-1.4.384-1.939c.258-.539.612-.951 1.061-1.237.45-.29.96-.434 1.528-.434.44 0 .796.074 1.067.221.27.145.481.314.632.508.154.194.273.365.356.513h.101v-1.15h1.353v7.248c0 .609-.142 1.109-.425 1.5a2.5 2.5 0 0 1-1.15.868 4.427 4.427 0 0 1-1.624.282Zm-.014-4.058c.397 0 .732-.092 1.006-.277a1.73 1.73 0 0 0 .628-.803c.145-.351.217-.771.217-1.261 0-.477-.07-.897-.212-1.26a1.871 1.871 0 0 0-.623-.849c-.274-.207-.613-.31-1.016-.31-.416 0-.762.108-1.039.323a1.953 1.953 0 0 0-.628.868 3.454 3.454 0 0 0-.207 1.228c0 .465.07.873.212 1.224s.35.625.628.821c.28.197.625.296 1.034.296Z"></path><path fill="#282C30" d="M34 86h.5v54H34z"></path><path fill="#949698" d="M31.948 152h-3.325a.623.623 0 0 0-.623.623v3.325c0 .344.28.623.623.623h3.325a.623.623 0 0 0 .623-.623v-3.325a.623.623 0 0 0-.623-.623ZM39.377 152h-3.325a.623.623 0 0 0-.623.623v3.325c0 .344.279.623.623.623h3.325a.623.623 0 0 0 .623-.623v-3.325a.623.623 0 0 0-.623-.623ZM31.948 159.429h-3.325a.623.623 0 0 0-.623.623v3.325c0 .344.28.623.623.623h3.325a.623.623 0 0 0 .623-.623v-3.325a.623.623 0 0 0-.623-.623ZM39.377 159.429h-3.325a.623.623 0 0 0-.623.623v3.325c0 .344.279.623.623.623h3.325a.623.623 0 0 0 .623-.623v-3.325a.623.623 0 0 0-.623-.623Z"></path><path fill="#E2E4E6" d="M51.039 163v-9.455h3.37c.735 0 1.345.134 1.828.402a2.61 2.61 0 0 1 1.085 1.099c.24.461.36.982.36 1.56 0 .582-.122 1.105-.365 1.57-.24.461-.603.828-1.09 1.099-.483.267-1.09.401-1.823.401h-2.317v-1.209h2.188c.465 0 .842-.08 1.13-.24.29-.164.503-.385.638-.665a2.17 2.17 0 0 0 .203-.956c0-.357-.068-.674-.203-.951a1.457 1.457 0 0 0-.642-.651c-.289-.157-.67-.235-1.145-.235h-1.79V163h-1.427Zm8.204 0v-7.091h1.334v1.127h.074c.13-.382.357-.682.684-.901a1.96 1.96 0 0 1 1.117-.332 6.053 6.053 0 0 1 .586.032v1.321a2.257 2.257 0 0 0-.295-.051 2.76 2.76 0 0 0-.425-.033c-.326 0-.617.07-.873.208a1.548 1.548 0 0 0-.821 1.39V163h-1.38Zm7.723.143c-.665 0-1.245-.152-1.74-.457a3.083 3.083 0 0 1-1.155-1.279c-.274-.548-.41-1.188-.41-1.92 0-.736.136-1.379.41-1.93a3.07 3.07 0 0 1 1.154-1.283c.496-.305 1.076-.457 1.74-.457.665 0 1.245.152 1.741.457.495.304.88.732 1.154 1.283.274.551.411 1.194.411 1.93 0 .732-.137 1.372-.41 1.92a3.083 3.083 0 0 1-1.155 1.279c-.496.305-1.076.457-1.74.457Zm.004-1.159c.431 0 .788-.113 1.071-.341.283-.228.493-.531.628-.91.139-.378.208-.795.208-1.251a3.6 3.6 0 0 0-.208-1.246 2.03 2.03 0 0 0-.628-.919c-.283-.231-.64-.346-1.07-.346-.435 0-.795.115-1.081.346a2.063 2.063 0 0 0-.633.919 3.672 3.672 0 0 0-.203 1.246c0 .456.068.873.203 1.251.139.379.35.682.633.91.286.228.646.341 1.08.341Zm4.842-6.075h1.38v7.553c0 .474-.086.874-.258 1.2-.17.326-.422.574-.758.743-.332.169-.743.254-1.232.254h-.139c-.046 0-.094-.001-.143-.005v-1.186h.222c.326 0 .561-.088.706-.263.148-.172.222-.423.222-.753v-7.543Zm.683-1.094a.878.878 0 0 1-.619-.24.78.78 0 0 1-.254-.582.77.77 0 0 1 .254-.581.865.865 0 0 1 .619-.245.85.85 0 0 1 .614.245c.172.16.259.354.259.581a.774.774 0 0 1-.26.582.861.861 0 0 1-.613.24Zm5.61 8.328c-.699 0-1.3-.149-1.805-.448a3.03 3.03 0 0 1-1.163-1.269c-.271-.548-.406-1.19-.406-1.925 0-.727.135-1.367.406-1.921a3.155 3.155 0 0 1 1.145-1.297c.492-.311 1.068-.466 1.726-.466.4 0 .788.066 1.163.198.376.133.713.34 1.011.623.3.284.534.651.707 1.104.172.449.258.995.258 1.639v.489h-5.636v-1.034h4.284c0-.363-.074-.685-.222-.965a1.675 1.675 0 0 0-.623-.669 1.742 1.742 0 0 0-.933-.245 1.8 1.8 0 0 0-1.015.286 1.922 1.922 0 0 0-.665.739c-.154.301-.23.629-.23.983v.808c0 .474.082.877.249 1.21a1.8 1.8 0 0 0 .706.761c.301.173.654.259 1.057.259.262 0 .5-.037.716-.111a1.48 1.48 0 0 0 .919-.9l1.306.235a2.362 2.362 0 0 1-.564 1.011 2.72 2.72 0 0 1-1.01.67 3.782 3.782 0 0 1-1.38.235Zm7.56 0c-.686 0-1.277-.155-1.772-.466a3.086 3.086 0 0 1-1.136-1.297c-.264-.551-.397-1.182-.397-1.893 0-.72.136-1.356.407-1.907.27-.554.652-.986 1.145-1.297.492-.311 1.072-.466 1.74-.466.538 0 1.019.1 1.44.3.422.197.762.474 1.02.831.262.357.418.774.467 1.251h-1.344a1.608 1.608 0 0 0-.507-.859c-.262-.24-.613-.36-1.053-.36-.385 0-.722.102-1.011.305-.286.2-.51.486-.67.858-.16.37-.24.807-.24 1.312 0 .517.079.963.236 1.338.157.376.379.667.665.873.289.206.63.309 1.02.309.262 0 .499-.048.71-.143.216-.098.396-.238.541-.42.148-.182.25-.4.31-.656h1.343c-.05.459-.199.868-.448 1.228-.25.36-.583.644-1.002.85-.415.206-.903.309-1.463.309Zm7.7-7.234v1.108h-3.873v-1.108h3.873Zm-2.835-1.699h1.38v6.708c0 .268.04.469.12.605.08.132.184.223.31.272.13.046.27.069.42.069.11 0 .208-.007.291-.023.083-.015.148-.027.194-.037l.25 1.141c-.08.03-.195.061-.343.092a2.691 2.691 0 0 1-.553.055 2.424 2.424 0 0 1-1.016-.194 1.739 1.739 0 0 1-.762-.627c-.194-.284-.29-.639-.29-1.067v-6.994Zm9.561 3.43-1.251.222a1.474 1.474 0 0 0-.25-.457 1.238 1.238 0 0 0-.452-.356c-.19-.092-.429-.138-.715-.138-.391 0-.717.088-.979.263-.261.172-.392.395-.392.669 0 .237.087.428.263.573.175.144.458.263.85.355l1.126.259c.652.151 1.138.383 1.459.697.32.314.48.722.48 1.223 0 .425-.124.804-.37 1.136-.243.329-.583.588-1.02.776-.434.187-.937.281-1.51.281-.794 0-1.441-.169-1.943-.508-.502-.341-.81-.826-.923-1.454l1.334-.203c.083.348.254.611.512.789.259.176.596.264 1.011.264.453 0 .814-.094 1.085-.282.27-.191.406-.423.406-.697a.725.725 0 0 0-.249-.559c-.163-.151-.414-.264-.752-.341l-1.2-.264c-.662-.15-1.152-.39-1.469-.72-.314-.329-.47-.746-.47-1.251 0-.418.116-.785.35-1.098.234-.314.557-.559.97-.734.412-.179.884-.268 1.417-.268.766 0 1.37.166 1.81.498.44.33.73.771.872 1.325Z"></path><path fill="#949698" fill-rule="evenodd" d="M34.036 182.497a.232.232 0 0 0-.083 0 .517.517 0 0 0-.053.018 6.108 6.108 0 0 0-.25.108l-3.883 1.725c-.495.22-.819.365-1.043.49a1.186 1.186 0 0 0-.21.139.249.249 0 0 0-.007.183c.014.015.065.065.2.154.216.14.528.307 1.007.561l2.758 1.464c.726.385.956.499 1.183.543.224.045.454.045.678 0 .227-.044.457-.158 1.183-.543l2.759-1.464c.478-.254.79-.421 1.005-.561.136-.089.187-.139.201-.154a.249.249 0 0 0-.006-.183 1.184 1.184 0 0 0-.211-.139c-.224-.125-.548-.27-1.043-.49l-3.882-1.725a6.108 6.108 0 0 0-.25-.108m-.386-1.496c.193-.033.39-.033.582 0 .221.037.425.128.615.213l.047.021 3.915 1.74c.454.201.841.373 1.132.536.286.159.614.379.801.737a1.75 1.75 0 0 1 .053 1.512c-.162.37-.474.612-.748.791-.28.183-.653.381-1.092.614l-2.79 1.48-.09.048c-.597.317-1.033.549-1.504.642a3.253 3.253 0 0 1-1.26 0c-.47-.093-.906-.325-1.503-.642l-.09-.048-2.79-1.48c-.44-.233-.814-.431-1.092-.614-.275-.179-.586-.421-.748-.791a1.75 1.75 0 0 1 .052-1.512c.188-.358.515-.578.801-.737.291-.163.678-.335 1.132-.536l3.915-1.74.047-.021c.19-.085.394-.176.615-.213Zm.333 1.478-.001-.001Zm0 0-.001-.001Z" clip-rule="evenodd"></path><path fill="#949698" d="M28.116 187.841a.75.75 0 0 0-.732 1.308l2.843 1.593c1.173.657 1.91 1.07 2.704 1.235a5.256 5.256 0 0 0 2.127 0c.794-.165 1.53-.578 2.703-1.235l2.844-1.593a.75.75 0 0 0-.732-1.308l-2.73 1.529c-1.325.743-1.85 1.027-2.39 1.139a3.775 3.775 0 0 1-1.519 0c-.54-.112-1.064-.396-2.389-1.139l-2.73-1.529Z"></path><path fill="#949698" d="M28.124 190.844a.75.75 0 1 0-.748 1.299l1.978 1.14c1.482.854 2.378 1.37 3.344 1.575a6.253 6.253 0 0 0 2.592 0c.967-.205 1.863-.721 3.344-1.575l1.979-1.14a.75.75 0 0 0-.748-1.299l-1.857 1.069c-1.642.947-2.323 1.329-3.029 1.479-.65.138-1.32.138-1.97 0-.706-.15-1.387-.532-3.03-1.479l-1.855-1.069Z"></path><path fill="#E2E4E6" d="m51.865 183.545 2.631 7.701h.107l2.631-7.701h1.542L55.374 193h-1.649l-3.402-9.455h1.542ZM60.031 193v-7.091h1.38V193h-1.38Zm.697-8.185a.878.878 0 0 1-.62-.24.78.78 0 0 1-.253-.582.77.77 0 0 1 .254-.581.865.865 0 0 1 .618-.245.85.85 0 0 1 .615.245c.172.16.258.354.258.581a.774.774 0 0 1-.258.582.861.861 0 0 1-.614.24Zm5.596 8.328c-.699 0-1.3-.149-1.805-.448a3.031 3.031 0 0 1-1.164-1.269c-.27-.548-.406-1.19-.406-1.925 0-.727.136-1.367.407-1.921a3.154 3.154 0 0 1 1.144-1.297c.493-.311 1.068-.466 1.727-.466.4 0 .788.066 1.163.198.376.133.713.34 1.011.623.299.284.534.651.707 1.104.172.449.258.995.258 1.639v.489H63.73v-1.034h4.284c0-.363-.073-.685-.221-.965a1.675 1.675 0 0 0-.623-.669 1.743 1.743 0 0 0-.933-.245 1.8 1.8 0 0 0-1.016.286 1.921 1.921 0 0 0-.664.739c-.154.301-.231.629-.231.983v.808c0 .474.083.877.25 1.21.168.332.404.586.706.761.301.173.653.259 1.057.259.261 0 .5-.037.715-.111a1.48 1.48 0 0 0 .919-.9l1.306.235a2.362 2.362 0 0 1-.563 1.011c-.268.287-.605.51-1.01.67a3.783 3.783 0 0 1-1.381.235Zm6.098-.143-2.086-7.091h1.426l1.39 5.207h.069l1.394-5.207h1.427l1.385 5.184h.069l1.38-5.184h1.427L78.22 193h-1.409l-1.44-5.12h-.106l-1.44 5.12h-1.404Zm14.504-5.36-1.251.222a1.474 1.474 0 0 0-.25-.457 1.238 1.238 0 0 0-.452-.356c-.19-.092-.43-.138-.715-.138-.391 0-.717.088-.979.263-.262.172-.392.395-.392.669 0 .237.087.428.263.573.175.144.458.263.85.355l1.126.259c.652.151 1.138.383 1.458.697.32.314.48.722.48 1.223 0 .425-.123.804-.369 1.136-.243.329-.583.588-1.02.776-.434.187-.937.281-1.51.281-.794 0-1.442-.169-1.943-.508-.502-.341-.81-.826-.923-1.454l1.334-.203c.083.348.254.611.512.789.259.176.596.264 1.011.264.453 0 .814-.094 1.085-.282.27-.191.406-.423.406-.697a.725.725 0 0 0-.249-.559c-.163-.151-.414-.264-.752-.341l-1.2-.264c-.662-.15-1.152-.39-1.469-.72-.314-.329-.47-.746-.47-1.251 0-.418.116-.785.35-1.098.234-.314.557-.559.97-.734.412-.179.884-.268 1.417-.268.766 0 1.37.166 1.81.498.44.33.73.771.872 1.325Z"></path><rect width="20" height="20" x="8" y="212" fill="#F2994A" opacity=".08" rx="2"></rect><path fill="#F2994A" fill-rule="evenodd" d="M16.5 215a.5.5 0 0 1 .49.402l.938 4.69 3.693.923a.5.5 0 0 1 0 .97l-3.693.923-.938 4.69a.5.5 0 0 1-.98 0l-.938-4.69-3.693-.923a.5.5 0 0 1 0-.97l3.693-.923.938-4.69a.5.5 0 0 1 .49-.402ZM22.5 224a.5.5 0 0 1 .474.342l.421 1.263 1.263.421a.5.5 0 0 1 0 .948l-1.263.421-.42 1.263a.5.5 0 0 1-.95 0l-.42-1.263-1.263-.421a.5.5 0 0 1 0-.948l1.263-.421.42-1.263A.5.5 0 0 1 22.5 224Z" clip-rule="evenodd"></path><path fill="#E2E4E6" d="M35.039 217.545h1.73l3.01 7.35h.112l3.01-7.35h1.73V227h-1.356v-6.842h-.088l-2.789 6.828h-1.126l-2.788-6.832h-.088V227h-1.357v-9.455Zm13.62 9.612c-.45 0-.856-.083-1.22-.249a2.06 2.06 0 0 1-.863-.734c-.209-.32-.313-.713-.313-1.178 0-.4.077-.729.23-.987.154-.259.362-.464.624-.614a3.25 3.25 0 0 1 .877-.342 8.71 8.71 0 0 1 .988-.176l1.034-.12c.264-.033.457-.087.577-.161.12-.074.18-.194.18-.36v-.033c0-.403-.114-.715-.342-.937-.224-.221-.56-.332-1.006-.332-.465 0-.831.103-1.099.309-.265.203-.448.43-.55.679l-1.297-.296c.154-.43.379-.778.675-1.043a2.73 2.73 0 0 1 1.029-.582 4.022 4.022 0 0 1 1.223-.184c.284 0 .584.034.9.101.32.065.62.185.896.36a2 2 0 0 1 .688.753c.178.323.268.743.268 1.26V227H50.81v-.969h-.056c-.089.178-.223.353-.401.526a2.142 2.142 0 0 1-.688.429c-.28.114-.616.171-1.007.171Zm.3-1.108c.381 0 .707-.075.978-.226.274-.151.482-.348.623-.591.145-.246.217-.509.217-.79v-.914c-.049.05-.144.096-.286.139-.138.04-.297.075-.475.106l-.522.079-.425.055a3.433 3.433 0 0 0-.734.171c-.218.08-.394.195-.526.346-.13.148-.194.345-.194.591 0 .342.126.6.379.775.252.173.574.259.965.259Zm5.037.951v-7.091h1.334v1.127h.074c.13-.382.357-.682.683-.901a1.96 1.96 0 0 1 1.118-.332 6.05 6.05 0 0 1 .586.032v1.321a2.258 2.258 0 0 0-.295-.051 2.763 2.763 0 0 0-.425-.033c-.326 0-.617.07-.873.208a1.55 1.55 0 0 0-.821 1.39V227h-1.38Zm6.26-2.405-.01-1.685h.24l2.825-3.001h1.653l-3.222 3.416h-.217l-1.27 1.27ZM58.985 227v-9.455h1.38V227h-1.38Zm4.478 0-2.54-3.37.951-.965L65.158 227h-1.694Zm5.522.143c-.699 0-1.3-.149-1.805-.448a3.031 3.031 0 0 1-1.163-1.269c-.271-.548-.407-1.19-.407-1.925 0-.727.136-1.367.407-1.921a3.154 3.154 0 0 1 1.144-1.297c.493-.311 1.068-.466 1.727-.466.4 0 .788.066 1.163.198.376.133.713.34 1.011.623.299.284.534.651.707 1.104.172.449.258.995.258 1.639v.489h-5.637v-1.034h4.285c0-.363-.074-.685-.222-.965a1.675 1.675 0 0 0-.623-.669 1.743 1.743 0 0 0-.933-.245 1.8 1.8 0 0 0-1.015.286 1.921 1.921 0 0 0-.665.739c-.154.301-.231.629-.231.983v.808c0 .474.083.877.25 1.21.169.332.404.586.706.761.301.173.654.259 1.057.259.261 0 .5-.037.715-.111a1.48 1.48 0 0 0 .919-.9l1.306.235a2.362 2.362 0 0 1-.563 1.011 2.72 2.72 0 0 1-1.01.67 3.783 3.783 0 0 1-1.381.235Zm7.884-7.234v1.108h-3.874v-1.108h3.874Zm-2.835-1.699h1.38v6.708c0 .268.04.469.12.605.08.132.184.223.31.272.13.046.27.069.42.069.11 0 .208-.007.29-.023a6.29 6.29 0 0 0 .195-.037l.249 1.141c-.08.03-.194.061-.342.092a2.691 2.691 0 0 1-.554.055 2.424 2.424 0 0 1-1.015-.194 1.739 1.739 0 0 1-.762-.627c-.194-.284-.29-.639-.29-1.067v-6.994Zm4.362 8.79v-7.091h1.38V227h-1.38Zm.697-8.185a.878.878 0 0 1-.619-.24.78.78 0 0 1-.254-.582.77.77 0 0 1 .254-.581.865.865 0 0 1 .619-.245c.24 0 .445.081.614.245.172.16.258.354.258.581a.774.774 0 0 1-.258.582.861.861 0 0 1-.614.24Zm3.92 3.975V227h-1.38v-7.091h1.325v1.154h.088c.163-.375.418-.677.766-.905.35-.227.792-.341 1.325-.341.483 0 .906.101 1.27.304.363.2.644.499.844.896.2.397.3.888.3 1.473V227h-1.38v-4.344c0-.514-.134-.916-.402-1.205-.267-.292-.635-.439-1.103-.439-.32 0-.605.07-.854.208a1.497 1.497 0 0 0-.586.61c-.142.264-.213.584-.213.96Zm9.362 7.017c-.563 0-1.047-.074-1.454-.222a2.806 2.806 0 0 1-.988-.586 2.454 2.454 0 0 1-.572-.799l1.186-.489c.084.135.194.278.333.429.141.154.332.285.572.393.243.107.556.161.937.161.524 0 .956-.127 1.298-.383.341-.252.512-.655.512-1.209v-1.395h-.088a3.153 3.153 0 0 1-.36.504 1.964 1.964 0 0 1-.637.48c-.27.135-.623.203-1.057.203a2.95 2.95 0 0 1-1.514-.393c-.447-.264-.8-.654-1.062-1.168-.258-.517-.388-1.152-.388-1.906s.128-1.4.383-1.939c.259-.539.613-.951 1.062-1.237.45-.29.959-.434 1.528-.434.44 0 .796.074 1.067.221.27.145.481.314.632.508.154.194.272.365.355.513h.102v-1.15h1.353v7.248c0 .609-.142 1.109-.425 1.5a2.5 2.5 0 0 1-1.15.868 4.427 4.427 0 0 1-1.625.282Zm-.013-4.058c.397 0 .732-.092 1.006-.277a1.73 1.73 0 0 0 .628-.803c.144-.351.217-.771.217-1.261 0-.477-.07-.897-.213-1.26a1.872 1.872 0 0 0-.623-.849c-.274-.207-.612-.31-1.015-.31-.416 0-.762.108-1.039.323a1.954 1.954 0 0 0-.628.868 3.454 3.454 0 0 0-.208 1.228c0 .465.071.873.213 1.224.141.351.35.625.628.821.28.197.624.296 1.034.296Z"></path><path fill="#595B5D" d="M104.002 225.624a.5.5 0 0 1-.752-.432v-4.384a.5.5 0 0 1 .752-.432l3.758 2.192a.5.5 0 0 1 0 .864l-3.758 2.192Z"></path><rect width="20" height="20" x="8" y="242" fill="#EB5757" opacity=".08" rx="2"></rect><path fill="#EB5757" fill-rule="evenodd" d="m22.563 253.576.187.122.953.657a2.996 2.996 0 0 1 1.29 2.274l.007.196v.3c0 .986-.761 1.795-1.729 1.87l-.146.005h-5.25a1.878 1.878 0 0 1-1.87-1.729l-.005-.146v-.3a2.998 2.998 0 0 1 1.139-2.353l.158-.117.953-.657a3.956 3.956 0 0 1 2.138-.699 3.955 3.955 0 0 1 2.175.577Zm-5-2 .187.122.922.635a5 5 0 0 0-.922.478l-1.4.922A3.002 3.002 0 0 0 15 256.24v.572c0 .064.003.127.008.189h-2.133a1.878 1.878 0 0 1-1.87-1.729l-.005-.147v-.3a2.998 2.998 0 0 1 1.139-2.353l.158-.117.953-.657a3.956 3.956 0 0 1 2.138-.699 3.955 3.955 0 0 1 2.175.577ZM20.5 247a2.5 2.5 0 1 1 .001 4.999A2.5 2.5 0 0 1 20.5 247Zm-5-2a2.5 2.5 0 1 1 .001 4.999A2.5 2.5 0 0 1 15.5 245Z" clip-rule="evenodd"></path><path fill="#E2E4E6" d="M42.891 250.62h-1.44a2.192 2.192 0 0 0-.863-1.408 2.387 2.387 0 0 0-.734-.369 2.869 2.869 0 0 0-.854-.125c-.545 0-1.033.137-1.464.411-.428.274-.766.675-1.015 1.205-.247.529-.37 1.175-.37 1.939 0 .769.123 1.419.37 1.948.249.529.589.929 1.02 1.2.43.271.915.406 1.454.406.299 0 .582-.04.85-.12.27-.083.515-.204.733-.364a2.235 2.235 0 0 0 .873-1.39l1.44.005a3.86 3.86 0 0 1-.447 1.283c-.219.388-.5.723-.845 1.007-.342.28-.733.497-1.173.65-.44.154-.92.231-1.44.231-.819 0-1.548-.194-2.188-.581-.64-.391-1.145-.95-1.515-1.676-.366-.727-.549-1.593-.549-2.599 0-1.01.185-1.876.554-2.599.37-.727.874-1.284 1.514-1.672.64-.39 1.368-.586 2.184-.586.502 0 .97.073 1.403.217.437.142.83.351 1.177.628.348.274.636.609.864 1.006.227.394.381.845.461 1.353Zm2.586-3.075 2.262 3.698h.074l2.262-3.698h1.652l-2.945 4.728L51.746 257h-1.662l-2.272-3.647h-.073L45.467 257h-1.662l3.015-4.727-2.996-4.728h1.653Z"></path><path fill="#595B5D" d="M60.002 255.624a.5.5 0 0 1-.752-.432v-4.384a.5.5 0 0 1 .752-.432l3.758 2.192a.5.5 0 0 1 0 .864l-3.758 2.192Z"></path></g><defs><filter id="filter0_d_7597_40572" width="236" height="274" x="0" y="0" color-interpolation-filters="sRGB" filterUnits="userSpaceOnUse"><feFlood flood-opacity="0" result="BackgroundImageFix"></feFlood><feColorMatrix in="SourceAlpha" result="hardAlpha" values="0 0 0 0 0 0 0 0 0 0 0 0 0 0 0 0 0 0 127 0"></feColorMatrix><feOffset dy="4"></feOffset><feGaussianBlur stdDeviation="2"></feGaussianBlur><feComposite in2="hardAlpha" operator="out"></feComposite><feColorMatrix values="0 0 0 0 0 0 0 0 0 0 0 0 0 0 0 0 0 0 0.25 0"></feColorMatrix><feBlend in2="BackgroundImageFix" result="effect1_dropShadow_7597_40572"></feBlend><feBlend in="SourceGraphic" in2="effect1_dropShadow_7597_40572" result="shape"></feBlend></filter></defs></svg>